<svg width="111" height="144" viewBox="0 0 111 144" fill="none" xmlns="http://www.w3.org/2000/svg">
<path fill-rule="evenodd" clip-rule="evenodd" d="M110.187 136.53C109.714 132.044 109.083 123.169 90.9253 120.03C90.9708 119.02 90.3352 118.018 88.9995 118.098C85.1503 118.329 81.1169 118.938 77.5742 120.488C74.5252 121.821 74.2319 124.976 73.3525 127.836C73.2712 128.101 73.2535 128.345 73.2727 128.574C64.324 135.879 58.7373 145.006 58.7373 145.006H106.852C111.691 145.006 110.187 136.53 110.187 136.53Z" fill="#18448A"/>
<path fill-rule="evenodd" clip-rule="evenodd" d="M48.3746 145.006C43.048 145.006 39.7481 139.28 42.5137 134.804C46.7377 127.969 53.9346 120.217 64.8397 120.247C75.1461 120.276 84.1094 127.196 90.2701 133.71C94.3336 138.009 91.2168 145.006 85.2469 145.006H48.3746Z" fill="#18448A"/>
<mask id="mask0_22541_62805" style="mask-type:luminance" maskUnits="userSpaceOnUse" x="51" y="63" width="51" height="49">
<path fill-rule="evenodd" clip-rule="evenodd" d="M51.627 63.6821H101.483V111.294H51.627V63.6821Z" fill="white"/>
</mask>
<g mask="url(#mask0_22541_62805)">
<path fill-rule="evenodd" clip-rule="evenodd" d="M96.505 72.3674C89.0459 63.8146 77.2756 61.3314 67.3394 66.0236C60.4631 69.2712 50.2971 76.0571 51.771 85.0544C52.6214 90.2418 56.1125 94.0748 60.1853 97.0797C64.7236 100.429 69.5154 103.355 74.0755 106.701C80.5076 111.422 91.0631 114.14 96.7884 106.566C98.6345 104.123 99.566 101.109 100.246 98.1163C102.159 89.6977 102.494 79.2338 96.505 72.3674Z" fill="black"/>
</g>
<path fill-rule="evenodd" clip-rule="evenodd" d="M85.5521 107.437C81.3521 110.021 80.3165 111.783 75.4226 112.278C73.958 112.426 71.578 113.378 69.2191 113.251C67.1852 113.143 65.1411 112.019 64.0176 111.413C58.3111 108.337 56.5616 101.414 56.5844 95.35C56.6113 88.168 58.7045 80.0456 62.1924 73.8667C62.1924 73.8667 64.7241 70.4744 68.1465 69.4226C73.4271 67.7996 79.1214 68.5924 83.999 71.1016C88.0234 73.1713 91.8529 76.3061 93.9004 80.4948C96.3692 85.5435 95.248 91.1485 93.5888 96.272C93.1178 97.7254 91.1266 98.6059 90.6008 100.04C87.8686 108.461 88.028 116.166 87.1555 124.986L85.8699 125.61C79.6305 127.521 73.081 127.142 68.1816 122.795L67.8207 122.474C68.3013 119.248 69.0218 117.832 69.5019 114.606" fill="#F5CAA7"/>
<path fill-rule="evenodd" clip-rule="evenodd" d="M69.9818 113.788C67.5878 113.788 65.2873 113.227 63.2515 112.139C60.3418 110.585 55.4674 106.379 55.5081 95.6883C55.5294 90.1337 56.4983 84.6772 58.31 79.9085C60.5222 74.0881 63.5421 70.3969 67.5436 68.6246C67.8317 68.4983 68.1706 68.6271 68.2986 68.9172C68.4256 69.2069 68.2956 69.5453 68.006 69.6736C64.2986 71.3151 61.4773 74.7966 59.3795 80.3162C57.616 84.9572 56.6731 90.2752 56.6522 95.6929C56.6385 99.18 57.3076 107.663 63.79 111.128C66.0636 112.344 68.703 112.844 71.4278 112.569C76.2117 112.089 80.672 109.704 84.7792 107.197C85.051 107.033 85.4021 107.119 85.5657 107.389C85.7298 107.659 85.6445 108.012 85.3747 108.177C81.1516 110.753 76.5537 113.206 71.5411 113.71C71.0183 113.762 70.498 113.788 69.9818 113.788Z" fill="black"/>
<path fill-rule="evenodd" clip-rule="evenodd" d="M67.8587 123.476C67.8158 123.476 67.773 123.469 67.7292 123.456C67.457 123.376 67.2942 123.057 67.3653 122.747L69.5754 113.146C69.647 112.835 69.9247 112.648 70.1978 112.731C70.47 112.812 70.6328 113.13 70.5612 113.441L68.3516 123.042C68.2914 123.304 68.0848 123.476 67.8587 123.476Z" fill="black"/>
<path fill-rule="evenodd" clip-rule="evenodd" d="M66.691 99.7939C66.6589 99.7939 66.6252 99.7913 66.592 99.7858L63.5195 99.2558C63.3479 99.2264 63.1987 99.1204 63.1144 98.9687C63.0302 98.8171 63.0199 98.635 63.0863 98.4753L67.3188 88.3053C67.4394 88.0142 67.7755 87.8758 68.0697 87.996C68.3629 88.1162 68.5029 88.4499 68.3818 88.7415L64.4241 98.2526L66.7886 98.6604C67.1022 98.7147 67.3117 99.0098 67.257 99.3202C67.209 99.5981 66.9653 99.7939 66.691 99.7939Z" fill="black"/>
<path fill-rule="evenodd" clip-rule="evenodd" d="M92.6412 97.6404C91.6706 97.6286 90.7006 97.4382 89.79 97.1002C88.1668 96.4982 86.8342 95.3484 85.2527 94.6458C83.0632 93.6737 80.6696 93.2468 78.6173 91.951C71.5823 87.5084 67.272 80.8071 66.3431 72.4535C66.2705 71.8009 66.1176 67.3303 66.7438 67.0643C66.7438 67.0643 81.8464 60.6438 92.1104 72.6296C96.148 77.3448 98.1536 83.3048 99.4141 89.3016C99.7991 91.134 99.7752 92.7745 98.7448 94.3874C97.8362 95.8089 96.3994 96.8959 94.7829 97.3595C94.0845 97.5597 93.3628 97.6495 92.6412 97.6404Z" fill="black"/>
<path fill-rule="evenodd" clip-rule="evenodd" d="M68.3696 104.1C67.1118 104.1 65.6596 103.431 65.4929 103.353C65.2133 103.221 65.1138 102.923 65.2706 102.688C65.4269 102.453 65.7808 102.368 66.0609 102.5C66.451 102.683 67.6406 103.16 68.447 103.121C69.3555 103.086 70.3465 102.372 70.6514 102.1C70.8722 101.904 71.2396 101.895 71.4728 102.08C71.7054 102.264 71.7173 102.572 71.498 102.769C71.4408 102.821 70.0695 104.036 68.5006 104.098C68.4573 104.099 68.4135 104.1 68.3696 104.1Z" fill="black"/>
<path fill-rule="evenodd" clip-rule="evenodd" d="M61.122 87.9673C62.3669 88.0915 63.7211 88.981 63.8762 89.0853C64.1365 89.2606 64.1981 89.6021 64.0138 89.8496C63.83 90.0965 63.4691 90.1565 63.2083 89.9806C62.8453 89.738 61.7272 89.0887 60.9238 89.0521C60.0208 89.002 58.9514 89.7 58.6162 89.9738C58.3734 90.1701 58.0089 90.1443 57.801 89.9153C57.5936 89.6859 57.6197 89.341 57.8605 89.1432C57.9242 89.0906 59.4319 87.8699 60.9921 87.9571C61.0352 87.9595 61.0783 87.9629 61.122 87.9673Z" fill="black"/>
<path fill-rule="evenodd" clip-rule="evenodd" d="M63.6021 84.7233C63.4559 84.7233 63.3102 84.6499 63.2081 84.5071C62.9033 84.0824 62.4418 83.8197 61.9719 83.8039C61.4998 83.7716 61.0299 84.0211 60.7058 84.4256C60.5086 84.674 60.1813 84.6817 59.974 84.4464C59.7671 84.2116 59.7593 83.8219 59.956 83.5757C60.4792 82.9228 61.2327 82.5468 62.0009 82.5715C62.7585 82.5966 63.5042 83.0218 63.9952 83.707C64.1814 83.9664 64.1552 84.355 63.9372 84.5755C63.8402 84.6751 63.7207 84.7233 63.6021 84.7233Z" fill="black"/>
<path fill-rule="evenodd" clip-rule="evenodd" d="M71.6555 130.855C71.6508 131.299 71.7327 131.7 71.9902 131.943C72.5312 132.452 74.9091 131.488 75.7201 131.108C77.0891 130.466 78.4063 129.717 79.7204 128.966C81.6268 127.877 83.5316 126.785 85.4074 125.642C86.3759 125.052 87.3372 124.449 88.2865 123.826C89.0689 123.313 90.1063 122.823 90.6794 122.056C91.6567 120.75 90.4675 117.989 88.7564 118.097C84.8328 118.343 80.7205 118.993 77.1078 120.648C75.3905 121.434 74.2199 123.07 73.5012 124.792C72.9918 126.01 72.4861 127.237 72.1306 128.514C71.985 129.037 71.6638 130.03 71.6555 130.855Z" fill="#18448A"/>
<path fill-rule="evenodd" clip-rule="evenodd" d="M69.502 117.018L70.5784 112.954C70.5784 112.954 76.217 112.349 81.0714 109.508C81.214 109.425 81.3663 109.583 81.3405 109.74C81.1016 111.214 78.8389 116.605 69.502 117.018Z" fill="black"/>
<path fill-rule="evenodd" clip-rule="evenodd" d="M95.3105 94.1145C95.121 92.1101 93.9281 90.2205 91.7299 90.1096C90.324 90.0392 89.0295 90.8729 88.1871 91.9544C87.1627 93.2705 86.5181 95.1227 86.7866 96.795C87.1975 99.3503 89.8969 101.942 92.5369 100.414C93.367 99.9337 93.9605 99.1241 94.4023 98.2707C94.987 97.1429 95.3512 95.8854 95.337 94.6147C95.335 94.4476 95.3262 94.2806 95.3105 94.1145Z" fill="#F5CAA7"/>
<path fill-rule="evenodd" clip-rule="evenodd" d="M69.211 119.287C68.417 117.104 67.9211 114.938 65.3678 116.439C63.7448 117.393 61.2613 118.566 62.1557 120.286C63.1633 122.223 67.8164 129.325 68.2732 129.935C68.2732 129.935 69.2681 124.736 69.4669 121.985C69.5245 121.191 69.553 120.228 69.211 119.287Z" fill="#18448A"/>
<path fill-rule="evenodd" clip-rule="evenodd" d="M72.2161 132.088C72.0861 132.088 71.9576 132.043 71.8545 131.959C71.6946 131.828 71.6234 131.619 71.6687 131.418C71.9969 130.002 72.6514 128.126 73.2849 126.312C73.7501 124.981 74.1899 123.722 74.4728 122.724C74.556 122.433 74.8658 122.263 75.1636 122.342C75.4624 122.424 75.6368 122.726 75.5541 123.018C75.2617 124.046 74.817 125.32 74.3463 126.668C73.8706 128.031 73.382 129.428 73.0374 130.618C73.5051 130.433 73.9767 130.248 74.4534 130.061C79.9106 127.92 86.0966 125.495 91.1459 120.413C91.3606 120.197 91.7167 120.191 91.9388 120.402C92.1605 120.613 92.1654 120.961 91.9498 121.178C86.7346 126.427 80.4321 128.898 74.8707 131.08C74.043 131.404 73.2276 131.723 72.4312 132.046C72.3615 132.075 72.2888 132.088 72.2161 132.088Z" fill="black"/>
<path fill-rule="evenodd" clip-rule="evenodd" d="M68.8315 131.012C68.653 131.012 68.4811 130.932 68.3691 130.791C67.1348 129.227 66.0175 127.373 64.9364 125.58C64.0194 124.058 63.0714 122.485 62.0744 121.134C61.8886 120.881 61.9495 120.531 62.2106 120.352C62.4717 120.171 62.835 120.23 63.0208 120.483C64.0483 121.876 65.0107 123.472 65.9406 125.016C66.7441 126.349 67.5682 127.716 68.4368 128.955C68.8284 125.921 69.4142 121.583 69.4214 121.533C69.4632 121.225 69.7594 121.01 70.0721 121.048C70.3905 121.089 70.615 121.37 70.5737 121.677C70.5649 121.737 69.762 127.69 69.408 130.518C69.3796 130.744 69.2119 130.932 68.9843 130.992C68.9337 131.005 68.8826 131.012 68.8315 131.012Z" fill="black"/>
<path fill-rule="evenodd" clip-rule="evenodd" d="M75.9609 91.1823C75.9609 92.3712 75.2381 93.3352 74.3462 93.3352C73.4547 93.3352 72.7314 92.3712 72.7314 91.1823C72.7314 89.9933 73.4547 89.0293 74.3462 89.0293C75.2381 89.0293 75.9609 89.9933 75.9609 91.1823Z" fill="black"/>
<path fill-rule="evenodd" clip-rule="evenodd" d="M36.0124 121.144C34.799 117.24 32.6793 114.754 30.229 109.784C27.9384 105.136 26.4004 98.6271 25.4294 93.4826C24.888 90.6146 27.9848 90.0309 28.6436 92.3308C29.4651 95.1973 31.0903 99.3644 32.1226 101.042C32.3573 101.423 32.664 101.128 32.5737 100.792C32.5737 100.792 30.8587 94.0202 30.7954 86.674C30.7719 83.993 33.8784 84.3077 34.0203 86.2124C34.5469 93.3037 35.8037 97.4105 36.319 98.7746C36.4624 99.1546 36.8569 98.9884 36.8109 98.6418C36.4282 95.4587 36.5053 90.0036 36.6114 87.0561C36.7145 84.1795 39.6741 84.4947 39.6741 86.5033C39.6741 89.0601 39.6853 94.5107 40.4665 98.35C40.5456 98.6438 40.8609 98.652 40.9701 98.3135C41.1763 97.671 41.684 96.4078 42.5321 95.1593C42.6836 94.9358 42.9597 94.8172 43.2281 94.7747C45.5003 94.4179 47.1781 94.5173 48.6573 94.9226C48.9329 94.9981 49.163 95.1815 49.3146 95.4222C50.2718 96.9449 51.0985 99.0563 50.9046 99.3649C49.4319 100.033 48.7073 99.3406 47.6526 97.6938C46.5402 97.7941 45.5386 97.7749 44.8497 97.6157C44.7232 98.2684 44.6206 98.6286 44.5043 99.7429C44.766 101.03 44.4752 102.817 45.015 103.906C45.5207 104.926 47.0178 104.831 47.4756 104.173C48.7584 102.332 48.8507 99.2184 51.2959 99.3573C52.1797 99.4688 51.2138 102.816 50.9046 106.722C50.7198 109.051 49.8539 110.575 48.8829 112.315C48.0945 113.728 48.0205 115.172 48.8497 118.426C49.6789 121.679 57.6605 137.988 57.6605 137.988C57.6605 137.988 50.5203 146.028 40.1078 143.402L36.0124 121.144Z" fill="#F5CAA7"/>
<path d="M32.3305 84.0583C33.5292 84.0304 34.59 84.9022 34.6841 86.1628C34.9238 89.3913 35.3219 92.1636 35.7925 94.4059L35.8989 94.8981L35.895 94.7633C35.8381 92.7896 35.8462 90.5453 35.9057 88.3268L35.9311 87.4967L35.9468 87.0319C36.0052 85.4027 36.9157 84.3318 38.1557 84.2829C39.303 84.2378 40.2633 85.1127 40.3354 86.3522L40.3393 86.5026L40.3413 87.6178L40.352 88.7565C40.3544 88.9424 40.3567 89.127 40.3598 89.3092L40.3833 90.3815C40.388 90.5567 40.3934 90.7304 40.3989 90.902L40.437 91.9128C40.5099 93.5613 40.6282 95.0394 40.8071 96.3659L40.8647 96.7712L40.9223 96.6481C41.1051 96.2616 41.3129 95.8655 41.5434 95.4762L41.7817 95.0895L41.9819 94.7858C42.238 94.4083 42.6562 94.1913 43.1255 94.1169C45.3796 93.763 47.1729 93.8259 48.8335 94.2809C49.2673 94.3998 49.6363 94.6836 49.8784 95.068C50.5873 96.1956 51.2082 97.5187 51.4555 98.4958L51.5063 98.7184L51.603 98.7438C52.1832 98.9195 52.3471 99.4723 52.3247 100.369L52.3188 100.542L52.3091 100.712C52.3029 100.806 52.2942 100.904 52.2846 101.008L52.2505 101.341L52.2055 101.719L51.8413 104.312L51.7427 105.068C51.698 105.431 51.6594 105.775 51.6264 106.11L51.5679 106.774C51.4403 108.382 51.0337 109.655 50.2417 111.207L50.0239 111.623L49.4643 112.639C48.7974 113.834 48.7345 115.073 49.3471 117.663L49.4946 118.261L49.5512 118.466L49.6264 118.706L49.771 119.126L49.8882 119.445L50.022 119.796L50.2534 120.38L50.6167 121.26L51.1567 122.522L51.7876 123.953L52.2075 124.888L53.1362 126.923L53.8237 128.406C54.5996 130.071 55.4202 131.804 56.2495 133.537L57.6919 136.531L58.2583 137.695C58.3769 137.937 58.3369 138.228 58.1577 138.429L58.0805 138.514L57.8921 138.71C57.6825 138.922 57.436 139.159 57.1538 139.412C56.3515 140.131 55.4196 140.849 54.3677 141.519C50.1069 144.234 45.232 145.381 39.9448 144.048C39.7241 143.992 39.5497 143.827 39.478 143.616L39.4536 143.523L35.3774 121.341C35.0279 120.217 34.5895 119.172 33.9985 118.013L33.7593 117.554L31.936 114.337L30.8716 112.42L30.4292 111.606L30.0327 110.862L29.7026 110.218C29.6784 110.17 29.6547 110.123 29.6323 110.078C27.9542 106.673 26.581 102.169 25.436 96.8747L25.1655 95.5895L24.9038 94.2741C24.8609 94.0526 24.8181 93.8299 24.7759 93.6061C24.4679 91.9746 25.1616 90.6703 26.4106 90.3268C27.6347 89.9905 28.8789 90.7342 29.2837 92.1471C29.696 93.5859 30.2927 95.2952 30.9067 96.8463L31.1372 97.4196L31.2397 97.6667L31.1128 96.9528L31.0278 96.4479C30.4908 93.1955 30.1579 89.8792 30.1303 86.6794C30.1167 85.1089 31.0488 84.088 32.3305 84.0583ZM32.3618 85.3883C31.8252 85.4008 31.4529 85.8084 31.4604 86.6686C31.4874 89.7925 31.8138 93.042 32.3403 96.2311C32.4781 97.0655 32.6223 97.8536 32.769 98.5856L32.9458 99.4372L33.0991 100.125L33.2163 100.62C33.3271 101.032 33.1982 101.482 32.8579 101.726C32.4005 102.055 31.848 101.865 31.5561 101.39C31.307 100.985 31.0216 100.436 30.7202 99.7926L30.4585 99.2194C30.4143 99.1204 30.3702 99.0197 30.3257 98.9176L30.0571 98.2887L29.7866 97.6315L29.519 96.9528C29.4746 96.8383 29.4302 96.7226 29.3862 96.6071L29.1255 95.9108L28.8735 95.2096L28.6323 94.5124L28.4057 93.8268C28.3692 93.7137 28.3334 93.6004 28.2983 93.4889L28.0971 92.8327C28.0654 92.7255 28.0344 92.619 28.0044 92.5143C27.7962 91.7874 27.2681 91.4713 26.7632 91.61C26.2237 91.7584 25.8972 92.3723 26.0835 93.359C27.3308 99.9672 28.8782 105.539 30.8257 109.49L31.0532 109.939L31.5259 110.836L32.3178 112.287L33.8452 115.012L34.9458 116.95C35.6084 118.2 36.1064 119.318 36.5171 120.554L36.6665 121.024L40.6831 142.856L41.0405 142.933C45.3754 143.822 49.3997 142.914 53.0014 140.797L53.3384 140.594L53.6528 140.397C54.6404 139.768 55.5146 139.094 56.2651 138.421C56.3958 138.303 56.5182 138.19 56.6313 138.083L56.8579 137.861L55.6733 135.413C54.8399 133.681 54.0064 131.931 53.2085 130.232L52.2632 128.206L51.4126 126.357L50.9448 125.325L50.2368 123.74L49.7397 122.598L49.4067 121.817L49.2055 121.334L48.852 120.458L48.7007 120.065L48.5054 119.538L48.397 119.225L48.3071 118.946L48.2348 118.7C48.2243 118.662 48.2146 118.625 48.2055 118.59C47.3918 115.396 47.386 113.743 48.2134 112.155L48.7319 111.216L48.8911 110.92C49.7207 109.359 50.1213 108.186 50.2417 106.669L50.27 106.327L50.3384 105.634L50.4214 104.911L50.522 104.136L50.8296 101.971L50.8843 101.559L50.9448 101.044L50.9712 100.756L50.9809 100.624C50.9942 100.422 50.9973 100.254 50.9917 100.122L50.9848 100.024L50.9673 100.027C50.8568 100.037 50.7578 100.025 50.6714 99.9967C50.6376 100.042 50.5947 100.085 50.5444 100.124L50.4682 100.174L50.3901 100.22C50.0417 100.443 49.7811 100.803 49.4487 101.528L49.2895 101.889L48.9702 102.67C48.6168 103.539 48.3668 104.058 48.022 104.553C47.227 105.695 45.1141 105.603 44.4194 104.201C44.177 103.712 44.0714 103.232 44.018 102.446L43.9956 102.026L43.9585 100.912L43.9429 100.62L43.9243 100.376C43.9208 100.338 43.9175 100.301 43.9136 100.266L43.8862 100.065L43.852 99.8756C43.8385 99.8093 43.8352 99.7408 43.8423 99.6735L43.8921 99.2331L43.9438 98.8473C43.9527 98.7867 43.962 98.7273 43.9712 98.6696L44.0268 98.3395L44.1968 97.4889C44.2685 97.1192 44.6325 96.8827 44.9995 96.9674C45.5928 97.1045 46.5175 97.1279 47.5932 97.0309C47.8403 97.0087 48.0796 97.1257 48.2134 97.3346C48.9956 98.5559 49.4263 98.9554 49.8979 98.9538L49.9682 98.9508L50.0503 98.9401C50.1068 98.9331 50.161 98.9329 50.2124 98.9381C50.1548 98.7167 50.0547 98.4245 49.9233 98.0954C49.6169 97.3277 49.1837 96.4646 48.7514 95.777C48.6826 95.6677 48.5864 95.5928 48.4819 95.5641C47.013 95.1616 45.4081 95.1055 43.3325 95.4313C43.1963 95.4529 43.1044 95.5006 43.0825 95.5329C42.4079 96.526 41.8824 97.6466 41.603 98.5172C41.3016 99.4515 40.0858 99.4936 39.8149 98.4821C39.5241 97.0527 39.3281 95.4598 39.2026 93.6608L39.146 92.7438L39.1001 91.7907L39.0639 90.8014L39.0376 89.7751C39.034 89.6007 39.0307 89.4244 39.0278 89.2467L39.0151 88.1608L39.0093 87.0338V86.5036C39.0093 85.9413 38.6473 85.5946 38.2075 85.612C37.713 85.6316 37.3118 86.1049 37.2768 87.0797L37.2466 87.9967L37.2221 88.9196L37.1977 90.3024L37.1899 91.2155L37.188 92.1169L37.1977 93.4333L37.2143 94.2809L37.2368 95.0983L37.268 95.8805L37.3061 96.6217L37.353 97.318C37.3867 97.7659 37.4253 98.1806 37.4702 98.5544C37.5319 99.0201 37.2832 99.4644 36.8491 99.611C36.3617 99.7754 35.8816 99.4994 35.6968 99.0094C35.4307 98.3052 35.168 97.4672 34.9175 96.5036L34.7524 95.8424C34.535 94.9364 34.3289 93.9319 34.1411 92.8356L34.0034 91.9958C33.9365 91.5675 33.8729 91.126 33.812 90.6725L33.6938 89.7497C33.5617 88.6528 33.448 87.4883 33.3569 86.2614C33.3177 85.7375 32.8788 85.3765 32.3618 85.3883ZM45.31 98.7262L45.2602 99.0407L45.2124 99.3991L45.1762 99.7145L45.1792 99.7292C45.2272 99.9915 45.255 100.247 45.2749 100.597L45.3003 101.208L45.3159 101.733L45.3335 102.134C45.3732 102.877 45.448 103.279 45.6118 103.61C45.847 104.085 46.7009 104.122 46.9302 103.793C47.1482 103.48 47.331 103.13 47.5581 102.601L47.8833 101.809C48.1933 101.042 48.4457 100.488 48.7212 100.063L48.7778 99.9801L48.6723 99.9137C48.2861 99.651 47.9151 99.2429 47.5083 98.6715L47.312 98.3864L47.1235 98.3991C46.5485 98.4306 46.017 98.4279 45.5483 98.3893L45.3755 98.3717L45.31 98.7262Z" fill="black"/>
<mask id="mask1_22541_62805" style="mask-type:luminance" maskUnits="userSpaceOnUse" x="34" y="118" width="29" height="29">
<path fill-rule="evenodd" clip-rule="evenodd" d="M34.1689 118.159H62.6129V146.082H34.1689V118.159Z" fill="white"/>
</mask>
<g mask="url(#mask1_22541_62805)">
<path fill-rule="evenodd" clip-rule="evenodd" d="M34.1689 125.624L51.9396 118.159L62.6129 145.584C62.6129 145.584 41.0593 147.649 37.9784 143.372C35.6182 140.096 34.1689 125.624 34.1689 125.624Z" fill="#18448A"/>
</g>
<path fill-rule="evenodd" clip-rule="evenodd" d="M108.255 112.389C108.254 112.385 108.253 112.381 108.253 112.378C108.246 112.023 107.979 111.738 107.649 111.738C106.923 111.738 106.329 111.463 105.834 110.9C104.429 109.301 104.242 105.944 104.232 104.453C104.234 104.336 104.236 104.221 104.236 104.101C104.236 104.087 104.234 104.074 104.233 104.061C104.236 103.847 104.242 103.721 104.242 103.713C104.26 103.352 104.004 103.044 103.67 103.024C103.323 103.006 103.05 103.28 103.031 103.641C103.029 103.695 103.012 104.043 103.018 104.57C102.959 107.5 102.343 109.583 101.225 110.608C100.296 111.46 99.3266 111.308 99.2757 111.299C98.946 111.237 98.6353 111.473 98.5761 111.827C98.5693 111.864 98.5683 111.901 98.5679 111.938C98.5679 111.944 98.5664 111.949 98.5664 111.956V111.958C98.5669 111.962 98.5674 111.965 98.5679 111.969C98.5742 112.324 98.8423 112.609 99.1724 112.609C99.8982 112.609 100.491 112.883 100.987 113.446C102.386 115.04 102.577 118.379 102.589 119.877C102.588 120 102.585 120.121 102.585 120.246C102.585 120.261 102.588 120.274 102.588 120.289C102.586 120.501 102.58 120.626 102.579 120.634C102.561 120.995 102.817 121.303 103.152 121.322C103.163 121.323 103.174 121.324 103.185 121.324C103.505 121.324 103.772 121.054 103.79 120.706C103.793 120.651 103.809 120.3 103.803 119.767C103.863 116.843 104.479 114.763 105.596 113.739C106.524 112.887 107.494 113.039 107.545 113.048C107.875 113.108 108.185 112.874 108.245 112.52C108.251 112.483 108.253 112.445 108.253 112.409C108.253 112.403 108.255 112.397 108.255 112.391V112.389Z" fill="#7ADBF9"/>
<mask id="mask2_22541_62805" style="mask-type:luminance" maskUnits="userSpaceOnUse" x="105" y="87" width="11" height="13">
<path fill-rule="evenodd" clip-rule="evenodd" d="M105.358 87.3403H115.602V99.3509H105.358V87.3403Z" fill="white"/>
</mask>
<g mask="url(#mask2_22541_62805)">
<path fill-rule="evenodd" clip-rule="evenodd" d="M115.601 93.4872C115.601 93.4848 115.6 93.4823 115.6 93.4798C115.593 93.2468 115.31 93.06 114.961 93.06C114.194 93.06 113.566 92.8796 113.043 92.51C111.557 91.4607 111.36 89.2572 111.348 88.2789C111.35 88.2019 111.353 88.1259 111.353 88.0474C111.353 88.0384 111.35 88.0305 111.349 88.0216C111.353 87.881 111.359 87.798 111.36 87.7925C111.378 87.556 111.107 87.3538 110.754 87.3409C110.387 87.329 110.098 87.5088 110.079 87.7453C110.076 87.7816 110.059 88.0091 110.065 88.3554C110.003 90.2782 109.352 91.645 108.17 92.3182C107.187 92.8771 106.162 92.7773 106.108 92.7723C105.76 92.7311 105.431 92.8866 105.369 93.1181C105.361 93.1429 105.36 93.1668 105.36 93.1911C105.36 93.1951 105.358 93.1986 105.358 93.2026V93.204C105.358 93.2065 105.359 93.209 105.359 93.2115C105.367 93.4445 105.65 93.6318 105.999 93.6318C106.766 93.6318 107.393 93.8112 107.917 94.1813C109.397 95.2267 109.599 97.4182 109.612 98.4019C109.61 98.4824 109.607 98.5614 109.607 98.6439C109.607 98.6533 109.61 98.6628 109.61 98.6717C109.608 98.8113 109.602 98.8933 109.601 98.8988C109.582 99.1353 109.852 99.3375 110.206 99.3504C110.218 99.3509 110.23 99.3509 110.242 99.3509C110.58 99.3509 110.863 99.174 110.881 98.9455C110.884 98.9097 110.901 98.6792 110.895 98.3294C110.958 96.4101 111.61 95.0453 112.791 94.3731C113.772 93.8137 114.797 93.9135 114.851 93.9195C115.2 93.9592 115.529 93.8052 115.591 93.5732C115.598 93.5489 115.6 93.524 115.6 93.5002C115.6 93.4962 115.602 93.4927 115.602 93.4887C115.602 93.4882 115.601 93.4877 115.601 93.4872Z" fill="#1D90C9"/>
</g>
<path d="M54.1896 125.009C54.5321 124.876 54.9177 125.046 55.0508 125.388C55.1729 125.702 55.0405 126.052 54.7538 126.211L54.6719 126.249L35.2953 133.785C34.9529 133.918 34.5673 133.748 34.4341 133.406C34.312 133.092 34.4444 132.742 34.7311 132.583L34.813 132.545L54.1896 125.009Z" fill="black"/>
<circle cx="38.5" cy="38.5" r="26.4688" fill="#ECF9FF"/>
<path fill-rule="evenodd" clip-rule="evenodd" d="M30.7278 43.512C30.3298 43.4148 29.9299 43.4751 29.627 43.7205C29.036 44.2001 29.0387 45.1936 29.6334 45.9402C30.1278 46.5611 30.8737 46.8083 31.4516 46.5995L31.4603 46.6207L31.5305 46.5744C31.6185 46.5356 31.7022 46.4859 31.7791 46.4235C31.7914 46.4135 31.7995 46.4002 31.8115 46.3899L35.936 43.6775L30.7278 43.512Z" fill="#00DC97"/>
<path fill-rule="evenodd" clip-rule="evenodd" d="M25.0181 24.8399C26.4215 24.9359 27.808 25.0902 29.1835 25.2829C30.287 25.4483 31.7672 25.7449 33.6262 26.2046C33.8108 26.2479 33.9237 26.3961 33.9435 26.5797C33.9591 26.8148 33.797 27.0184 33.5521 27.0411L28.8035 27.4741C28.7599 27.4823 28.7284 27.4838 28.6912 27.5041C28.5558 27.5796 28.5057 27.7535 28.5807 27.8904L30.1642 30.7916C30.1912 30.8416 30.2062 30.898 30.202 30.9492C30.1891 31.1025 30.0615 31.2219 29.8973 31.2158C28.5186 31.1061 27.1443 30.9449 25.7935 30.7389C24.7096 30.5786 23.2471 30.2559 21.4195 29.7951C21.2472 29.7448 21.1221 29.6036 21.1143 29.413C21.0986 29.1782 21.273 28.9676 21.506 28.9518L26.1048 28.5694C26.1489 28.561 26.1802 28.5597 26.2171 28.5391C26.3528 28.4637 26.4026 28.2901 26.3278 28.1531L24.7444 25.2516C24.7174 25.202 24.7023 25.1453 24.7069 25.0944C24.7198 24.9411 24.8662 24.8269 25.0181 24.8399Z" fill="#4078BC"/>
<path fill-rule="evenodd" clip-rule="evenodd" d="M39.7792 17.9556L40.9115 16.8697C41.1349 16.6558 41.5041 16.7927 41.5365 17.1018L41.7016 18.6695C41.7145 18.7925 41.7866 18.9007 41.894 18.9594L43.2674 19.7109C43.5378 19.859 43.5228 20.256 43.2418 20.3826L41.8154 21.0259C41.704 21.0762 41.6242 21.1786 41.6016 21.2998L41.318 22.8502C41.2621 23.1556 40.8836 23.2641 40.6774 23.0335L39.6306 21.863C39.5487 21.7715 39.4274 21.7261 39.3064 21.7424L37.7578 21.9494C37.4525 21.9897 37.234 21.66 37.3871 21.3907L38.1666 20.0242C38.2276 19.9175 38.2327 19.7869 38.1798 19.6757L37.5065 18.2529C37.3738 17.9729 37.6173 17.6605 37.9184 17.7247L39.4469 18.0505C39.5664 18.0759 39.6907 18.0405 39.7792 17.9556Z" fill="#224585"/>
<path fill-rule="evenodd" clip-rule="evenodd" d="M30.9197 19.2495L31.7239 18.4784C31.8824 18.3263 32.1445 18.4239 32.1676 18.6432L32.285 19.7567C32.294 19.8437 32.3453 19.9207 32.4215 19.9625L33.3965 20.496C33.589 20.6012 33.5779 20.8833 33.3785 20.973L32.3657 21.4296C32.2865 21.4653 32.2297 21.5383 32.2141 21.6244L32.0127 22.7255C31.9728 22.9424 31.7038 23.0191 31.5576 22.8552L30.8141 22.024C30.7561 21.9592 30.67 21.9271 30.5838 21.9386L29.4842 22.0852C29.2675 22.1143 29.1123 21.8801 29.2213 21.6889L29.7748 20.7187C29.8178 20.6427 29.8214 20.55 29.7841 20.4709L29.3059 19.4607C29.2117 19.2616 29.3846 19.0402 29.5983 19.0856L30.6835 19.3171C30.7684 19.3353 30.8567 19.3098 30.9197 19.2495Z" fill="#00DC97"/>
<path fill-rule="evenodd" clip-rule="evenodd" d="M53.8457 51.4497C54.4165 51.3825 54.8279 50.8645 54.7602 50.2986L53.4571 39.4137C53.3894 38.8479 52.8667 38.4401 52.2961 38.5072C51.7253 38.5744 51.3136 39.0922 51.3813 39.658L52.6847 50.5429C52.7524 51.1088 53.2751 51.5166 53.8457 51.4497Z" fill="#4078BC"/>
<path fill-rule="evenodd" clip-rule="evenodd" d="M59.2321 57.0014C59.9059 56.9212 60.392 56.3046 60.3119 55.6304C60.2317 54.9566 59.6151 54.4707 58.9413 54.5506C58.2674 54.6304 57.781 55.2474 57.8612 55.9215C57.9413 56.5954 58.5583 57.0812 59.2321 57.0014Z" fill="#1D90C9"/>
<path fill-rule="evenodd" clip-rule="evenodd" d="M58.2183 56.0792L60.7136 55.7142C61.043 55.6663 61.2806 55.2947 61.2417 54.8886C61.2024 54.4827 60.901 54.1904 60.5716 54.2386L58.076 54.6037C57.7466 54.6515 57.5091 55.0231 57.5482 55.4289C57.5873 55.8348 57.8886 56.1271 58.2183 56.0792Z" fill="#45B8E5"/>
<path fill-rule="evenodd" clip-rule="evenodd" d="M30.8502 59.7777C31.5241 59.6976 32.0102 59.0809 31.93 58.4068C31.8499 57.7329 31.2332 57.2471 30.5591 57.327C29.8853 57.4068 29.3992 58.0238 29.4793 58.6979C29.5595 59.3717 30.1761 59.8576 30.8502 59.7777Z" fill="#1D90C9"/>
<path fill-rule="evenodd" clip-rule="evenodd" d="M29.4311 59.5626L31.9267 59.1976C32.2562 59.1497 32.4937 58.7781 32.4546 58.372C32.4155 57.9661 32.1142 57.6738 31.7845 57.722L29.2891 58.0871C28.9597 58.1349 28.7222 58.5065 28.761 58.9123C28.8004 59.3182 29.1017 59.6105 29.4311 59.5626Z" fill="#45B8E5"/>
<path fill-rule="evenodd" clip-rule="evenodd" d="M28.4081 59.1513L61.7248 55.1927C63.147 55.0238 64.1726 53.7206 64.0039 52.2966C63.4895 47.9567 59.5214 44.8276 55.1865 45.3426L32.4616 48.0427C28.1265 48.5577 25.0008 52.5298 25.5154 56.8697C25.6839 58.2937 26.986 59.3202 28.4081 59.1513Z" fill="#224585"/>
<path fill-rule="evenodd" clip-rule="evenodd" d="M32.7717 48.0266C32.792 48.1976 32.6698 48.3527 32.4987 48.373C28.3344 48.867 25.3312 52.6765 25.8255 56.837L25.8255 56.837C25.9736 58.0871 27.1204 58.99 28.3717 58.8413L28.3718 58.8413L61.6884 54.8902L61.7249 55.1977L61.6884 54.8902C62.9398 54.7418 63.843 53.596 63.6946 52.346C63.6742 52.175 63.7964 52.0199 63.9675 51.9995C64.1385 51.9792 64.2936 52.1014 64.3139 52.2724C64.503 53.865 63.3549 55.3207 61.7619 55.5096L28.4453 59.4607C26.8523 59.6499 25.3949 58.5031 25.2061 56.9105C24.6711 52.4075 27.9193 48.2882 32.4253 47.7537C32.5963 47.7334 32.7514 47.8556 32.7717 48.0266Z" fill="black"/>
<path fill-rule="evenodd" clip-rule="evenodd" d="M28.0169 57.0056C27.6953 57.0438 27.3908 56.8054 27.3527 56.4856C26.9637 53.2318 29.3117 50.2705 32.5866 49.8843L55.5227 47.1795C58.7975 46.7933 61.778 49.1262 62.1667 52.38C62.2048 52.7001 61.9652 53.0023 61.643 53.0402L28.0169 57.0056Z" fill="#4078BC"/>
<path fill-rule="evenodd" clip-rule="evenodd" d="M58.373 48.0712C57.4781 47.5953 56.5068 47.3489 55.5686 47.4881L55.5593 47.4894L32.6232 50.1942C32.6111 50.1956 32.5989 50.1963 32.5867 50.1963C31.7627 50.1963 30.9039 50.6185 30.1257 51.2911C29.3514 51.9604 28.6888 52.8512 28.2605 53.7219C27.8247 54.6079 27.6624 55.4087 27.7942 55.919C27.8561 56.1588 27.979 56.3235 28.1668 56.4233C28.364 56.528 28.6724 56.5818 29.1381 56.5101C29.1418 56.5096 29.1454 56.5091 29.1491 56.5086L60.8184 52.7828C60.8183 52.7829 60.8184 52.7828 60.8184 52.7828C61.1542 52.7432 61.3439 52.6318 61.4496 52.5068C61.5553 52.3818 61.6136 52.1998 61.5995 51.9456C61.5704 51.4216 61.2362 50.6992 60.6474 49.966C60.066 49.2419 59.2674 48.5468 58.373 48.0712ZM61.9259 52.9095C61.6896 53.1889 61.3342 53.35 60.8914 53.4023L29.2274 57.1274C28.6864 57.2099 28.2302 57.1631 27.8744 56.9741C27.5079 56.7796 27.2887 56.456 27.1903 56.0749C27.0014 55.3433 27.2458 54.3717 27.7008 53.4466C28.1634 52.5063 28.8759 51.5471 29.7179 50.8193C30.551 50.0992 31.5428 49.579 32.5679 49.5727L55.4817 46.8705C56.587 46.7078 57.6923 47.0027 58.6659 47.5205C59.6414 48.0393 60.5041 48.7914 61.1338 49.5755C61.756 50.3505 62.1826 51.1972 62.2222 51.9111C62.2425 52.2759 62.1621 52.6301 61.9259 52.9095Z" fill="black"/>
<path fill-rule="evenodd" clip-rule="evenodd" d="M36.8662 53.0706L34.8072 53.3059C34.6107 53.3283 34.4321 53.1931 34.4088 53.0037C34.3853 52.8145 34.5261 52.6429 34.7228 52.6205L36.7816 52.3852C36.9786 52.3628 37.1569 52.498 37.1802 52.6875C37.2035 52.8766 37.0632 53.0482 36.8662 53.0706Z" fill="white"/>
<path fill-rule="evenodd" clip-rule="evenodd" d="M41.4942 52.4529L39.4353 52.6882C39.2386 52.7106 39.06 52.5754 39.0367 52.386C39.0134 52.1968 39.1539 52.0253 39.3509 52.0029L41.4096 51.7676C41.6063 51.7452 41.7849 51.8803 41.8082 52.0698C41.8312 52.259 41.6909 52.4305 41.4942 52.4529Z" fill="white"/>
<path fill-rule="evenodd" clip-rule="evenodd" d="M46.1211 51.5276L44.0622 51.7629C43.8655 51.7853 43.6872 51.6499 43.6637 51.4607C43.6404 51.2715 43.7809 51.1 43.9779 51.0773L46.0365 50.8423C46.2332 50.8199 46.4118 50.955 46.4351 51.1445C46.4584 51.3337 46.3178 51.5052 46.1211 51.5276Z" fill="white"/>
<path fill-rule="evenodd" clip-rule="evenodd" d="M50.1319 51.219L48.0728 51.4543C47.8764 51.4767 47.6977 51.3413 47.6744 51.1521C47.6509 50.9629 47.7917 50.7914 47.9884 50.7687L50.0472 50.5337C50.2439 50.5113 50.4225 50.6465 50.4458 50.8359C50.4691 51.0251 50.3288 51.1966 50.1319 51.219Z" fill="white"/>
<path fill-rule="evenodd" clip-rule="evenodd" d="M54.3967 51.94L53.2697 52.0664C52.656 52.1354 52.0997 51.7209 52.0267 51.1415L51.9982 50.9137C51.9251 50.334 52.3639 49.8084 52.9772 49.7397L54.1045 49.6135C54.7182 49.5445 55.2742 49.9585 55.3472 50.5382L55.3758 50.7659C55.4488 51.3456 55.0103 51.8712 54.3967 51.94Z" fill="white"/>
<path fill-rule="evenodd" clip-rule="evenodd" d="M58.1593 36.5079C57.2845 35.3188 55.9374 34.5007 54.4639 34.2635C54.341 34.2437 54.2175 34.228 54.0937 34.2163C52.723 34.0871 51.3608 34.4488 50.2576 35.2352C50.0011 35.4196 49.9466 35.7753 50.1361 36.0279C50.2351 36.16 50.3874 36.2448 50.5536 36.2606C50.6945 36.2737 50.8348 36.2362 50.9487 36.155C51.8237 35.5315 52.9051 35.2447 53.9931 35.3474C54.0911 35.3566 54.1888 35.3687 54.2859 35.3847C55.4555 35.5731 56.5241 36.2223 57.2186 37.1655C57.3177 37.3001 57.471 37.3864 57.639 37.4024C57.7781 37.4151 57.917 37.379 58.0292 37.3006C58.0435 37.2907 58.0574 37.2801 58.0682 37.2708C58.2952 37.082 58.3354 36.7468 58.1593 36.5079Z" fill="#00DC97"/>
<path fill-rule="evenodd" clip-rule="evenodd" d="M62.0036 34.9274C60.5585 32.2537 57.8172 30.3465 54.8489 29.9496C54.7166 29.9319 54.5844 29.9175 54.4517 29.9056C51.6142 29.6556 48.6082 30.7907 46.6071 32.8691C46.3704 33.1152 46.3713 33.5106 46.6092 33.7508C46.7079 33.8508 46.8393 33.9122 46.9789 33.9244C47.1623 33.9404 47.3415 33.8735 47.4701 33.7398C49.2196 31.9221 51.8494 30.9288 54.3327 31.1479C54.4484 31.1582 54.5639 31.1708 54.6787 31.1863C57.275 31.5334 59.6731 33.2016 60.9371 35.5399C61.0336 35.7194 61.2113 35.8374 61.4119 35.855C61.5341 35.8658 61.656 35.8388 61.7626 35.777C61.7991 35.7568 61.8329 35.7325 61.8628 35.7062C62.0839 35.513 62.143 35.1855 62.0036 34.9274Z" fill="#4078BC"/>
<mask id="mask3_22541_62805" style="mask-type:luminance" maskUnits="userSpaceOnUse" x="43" y="24" width="24" height="13">
<path fill-rule="evenodd" clip-rule="evenodd" d="M44.9258 24.8389L66.3951 29.3973L64.9292 36.3014L43.4599 31.7429L44.9258 24.8389Z" fill="white"/>
</mask>
<g mask="url(#mask3_22541_62805)">
<path fill-rule="evenodd" clip-rule="evenodd" d="M64.7596 34.6967C64.5728 34.6794 64.4068 34.5722 64.3157 34.4104C62.4342 31.0828 58.8965 28.6923 55.0833 28.1717C54.9145 28.1488 54.7446 28.1292 54.5748 28.1134C50.9287 27.7751 47.0812 29.1524 44.5344 31.7079C44.4161 31.8269 44.25 31.8858 44.0786 31.8699C43.9485 31.858 43.8259 31.8016 43.7337 31.712C43.5105 31.4947 43.5071 31.1391 43.7254 30.9197C46.5045 28.1323 50.7012 26.6299 54.6772 26.9989C54.8629 27.0162 55.0475 27.0369 55.2325 27.0624C59.3924 27.6306 63.2513 30.2382 65.3034 33.8677C65.4351 34.1003 65.3821 34.3941 65.1779 34.566C65.1498 34.5898 65.119 34.6107 65.0875 34.6278C64.9856 34.6841 64.8732 34.7071 64.7596 34.6967Z" fill="#224585"/>
</g>
<path fill-rule="evenodd" clip-rule="evenodd" d="M26.9612 62.0768C26.9487 61.9705 26.853 61.8945 26.7478 61.9071C26.0583 61.9896 25.5048 61.8527 25.1027 61.4994C24.5813 61.0418 24.4329 60.3256 24.391 59.9894C24.3885 59.9622 24.388 59.9364 24.3846 59.9092C24.3841 59.9028 24.3818 59.8969 24.3805 59.8907C24.3763 59.8394 24.3749 59.8066 24.3749 59.8032C24.373 59.6961 24.2853 59.6109 24.1796 59.6128C24.0725 59.6148 23.9892 59.7034 23.9912 59.8102C23.9915 59.8234 23.9942 59.9148 24.0117 60.0545C24.0694 60.7044 23.9329 61.2311 23.6005 61.6175C22.9978 62.3182 21.9432 62.3524 21.9218 62.353C21.8172 62.3552 21.7315 62.4435 21.7334 62.5504C21.734 62.5809 21.742 62.609 21.7548 62.6342C21.7498 62.6558 21.7476 62.6785 21.7504 62.7018C21.7628 62.8081 21.8583 62.884 21.9635 62.8714C22.6532 62.7887 23.2068 62.9258 23.6088 63.2789C24.1299 63.7368 24.2784 64.4526 24.3202 64.7891C24.323 64.8163 24.3236 64.8418 24.3269 64.8693C24.3275 64.8755 24.3297 64.8817 24.3311 64.8875C24.3352 64.9391 24.3366 64.972 24.3366 64.9753C24.3386 65.0824 24.426 65.1674 24.532 65.1657C24.5386 65.1654 24.545 65.1652 24.5511 65.1643C24.6479 65.1528 24.7223 65.0687 24.7204 64.9683C24.7201 64.9551 24.7173 64.8634 24.6998 64.7241C24.6421 64.0738 24.7786 63.5475 25.111 63.1608C25.7137 62.4604 26.7683 62.4259 26.7897 62.4253C26.8932 62.4228 26.9795 62.335 26.9778 62.2279C26.9773 62.1979 26.9692 62.1696 26.9565 62.1441C26.9617 62.1227 26.9639 62.1 26.9612 62.0768Z" fill="#4078BC"/>
<path fill-rule="evenodd" clip-rule="evenodd" d="M14.5736 56.6787C14.5736 56.6776 14.5731 56.6764 14.5731 56.6753C14.5598 56.5685 14.4745 56.4925 14.3804 56.5052C14.1739 56.5334 13.9964 56.4735 13.8377 56.3224C13.3872 55.8933 13.2285 54.8855 13.1789 54.4352C13.1757 54.3998 13.1729 54.3647 13.1691 54.3284C13.1686 54.3244 13.1676 54.3209 13.1669 54.3169C13.1611 54.2516 13.1588 54.2133 13.1586 54.211C13.1525 54.1013 13.0698 54.0182 12.974 54.0248C12.8744 54.0331 12.8054 54.1264 12.8115 54.2363C12.8122 54.2524 12.8185 54.3583 12.8369 54.5175C12.9121 55.4053 12.8017 56.0591 12.5154 56.4122C12.2775 56.7058 11.9966 56.6968 11.9817 56.6965C11.8857 56.6905 11.8047 56.774 11.7991 56.8833C11.7984 56.8948 11.7991 56.9061 11.8001 56.9173C11.8004 56.919 11.8001 56.9207 11.8004 56.9225V56.9233L11.8011 56.9265C11.814 57.0335 11.8992 57.1095 11.9933 57.0966C12.2 57.0684 12.3779 57.1282 12.5363 57.2796C12.9853 57.7072 13.1442 58.7093 13.1948 59.1617C13.1981 59.1991 13.2008 59.2356 13.2051 59.2736C13.2054 59.2779 13.2066 59.282 13.2071 59.2863C13.2132 59.3505 13.2157 59.3887 13.2157 59.391C13.2217 59.5007 13.3042 59.5839 13.4003 59.577C13.4035 59.5767 13.4066 59.5761 13.4098 59.5758C13.5006 59.5634 13.5685 59.4716 13.5628 59.3657C13.562 59.349 13.5552 59.2423 13.5369 59.0817C13.4624 58.1953 13.5728 57.5426 13.8585 57.1895C14.0965 56.8963 14.3774 56.9046 14.3923 56.9052C14.4881 56.9109 14.5691 56.8281 14.5751 56.7187C14.5756 56.7072 14.5751 56.696 14.5738 56.6847C14.5738 56.683 14.5741 56.6813 14.5738 56.6796C14.5738 56.6793 14.5736 56.679 14.5736 56.6787Z" fill="#00DC97"/>
<path fill-rule="evenodd" clip-rule="evenodd" d="M20.1859 35.1943C19.0581 36.6887 17.8784 38.1229 16.664 39.517C15.678 40.6272 14.2721 42.0638 12.4112 43.8051C12.229 43.9798 11.9829 43.9991 11.7656 43.8897C11.4949 43.7386 11.388 43.4117 11.5412 43.1228L14.52 37.5219C14.5426 37.4673 14.5641 37.4314 14.5682 37.3753C14.5839 37.1701 14.4281 36.99 14.2225 36.9751L9.86469 36.6582C9.78988 36.6528 9.71649 36.6285 9.66321 36.5872C9.50325 36.4629 9.46371 36.2348 9.59022 36.0567C10.7151 34.5996 11.8935 33.1838 13.105 31.8271C14.0708 30.734 15.4926 29.3361 17.3321 27.631C17.513 27.4752 17.7604 27.437 17.9763 27.5653C18.247 27.7164 18.3524 28.0618 18.2007 28.3321L15.2749 33.7301C15.252 33.7848 15.2308 33.8209 15.2264 33.8768C15.211 34.0819 15.3665 34.2621 15.5724 34.2772L19.93 34.5942C20.0048 34.5996 20.0781 34.6236 20.1318 34.6651C20.2917 34.7893 20.3105 35.0345 20.1859 35.1943Z" fill="#00DC97"/>
<path fill-rule="evenodd" clip-rule="evenodd" d="M25.4376 43.0499C23.6028 45.0981 22.8652 47.7196 23.7344 50.069L16.209 52.8352C14.5694 48.402 15.9654 43.4527 19.4301 39.5845L25.4376 43.0499Z" fill="#00DC97"/>
<path fill-rule="evenodd" clip-rule="evenodd" d="M48.21 41.0717L40.685 43.8379C39.8158 41.4885 37.544 39.9736 34.8145 39.6036L37.1265 33.0796C42.285 33.7778 46.5701 36.6382 48.21 41.0717Z" fill="#00DC97"/>
<path fill-rule="evenodd" clip-rule="evenodd" d="M37.1131 33.0776L34.806 39.6031C33.2014 39.3857 31.4412 39.5648 29.7096 40.2014C27.9747 40.839 26.5169 41.8466 25.4379 43.0503L19.4307 39.5849C21.4668 37.3101 24.2207 35.4094 27.4923 34.2066C30.7603 33.0053 34.0839 32.6684 37.1131 33.0776Z" fill="#00DC97"/>
<path fill-rule="evenodd" clip-rule="evenodd" d="M37.1844 32.7727C42.4195 33.486 46.8147 36.4005 48.5025 40.9633C48.5312 41.0409 48.5279 41.1267 48.4932 41.2019C48.4586 41.277 48.3955 41.3353 48.3178 41.3638L40.7928 44.1304C40.6315 44.1896 40.4527 44.1072 40.3931 43.9461C39.5753 41.7359 37.4291 40.2778 34.7921 39.9149C34.7846 39.9145 34.7787 39.9139 34.7746 39.9134C34.7686 39.9128 34.7631 39.912 34.7582 39.9112C33.2076 39.7021 31.5005 39.8751 29.8177 40.4934C28.1287 41.1146 26.7141 42.0935 25.6702 43.2581C23.8918 45.243 23.2073 47.746 24.0271 49.9612C24.0558 50.0388 24.0525 50.1246 24.0178 50.1997C23.9832 50.2749 23.9201 50.3332 23.8424 50.3617L16.3171 53.1279C16.1558 53.1872 15.977 53.1048 15.9174 52.9436C14.2278 48.376 15.677 43.3083 19.1986 39.3769C19.3134 39.2487 19.5103 39.2379 19.6385 39.3527C19.7667 39.4675 19.7775 39.6645 19.6627 39.7926C16.3315 43.5115 14.9735 48.2101 16.3981 52.4343L23.3418 49.8819C22.5878 47.4782 23.389 44.8705 25.2061 42.8423L25.2062 42.8422C26.3202 41.5994 27.8212 40.5638 29.6027 39.9086L29.6027 39.9086C31.3745 39.2576 33.1807 39.0712 34.8331 39.2926C34.8409 39.2931 34.8488 39.2938 34.8566 39.2949C37.5587 39.661 39.8698 41.1243 40.8622 43.441L47.8056 40.8883C46.1377 36.7539 42.0445 34.0593 37.085 33.388C37.0836 33.3878 37.0822 33.3876 37.0808 33.3874C36.952 33.374 36.8401 33.2806 36.8095 33.1473C36.7709 32.9796 36.8756 32.8124 37.0433 32.7739C37.0997 32.7609 37.1464 32.7662 37.1699 32.77C37.175 32.7708 37.1798 32.7718 37.1844 32.7727ZM37.0368 33.3776C37.0359 33.3773 37.035 33.377 37.0341 33.3767L37.0343 33.3768C37.0347 33.3769 37.0356 33.3772 37.0368 33.3776Z" fill="#08002F"/>
<path fill-rule="evenodd" clip-rule="evenodd" d="M69.5127 42.4989C69.5127 42.4967 69.5119 42.4951 69.5119 42.4929C69.4996 42.314 69.3396 42.1762 69.1508 42.1843C68.7355 42.2017 68.3896 42.0777 68.0937 41.8053C67.2525 41.0308 67.0665 39.3402 67.0257 38.5869C67.024 38.5281 67.0231 38.4692 67.0203 38.4091C67.02 38.402 67.018 38.3966 67.0171 38.3895C67.0137 38.2807 67.0137 38.2171 67.014 38.2125C67.0163 38.0303 66.8626 37.8814 66.6701 37.8789C66.4716 37.8781 66.3222 38.0235 66.3193 38.2062C66.3196 38.2334 66.3182 38.4091 66.3342 38.6755C66.369 40.1567 66.0651 41.2232 65.4496 41.7684C64.938 42.2208 64.3798 42.1672 64.3507 42.1647C64.1608 42.1408 63.9882 42.2675 63.9625 42.4475C63.9597 42.4665 63.96 42.4858 63.9608 42.5043C63.9608 42.5068 63.96 42.5098 63.96 42.5125C63.96 42.5133 63.9608 42.513 63.9608 42.5138C63.9608 42.5157 63.9611 42.5174 63.9614 42.5195C63.9731 42.6982 64.1333 42.8363 64.3224 42.8284C64.7369 42.8107 65.0828 42.935 65.3796 43.2077C66.2179 43.9784 66.4059 45.6608 66.4476 46.4171C66.449 46.4797 66.4501 46.54 66.453 46.6034C66.4533 46.6113 66.4556 46.6175 66.4564 46.6257C66.4599 46.732 66.4599 46.7956 66.4593 46.7999C66.4579 46.9818 66.611 47.1314 66.8032 47.1338C66.8095 47.1335 66.816 47.1338 66.8218 47.1335C67.0051 47.1259 67.1514 46.9835 67.1539 46.8065C67.1542 46.779 67.1548 46.6012 67.1388 46.3326C67.1048 44.8541 67.4085 43.7884 68.0237 43.2446C68.5344 42.7914 69.0929 42.8453 69.1228 42.8485C69.3128 42.8711 69.485 42.7447 69.5105 42.5652C69.5133 42.5462 69.513 42.5272 69.5127 42.5089C69.5125 42.506 69.513 42.503 69.5127 42.5V42.4989Z" fill="#4078BC"/>
</svg>
