<svg width="111" height="141" viewBox="0 0 111 141" fill="none" xmlns="http://www.w3.org/2000/svg">
<path fill-rule="evenodd" clip-rule="evenodd" d="M119.096 126.395C115.762 123.552 111.496 121.814 107.354 120.525C105.219 119.86 103.077 119.4 100.873 119.01C97.691 118.446 96.7142 117.315 95.3352 114.582C93.6867 111.317 91.1452 113.047 89.0336 114.698C87.0871 116.22 84.6897 117.061 82.8017 118.663C81.1317 120.08 80.7191 121.818 78.3652 122.349C70.3379 124.159 67.7506 124.453 67.244 132.282C39.6863 143.612 82.6604 142.284 87.6246 143.612C96.2782 145.927 100.69 146.194 108.32 144.21C113.308 142.913 118.529 140.91 121.448 136.089C123.419 132.833 121.789 128.692 119.096 126.395Z" fill="#18448A"/>
<path d="M83.924 110.116C83.924 110.116 78.5663 111.595 76.6069 104.754C75.5734 101.325 80.7499 94.3981 80.7499 94.3981C80.7499 94.3981 80.1888 77.1123 97.4837 74.5331C114.779 71.9538 116.845 90.3902 116.845 90.3902C116.845 90.3902 117.442 94.9086 119.016 97.04C120.591 99.1714 121.778 108.315 117.435 111.099C113.093 113.883 108.488 112.547 107.298 110.755L83.924 110.116Z" fill="black"/>
<path fill-rule="evenodd" clip-rule="evenodd" d="M100.98 113.103C97.114 113.967 93.0751 114.627 89.2154 113.737C87.0643 113.24 85.0514 112.151 83.5354 110.537C79.9704 106.742 80.4078 101.069 81.9781 96.5024C83.8375 91.0926 87.514 85.5079 91.7562 81.7487C91.7562 81.7487 94.556 79.8446 97.4363 79.9358C101.879 80.0766 106.02 82.1459 109.098 85.2988C111.638 87.8995 113.756 91.2536 114.246 94.9421C114.836 99.3871 112.545 103.325 109.968 106.76C109.238 107.734 107.493 107.884 106.725 108.829C102.485 114.475 105.41 117.928 102.486 124.353L101.212 125.789C100.423 125.886 99.4778 126.383 98.6849 126.335C97.8521 126.285 97.0208 126.215 96.1937 126.104C93.3748 125.725 89.895 124.817 88.5846 121.998C87.403 119.456 88.0193 116.229 88.1856 113.525" fill="#F7CCA9"/>
<path fill-rule="evenodd" clip-rule="evenodd" d="M87.6033 103.112C87.5272 103.14 87.4435 103.143 87.3602 103.118L85.1014 102.423C84.9807 102.386 84.8816 102.291 84.8323 102.164C84.7839 102.039 84.7896 101.895 84.8495 101.774L88.8109 93.7716C88.9197 93.5522 89.1708 93.4701 89.3725 93.5882C89.5737 93.7068 89.649 93.9805 89.5403 94.2004L85.8245 101.707L87.5853 102.248C87.8055 102.317 87.9336 102.566 87.8716 102.806C87.8328 102.956 87.7293 103.067 87.6033 103.112Z" fill="black"/>
<path fill-rule="evenodd" clip-rule="evenodd" d="M115.062 85.7734C110.375 76.8112 97.3631 77.5469 97.3631 77.5469C96.8243 77.5776 95.8027 80.1952 95.6916 80.5867C94.2682 85.6046 95.8129 90.3338 99.984 94.293C101.7 95.9219 103.658 97.5655 104.244 99.6827C104.661 101.189 104.508 104.309 104.072 105.618C103.56 107.155 105.494 107.171 106.757 107.123C109.084 107.035 111.572 106.657 113.2 105.264C114.853 103.852 115.513 101.882 115.91 100.051C116.909 95.4486 117.372 90.1915 115.062 85.7734Z" fill="black"/>
<path fill-rule="evenodd" clip-rule="evenodd" d="M91.9972 124.054L102.645 117.044C103.474 116.498 104.599 116.697 105.177 117.493L107.611 120.837C108.212 121.663 107.995 122.81 107.132 123.372L95.6653 130.835C94.6999 131.464 93.3864 131.075 92.9415 130.029L91.3266 126.232C90.9907 125.443 91.2706 124.531 91.9972 124.054Z" fill="white"/>
<path fill-rule="evenodd" clip-rule="evenodd" d="M86.4354 87.2039C86.4666 87.1967 86.4988 87.1904 86.5305 87.1844C87.2306 87.056 87.9996 87.1729 88.5889 87.496C88.8033 87.6137 88.8562 87.8463 88.7067 88.0152C88.5577 88.1852 88.2623 88.2248 88.0474 88.1075C87.675 87.9034 87.1878 87.8293 86.7454 87.9105C86.2889 87.991 85.9069 88.2276 85.688 88.5411C85.5617 88.7211 85.2738 88.7865 85.0443 88.687C84.8158 88.5875 84.7323 88.3608 84.8591 88.1805C85.1897 87.708 85.7746 87.3473 86.4354 87.2039Z" fill="black"/>
<path fill-rule="evenodd" clip-rule="evenodd" d="M96.2905 88.7336C96.3226 88.7326 96.3552 88.7321 96.3872 88.7326C97.0916 88.7418 97.7891 89.0571 98.2533 89.5759C98.4225 89.7653 98.4037 90.0535 98.2113 90.2191C98.019 90.3862 97.7255 90.3659 97.5563 90.1775C97.2623 89.8491 96.8208 89.6495 96.3759 89.6437C95.9171 89.634 95.483 89.8273 95.1817 90.1484C95.0075 90.3334 94.715 90.3446 94.5261 90.1741C94.3377 90.0031 94.3263 89.7149 94.5004 89.5303C94.9557 89.046 95.6192 88.752 96.2905 88.7336Z" fill="black"/>
<path fill-rule="evenodd" clip-rule="evenodd" d="M94.4924 130.334C94.4045 130.342 94.3121 130.339 94.2154 130.321C93.716 130.232 93.4805 129.811 93.3672 129.61C92.4979 128.057 91.7709 126.426 91.2061 124.759C91.1313 124.538 91.2671 124.304 91.51 124.236C91.7543 124.166 92.0103 124.292 92.0846 124.512C92.6338 126.133 93.3408 127.719 94.1861 129.229C94.3209 129.47 94.383 129.497 94.3947 129.5C94.4309 129.505 94.5217 129.467 94.6688 129.39C97.5638 127.86 100.728 125.865 103.787 123.935C105.558 122.819 107.23 121.765 108.837 120.806C109.048 120.678 109.334 120.733 109.473 120.927C109.612 121.12 109.553 121.38 109.341 121.506C107.743 122.459 106.076 123.511 104.31 124.625C101.236 126.563 98.0568 128.568 95.1305 130.114C94.9825 130.192 94.7592 130.309 94.4924 130.334Z" fill="black"/>
<path fill-rule="evenodd" clip-rule="evenodd" d="M100.239 112.423C96.5108 113.275 92.5496 113.943 88.8268 113.063C86.7074 112.562 84.8462 111.489 83.4442 109.961C79.4456 105.605 81.1031 98.9124 82.0016 96.2375C83.3971 92.082 85.4601 88.2464 87.9676 85.1439C90.9286 81.4802 93.9146 79.5442 97.0951 79.2267C97.1219 79.2244 97.1459 79.2225 97.176 79.2196C97.4139 79.1955 97.588 78.9811 97.5668 78.7373C97.5455 78.4935 97.3344 78.313 97.0951 78.3348C97.0669 78.3371 97.0383 78.3395 97.0106 78.3423C93.5894 78.6839 90.4122 80.7243 87.2977 84.5779C84.7243 87.7621 82.609 91.6942 81.1798 95.9489C79.1731 101.925 79.7676 107.254 82.81 110.569C84.1066 111.982 85.7641 113.031 87.6419 113.647L87.4696 116.344C93.4374 117.692 96.0973 115.243 96.914 113.984C98.0994 113.793 99.2755 113.554 100.428 113.29C100.662 113.237 100.81 112.999 100.757 112.76C100.704 112.52 100.468 112.366 100.239 112.423Z" fill="black"/>
<path fill-rule="evenodd" clip-rule="evenodd" d="M83.7034 124.36L82.5902 117.277C82.4667 116.539 82.9473 115.828 83.6733 115.675L86.7251 115.034C87.4788 114.875 88.2046 115.378 88.3293 116.144L89.7445 124.08C89.8841 124.937 88.7941 124.992 87.9362 124.975L85.5232 125.568C84.8758 125.556 83.8115 125.006 83.7034 124.36Z" fill="white"/>
<path fill-rule="evenodd" clip-rule="evenodd" d="M84.4351 125.535C84.3629 125.544 84.2896 125.526 84.2253 125.484C84.1361 125.425 84.0717 125.324 84.0465 125.206L83.2139 121.292C83.1635 121.054 83.2802 120.813 83.4753 120.751C83.6684 120.689 83.8693 120.833 83.9201 121.069L84.6553 124.525L89.9078 122.411C90.0993 122.333 90.3053 122.46 90.3689 122.693C90.4325 122.925 90.3285 123.176 90.137 123.253L84.5142 125.515C84.4886 125.525 84.4614 125.532 84.4351 125.535Z" fill="black"/>
<path fill-rule="evenodd" clip-rule="evenodd" d="M88.7835 130.182C88.8693 131.062 88.2272 131.845 87.3497 131.93C86.4713 132.016 85.6911 131.373 85.6053 130.493C85.52 129.613 86.1616 128.831 87.0395 128.746C87.9169 128.659 88.6982 129.303 88.7835 130.182Z" fill="black"/>
<path fill-rule="evenodd" clip-rule="evenodd" d="M87.9856 139.784C88.0715 140.664 87.4293 141.447 86.5519 141.533C85.6735 141.619 84.8933 140.975 84.8075 140.095C84.7217 139.215 85.3638 138.433 86.2417 138.348C87.1191 138.262 87.9003 138.905 87.9856 139.784Z" fill="black"/>
<path fill-rule="evenodd" clip-rule="evenodd" d="M96.7244 97.7087C96.5759 98.5875 96.1189 99.2211 95.7038 99.1248C95.289 99.0285 95.0729 98.2387 95.2219 97.3599C95.3705 96.4819 95.8271 95.8475 96.2426 95.9437C96.6573 96.04 96.8734 96.8303 96.7244 97.7087Z" fill="black"/>
<path fill-rule="evenodd" clip-rule="evenodd" d="M86.3496 96.1086C86.2007 96.987 85.7437 97.621 85.329 97.5247C84.9139 97.4284 84.6982 96.6381 84.8468 95.7598C84.9957 94.8814 85.4523 94.2474 85.8674 94.3436C86.2821 94.4399 86.4982 95.2297 86.3496 96.1086Z" fill="black"/>
<path d="M85.2547 104.43C86.4792 105.261 87.9232 104.89 89.3951 105.033C91.0778 105.196 90.7268 105.509 92.0874 104.928C92.0874 104.928 86.7533 113.24 85.2547 104.43Z" fill="white"/>
<path d="M91.9512 104.765L85.3846 104.369C85.175 104.356 85.0001 104.528 85.0077 104.738L85.0121 104.821L85.0207 104.926C85.0225 104.946 85.0245 104.966 85.0268 104.987L85.0426 105.124C85.0457 105.148 85.0491 105.173 85.0526 105.199C85.1 105.543 85.1757 105.898 85.2865 106.246C85.7652 107.753 86.7309 108.689 88.2911 108.574C89.3146 108.498 90.1758 108.083 90.8792 107.413C91.2735 107.038 91.5983 106.601 91.861 106.133C92.0161 105.856 92.1327 105.6 92.2147 105.383L92.2644 105.243C92.2665 105.237 92.2682 105.231 92.2696 105.227C92.3382 105.006 92.1817 104.779 91.9512 104.765ZM91.414 105.447L91.397 105.484C91.351 105.579 91.299 105.68 91.2406 105.784C91.0108 106.194 90.7278 106.574 90.389 106.896C89.7996 107.458 89.0898 107.8 88.2388 107.863C87.0685 107.949 86.3544 107.257 85.9646 106.03L85.9096 105.845C85.8582 105.659 85.8173 105.472 85.7859 105.286L85.7581 105.106L91.414 105.447Z" fill="black"/>
<path d="M97.4304 129.409L97.3346 128.737H94.1252L94.2289 129.409H73.2715L76.0818 148.211H103.083L100.281 129.409H97.4304Z" fill="#B9D7FC"/>
<path d="M89.5572 139.73C90.1549 139.05 90.0011 137.936 89.2138 137.24C88.4265 136.545 87.3038 136.532 86.7062 137.212C86.1085 137.891 86.2623 139.006 87.0496 139.701C87.8369 140.397 88.9596 140.41 89.5572 139.73Z" fill="white"/>
<path d="M88.399 140.699C87.7971 140.688 87.2181 140.466 86.7629 140.071C86.3077 139.676 86.0052 139.134 85.9081 138.539C85.8622 138.256 85.879 137.968 85.9572 137.693C86.0355 137.418 86.1733 137.163 86.3609 136.948C86.5485 136.732 86.7811 136.561 87.0423 136.446C87.3035 136.331 87.5869 136.275 87.8721 136.282C88.4627 136.299 89.0296 136.519 89.4774 136.905C89.9253 137.291 90.2267 137.82 90.3311 138.403C90.3759 138.686 90.3591 138.975 90.282 139.252C90.2048 139.528 90.0691 139.784 89.884 140.003C89.7022 140.22 89.475 140.396 89.2185 140.516C88.9619 140.636 88.6822 140.699 88.399 140.699ZM87.8721 137.17C87.722 137.171 87.5737 137.203 87.4364 137.263C87.299 137.324 87.1756 137.412 87.0737 137.523C86.9749 137.644 86.9037 137.786 86.8651 137.938C86.8265 138.09 86.8214 138.248 86.8502 138.403C86.9193 138.78 87.1155 139.123 87.406 139.373C87.6965 139.624 88.0639 139.767 88.4469 139.779C88.598 139.78 88.7477 139.749 88.8855 139.686C89.0233 139.624 89.1461 139.533 89.2453 139.419C89.3459 139.298 89.4189 139.157 89.4589 139.005C89.4989 138.852 89.505 138.693 89.4768 138.539C89.4044 138.162 89.2059 137.821 88.9142 137.572C88.6225 137.323 88.2549 137.182 87.8721 137.17Z" fill="#1D1D1B"/>
<path d="M99.6137 135.899H94.9911L94.3125 131.306H98.9271L99.6137 135.899Z" fill="white"/>
<path d="M99.6091 136.354H94.9865C94.8775 136.353 94.7724 136.313 94.6903 136.241C94.6082 136.169 94.5547 136.07 94.5394 135.962L93.8528 131.369C93.8419 131.304 93.8456 131.237 93.8635 131.174C93.8815 131.11 93.9133 131.051 93.9566 131.001C94.0012 130.952 94.0553 130.913 94.1157 130.885C94.1761 130.857 94.2415 130.843 94.3079 130.841H98.9225C99.0329 130.84 99.1399 130.879 99.2237 130.952C99.3074 131.024 99.3621 131.124 99.3776 131.233L100.064 135.826C100.073 135.892 100.067 135.959 100.048 136.022C100.029 136.086 99.9962 136.144 99.9524 136.194C99.9111 136.245 99.8587 136.286 99.7992 136.314C99.7397 136.341 99.6747 136.355 99.6091 136.354ZM95.3857 135.434H99.1061L98.5632 131.761H94.8348L95.3857 135.434Z" fill="#1D1D1B"/>
<path d="M96.6675 133.441C96.9678 133.099 96.8921 132.54 96.4984 132.193C96.1048 131.845 95.5422 131.84 95.242 132.182C94.9417 132.523 95.0174 133.082 95.411 133.429C95.8047 133.777 96.3672 133.782 96.6675 133.441Z" fill="#1D1D1B"/>
<path d="M103.102 148.667H76.085C75.9746 148.668 75.8676 148.629 75.7838 148.557C75.7001 148.484 75.6454 148.384 75.6299 148.275L72.8196 129.473C72.8156 129.359 72.8536 129.247 72.9264 129.159C72.9992 129.072 73.1016 129.014 73.2141 128.997C73.3266 128.98 73.4414 129.006 73.5365 129.068C73.6316 129.131 73.7004 129.226 73.7298 129.336L76.4762 147.739H103.102C103.168 147.73 103.234 147.735 103.297 147.755C103.36 147.774 103.418 147.806 103.468 147.85C103.518 147.893 103.557 147.947 103.585 148.007C103.612 148.067 103.626 148.133 103.626 148.199C103.626 148.265 103.612 148.33 103.585 148.39C103.557 148.45 103.518 148.504 103.468 148.548C103.418 148.591 103.36 148.624 103.297 148.643C103.234 148.662 103.168 148.667 103.102 148.659V148.667Z" fill="#1D1D1B"/>
<path d="M111.965 143.37L109.083 136.97L99.638 131.713C99.638 131.713 97.8496 133.161 99.638 134.305L96.205 133.705C96.205 133.705 93.9216 135.105 96.9554 136.497L102.544 139.938L95.3587 139.634C95.3587 139.634 92.8997 141.73 96.8277 142.13L103.271 142.674L96.5323 143.37C96.5323 143.37 95.5343 144.666 97.6261 144.866C99.7178 145.066 103.271 145.114 103.271 145.114C103.271 145.114 104.636 149.203 107.263 148.851C109.889 148.499 112.212 148.155 111.965 143.37Z" fill="#F7CCA9"/>
<path d="M106.967 149.34C104.659 149.34 103.35 146.531 102.975 145.571C102.049 145.571 99.35 145.491 97.6016 145.323C96.7154 145.243 96.1645 144.947 95.9489 144.459C95.8712 144.229 95.8525 143.983 95.8943 143.744C95.9362 143.505 96.0373 143.281 96.1884 143.091C96.2687 142.994 96.3829 142.931 96.5078 142.915L98.392 142.723L96.7952 142.587C95.2703 142.435 94.4001 142.003 94.2005 141.283C93.8971 140.315 94.943 139.386 95.0627 139.29C95.1048 139.25 95.1551 139.219 95.2102 139.2C95.2653 139.18 95.3239 139.173 95.3821 139.178L100.803 139.403L96.7154 136.89C95.5817 136.378 94.9669 135.73 94.919 134.994C94.9417 134.649 95.049 134.315 95.2315 134.022C95.414 133.729 95.6659 133.486 95.9649 133.314C96.0606 133.256 96.1746 133.236 96.2842 133.258L98.4638 133.634C98.4173 133.497 98.3904 133.354 98.384 133.21C98.4039 132.849 98.5004 132.497 98.667 132.177C98.8336 131.857 99.0665 131.576 99.35 131.354C99.4254 131.302 99.5144 131.275 99.6055 131.275C99.6966 131.275 99.7856 131.302 99.861 131.354L109.306 136.586C109.393 136.633 109.461 136.71 109.497 136.802L112.388 143.203C112.396 143.256 112.396 143.31 112.388 143.363C112.667 148.62 109.945 148.964 107.318 149.324C107.201 149.336 107.084 149.341 106.967 149.34ZM96.8271 143.811C96.7935 143.901 96.7935 144.001 96.8271 144.091C96.883 144.203 97.1465 144.355 97.7293 144.411C99.7732 144.603 103.318 144.659 103.318 144.659C103.412 144.66 103.504 144.69 103.58 144.746C103.656 144.802 103.712 144.881 103.741 144.971C103.741 144.971 105.019 148.708 107.246 148.396C109.849 148.052 111.725 147.803 111.525 143.483L108.691 137.274L99.7093 132.282C99.4683 132.514 99.323 132.828 99.3021 133.162C99.3266 133.333 99.3925 133.495 99.4941 133.635C99.5957 133.774 99.7299 133.886 99.8849 133.962C99.9747 134.018 100.042 134.105 100.074 134.206C100.106 134.307 100.101 134.416 100.061 134.514C100.021 134.611 99.9496 134.692 99.8585 134.745C99.7674 134.797 99.6615 134.817 99.5576 134.802L96.3162 134.234C96.1166 134.394 95.8212 134.69 95.8372 134.986C95.8531 135.282 96.3322 135.786 97.1465 136.122L102.807 139.587C102.895 139.637 102.963 139.716 102.999 139.811C103.036 139.906 103.038 140.01 103.007 140.107C102.979 140.205 102.92 140.291 102.837 140.351C102.754 140.411 102.653 140.44 102.552 140.435L95.5497 140.147C95.2943 140.411 95.0148 140.811 95.0947 141.051C95.1745 141.291 95.6775 141.587 96.899 141.707L103.334 142.259C103.455 142.259 103.57 142.307 103.656 142.392C103.741 142.478 103.789 142.594 103.789 142.715C103.789 142.836 103.741 142.952 103.656 143.037C103.57 143.123 103.455 143.171 103.334 143.171L96.8271 143.811Z" fill="#1D1D1B"/>
<path fill-rule="evenodd" clip-rule="evenodd" d="M83.1738 72.7874C82.534 72.8972 81.9439 73.2032 81.4849 73.6632C81.0259 74.1232 80.7206 74.7145 80.611 75.3557C80.6002 75.3896 80.5789 75.4192 80.5502 75.4401C80.5215 75.4611 80.4868 75.4724 80.4513 75.4724C80.4158 75.4724 80.3812 75.4611 80.3525 75.4401C80.3238 75.4192 80.3025 75.3896 80.2916 75.3557C80.182 74.7145 79.8767 74.1232 79.4177 73.6632C78.9587 73.2032 78.3686 72.8972 77.7288 72.7874C77.695 72.7765 77.6655 72.7552 77.6445 72.7264C77.6236 72.6976 77.6123 72.6629 77.6123 72.6273C77.6123 72.5917 77.6236 72.557 77.6445 72.5283C77.6655 72.4995 77.695 72.4782 77.7288 72.4673C78.3686 72.3575 78.9587 72.0515 79.4177 71.5915C79.8767 71.1315 80.182 70.5402 80.2916 69.899C80.3025 69.8651 80.3238 69.8355 80.3525 69.8145C80.3812 69.7935 80.4158 69.7822 80.4513 69.7822C80.4868 69.7822 80.5215 69.7935 80.5502 69.8145C80.5789 69.8355 80.6002 69.8651 80.611 69.899C80.7206 70.5402 81.0259 71.1315 81.4849 71.5915C81.9439 72.0515 82.534 72.3575 83.1738 72.4673C83.2076 72.4782 83.2371 72.4995 83.2581 72.5283C83.279 72.557 83.2903 72.5917 83.2903 72.6273C83.2903 72.6629 83.279 72.6976 83.2581 72.7264C83.2371 72.7552 83.2076 72.7765 83.1738 72.7874Z" fill="#B9D7FC"/>
<path fill-rule="evenodd" clip-rule="evenodd" d="M73.074 99.1648C73.1811 98.1763 73.3203 97.1866 73.5066 96.1923C73.8881 94.1568 74.4494 92.2634 74.8494 90.2351C75.3787 87.5471 75.858 84.2494 74.3787 81.798C72.9965 79.5071 70.5761 77.9016 68.2435 76.6996C67.6201 76.3777 66.9869 76.1607 66.2944 76.4329C65.9186 76.5805 65.622 76.8553 65.3826 77.1753C65.1815 77.4444 64.352 78.9226 64.1625 79.0188C63.4383 79.3852 61.9564 79.7094 61.7618 80.5251C60.733 84.8307 60.1258 89.0486 62.7164 92.7392C65.0933 96.1249 63.2076 100.478 62.4659 104.193C61.9095 106.984 61.5256 109.746 60.9418 112.53C60.9412 112.534 61.9085 112.613 61.9075 112.616L71.9544 113.173C72.0444 111.157 72.1345 109.142 72.225 107.127C72.3457 104.429 72.7881 101.809 73.074 99.1648Z" fill="#F7CCA9"/>
<path d="M68.5121 76.1755C67.6039 75.7065 66.8771 75.5703 66.079 75.884C65.619 76.0646 65.2367 76.3865 64.9107 76.8222L64.8569 76.8989L64.7493 77.065L64.081 78.1484L63.9251 78.3859L63.8589 78.4802L63.8215 78.5281L63.7591 78.5575L63.5818 78.632L63.039 78.8457L62.7457 78.9655C61.8456 79.3509 61.3453 79.7325 61.1888 80.3875C61.1632 80.4948 61.1384 80.602 61.1137 80.7078L60.9722 81.333C59.82 86.5753 60.0099 89.91 62.2345 93.079L62.3327 93.2222C63.3193 94.7127 63.5035 96.384 63.0864 98.8369L62.9976 99.3218C62.9658 99.4866 62.9313 99.6547 62.8947 99.8264L62.7779 100.354L62.7137 100.625L62.6075 101.061L62.248 102.502L62.103 103.096L61.999 103.548L61.933 103.859L61.7279 104.902L61.5091 106.098L60.7768 110.298L60.6569 111L60.5844 111.479C60.5265 111.889 60.4762 112.327 60.4366 112.833L60.661 113.049L60.7139 113.074L60.7884 113.1L60.8382 113.111L61.1432 113.141L61.1362 113.164L72.5149 113.795L72.8119 107.153L72.8448 106.528L72.8878 105.908L72.9281 105.43L72.9761 104.924L73.0779 103.989L73.1529 103.351L73.5497 100.181L73.7166 98.7213C73.8173 97.8829 73.9383 97.0816 74.0844 96.3017L74.1662 95.8781L74.253 95.456L74.3873 94.851L74.5077 94.3322L74.8874 92.7492L75.1707 91.5517L75.319 90.8741L75.3993 90.4829L75.4842 90.0492L75.5917 89.4639C76.2147 85.921 76.1231 83.5502 74.8816 81.493C73.5982 79.3658 71.4748 77.7022 68.5121 76.1755ZM66.5985 76.9504C66.9861 76.8303 67.3824 76.9186 67.9744 77.2243C70.7612 78.6604 72.7272 80.2007 73.875 82.1032C74.8918 83.7882 75.0003 85.85 74.4859 88.9476L74.3856 89.5225C74.3499 89.718 74.3114 89.9176 74.2713 90.1211L74.1406 90.7601L74.0003 91.3881L73.8619 91.9788L73.4056 93.8754L73.2008 94.7592L73.0702 95.361L72.9562 95.937L72.8407 96.57C72.6999 97.3846 72.5836 98.2226 72.4884 99.101L72.4482 99.4666L72.3296 100.464L72.105 102.242L71.9563 103.444L71.8622 104.265L71.7865 104.994L71.7267 105.662L71.6801 106.3L71.6524 106.776L71.3929 112.551L61.9659 112.028L61.6503 112.001L61.766 111.408L61.8916 110.741L62.0205 110.029L62.504 107.244L62.6969 106.145L62.8586 105.261L63.0687 104.181L63.1502 103.792L63.287 103.207L63.8576 100.901L63.983 100.358L64.0961 99.8338C64.7648 96.5707 64.6067 94.407 63.1975 92.3997L63.0805 92.2295C61.6625 90.1264 61.2319 87.8893 61.5657 84.8316L61.6266 84.3283C61.7277 83.5625 61.8729 82.7455 62.0598 81.8683L62.191 81.2743C62.2366 81.0734 62.284 80.869 62.3336 80.6618C62.3768 80.4822 62.6985 80.2571 63.353 79.9898L64.1379 79.6779C64.2475 79.6317 64.3421 79.5883 64.4283 79.5446C64.5834 79.4658 64.6977 79.352 64.8864 79.0741L64.9977 78.9048L65.2018 78.5803L65.7355 77.7081L65.8529 77.5295C66.0569 77.2569 66.2733 77.0744 66.5089 76.9818L66.5985 76.9504Z" fill="black"/>
<path d="M67.8092 79.4981C67.5902 78.3516 66.697 77.983 65.5863 78.2088C65.2641 78.2743 64.9334 78.3857 64.6026 78.5287L64.488 78.5794L64.2814 78.6771C64.2496 78.6928 64.2192 78.7082 64.1903 78.7231L64.0352 78.8064C64.0125 78.8191 63.9915 78.8312 63.9722 78.8426C63.6921 79.0078 63.5987 79.3692 63.7635 79.6498C63.9284 79.9305 64.289 80.0241 64.5691 79.8589L64.6707 79.8022L64.8076 79.732L64.975 79.653C65.0052 79.6393 65.0364 79.6255 65.0686 79.6116C65.3304 79.4984 65.5871 79.4119 65.8203 79.3645C66.3655 79.2537 66.5814 79.3428 66.6534 79.7196C66.7502 80.227 66.4637 80.87 65.8875 81.5473C65.6883 81.7815 65.4704 82.0009 65.2509 82.1979L65.0805 82.3462L64.9686 82.4365C64.7902 82.5726 64.7061 82.7967 64.7464 83.0135L64.7644 83.0854L65.8435 86.4653C65.8901 86.5947 65.9689 86.7658 66.0865 86.9422C66.2721 87.2206 66.4982 87.4249 66.8074 87.5024C67.2305 87.6084 67.6304 87.4221 67.9485 87.0226C68.1511 86.768 68.1095 86.397 67.8555 86.1939C67.6227 86.0077 67.2922 86.0273 67.0826 86.2279L67.0506 86.2632L67.0336 86.2369C67.0139 86.2035 66.9969 86.1711 66.9837 86.1443L66.9574 86.0856L66.0058 83.1026L66.036 83.0765C66.2283 82.9038 66.4195 82.7166 66.6027 82.5166L66.783 82.3124C67.5685 81.3891 67.9896 80.4438 67.8092 79.4981Z" fill="black"/>
<path d="M69.0787 79.1075C68.4879 79.068 67.8313 79.3983 67.3247 80.2657C66.9309 80.9401 66.6542 81.9038 66.5127 83.2034C66.2828 85.3175 66.6754 86.5925 67.5551 87.1508C67.8915 87.3643 68.2271 87.4323 68.5135 87.4184L68.6497 87.4051C68.9705 87.3528 69.1883 87.0499 69.1362 86.7285C69.0878 86.43 68.8237 86.2205 68.5294 86.2339L68.4761 86.2388C68.4156 86.2462 68.3028 86.2295 68.1847 86.1545C67.7539 85.8811 67.4963 85.0443 67.6826 83.3312C67.8074 82.1847 68.0393 81.3768 68.3403 80.8614C68.5966 80.4225 68.8121 80.292 68.966 80.2839L68.9942 80.2836L68.9657 80.2791L69.0774 80.2893L72.5615 80.2737C72.8865 80.2722 73.1487 80.0071 73.1473 79.6814C73.1459 79.379 72.9177 79.1308 72.6249 79.0981L72.5563 79.0944L69.1047 79.1094L69.0787 79.1075Z" fill="black"/>
<path d="M70.5228 81.9527C69.4175 82.1211 68.5822 82.6447 68.2181 83.616C67.2386 86.2307 67.7443 88.8695 69.9886 89.0544L70.1599 89.0627C70.4548 89.0581 70.7929 88.9473 71.0952 88.6568C71.4686 88.2981 71.6813 87.7506 71.7129 87.0004L71.7173 86.8014L72.5097 86.8356C72.8112 86.8487 73.0694 86.632 73.116 86.3405L73.1229 86.2719C73.1359 85.9698 72.9196 85.711 72.6288 85.6644L72.5604 85.6574L71.117 85.5951C70.7562 85.5795 70.4667 85.8904 70.507 86.25C70.6061 87.134 70.4863 87.6082 70.2809 87.8055C70.2314 87.853 70.1859 87.8742 70.1586 87.881L70.1484 87.882L70.0721 87.8769C68.9311 87.7491 68.5955 86.0974 69.2648 84.1823L69.3198 84.0306C69.5112 83.52 69.9756 83.2289 70.6997 83.1186C71.1475 83.0503 71.6485 83.0604 72.1479 83.1248L72.3341 83.1512L72.4882 83.1773L72.6512 83.211C72.9672 83.2869 73.2848 83.0917 73.3605 82.775C73.4362 82.4583 73.2414 82.14 72.9253 82.0642L72.7927 82.0351L72.6211 82.0033C72.5894 81.9979 72.5563 81.9924 72.5217 81.987L72.2981 81.9551C71.6988 81.8779 71.0935 81.8657 70.5228 81.9527Z" fill="black"/>
<path d="M69.9565 77.3395L65.8828 78.0795C65.563 78.1376 65.3508 78.4445 65.4088 78.7649C65.4626 79.0624 65.7305 79.2671 66.0245 79.2483L66.0927 79.2399L70.1664 78.4999C70.4861 78.4418 70.6984 78.1349 70.6404 77.8145C70.5866 77.517 70.3187 77.3123 70.0247 77.3311L69.9565 77.3395Z" fill="black"/>
<path fill-rule="evenodd" clip-rule="evenodd" d="M51.6142 129.238C51.6142 129.238 68.283 143.743 69.88 139.154C71.2134 135.323 74.4141 110.414 75.4356 102.284C75.6164 100.848 74.6322 99.5269 73.1982 99.278L62.5725 97.43C61.135 97.1801 59.7521 98.0947 59.4315 99.5102C57.918 106.197 53.7508 124.185 51.6142 129.238Z" fill="#4078BC"/>
<path fill-rule="evenodd" clip-rule="evenodd" d="M69.8949 102.412C70.5314 102.362 71.0887 102.841 71.1382 103.478C71.1876 104.116 70.7107 104.675 70.0741 104.724C69.4376 104.774 68.8799 104.295 68.8304 103.658C68.781 103.02 69.2583 102.461 69.8949 102.412ZM70.144 105.626C71.2761 105.537 72.1254 104.543 72.0374 103.408C71.9495 102.274 70.9571 101.422 69.825 101.51C68.6929 101.599 67.8432 102.593 67.9311 103.728C68.0191 104.863 69.0119 105.714 70.144 105.626Z" fill="white"/>
<path fill-rule="evenodd" clip-rule="evenodd" d="M65.1934 142.088C69.1463 141.781 71.2573 137.239 68.9417 133.999C65.4042 129.048 59.6074 123.574 51.5171 124.228C43.8709 124.845 37.6271 130.62 33.4401 135.927C30.6774 139.427 33.4024 144.564 37.8323 144.219L65.1934 142.088Z" fill="#4078BC"/>
<path fill-rule="evenodd" clip-rule="evenodd" d="M32.3056 125.987C32.2132 125.24 32.6338 124.458 33.6435 124.44C36.5532 124.385 39.6235 124.602 42.3792 125.545C44.7499 126.356 45.1519 128.682 45.9788 130.756C46.0553 130.947 46.0825 131.128 46.0813 131.299C53.2358 136.2 57.9656 142.651 57.9656 142.651L21.759 145.47C21.759 145.47 20.1908 143.668 18.761 139.371C18.8587 136.011 18.8221 129.382 32.3056 125.987Z" fill="#4078BC"/>
<path fill-rule="evenodd" clip-rule="evenodd" d="M21.6628 94.6465C25.07 86.8259 32.9236 82.3657 41.0818 83.4569C46.7283 84.2121 55.5217 86.7487 56.4937 93.522C57.0531 97.4268 55.4204 100.965 53.1858 104.044C50.6955 107.475 47.9291 110.661 45.423 114.096C41.888 118.94 34.9549 123.292 29.1577 119.178C27.2881 117.852 25.9441 115.908 24.7846 113.922C21.5223 108.335 18.9277 100.925 21.6628 94.6465Z" fill="black"/>
<path fill-rule="evenodd" clip-rule="evenodd" d="M47.1665 119.189C47.7098 121.575 48.9212 123.546 49.4646 125.932L49.215 126.193C45.8336 129.729 40.9979 130.392 36.259 129.322L35.2689 128.928C34.1102 122.379 33.7813 116.604 31.2662 110.459C30.7928 109.416 29.265 108.872 28.8316 107.811C27.3035 104.073 26.1469 99.9432 27.6849 96.0222C28.9605 92.7696 31.619 90.2019 34.4838 88.4205C37.9565 86.2617 39.4987 85.5443 43.5098 86.4542C46.1091 87.0439 48.1841 89.436 48.1841 89.436C51.1294 93.8585 55.7883 99.6118 56.2251 104.985C56.5941 109.521 55.698 114.803 51.6435 117.435C51.6435 117.435 49.1269 118.895 47.1665 119.189Z" fill="#F5CAA7"/>
<path fill-rule="evenodd" clip-rule="evenodd" d="M49.7275 126.141C49.7667 126.138 49.8055 126.13 49.8444 126.118C50.087 126.041 50.2175 125.803 50.1358 125.588L47.6 118.929C47.5183 118.712 47.2555 118.6 47.0125 118.678C46.769 118.755 46.639 118.992 46.721 119.207L49.256 125.867C49.3248 126.049 49.5224 126.157 49.7275 126.141Z" fill="black"/>
<path fill-rule="evenodd" clip-rule="evenodd" d="M49.151 107.841C49.1751 107.834 49.1987 107.825 49.2221 107.813L51.3698 106.76C51.4902 106.701 51.5755 106.594 51.603 106.47C51.63 106.346 51.5953 106.217 51.5092 106.12L46.0255 99.9904C45.8688 99.8148 45.5885 99.7932 45.3987 99.942C45.2098 100.091 45.1838 100.355 45.3409 100.53L50.4695 106.264L48.816 107.074C48.5969 107.182 48.5105 107.434 48.623 107.638C48.7232 107.82 48.9481 107.902 49.151 107.841Z" fill="black"/>
<path fill-rule="evenodd" clip-rule="evenodd" d="M29.6271 112.16C30.3285 111.93 30.9889 111.573 31.5723 111.123C32.6125 110.322 33.3172 109.194 34.3043 108.331C35.6716 107.136 37.3105 106.283 38.504 104.887C42.595 100.103 44.1946 94.3253 42.9639 88.1386C42.8681 87.6549 41.9592 84.423 41.4451 84.3753C41.4447 84.3753 29.024 83.234 24.31 94.1513C22.4556 98.4463 22.3595 103.167 22.8123 107.744C22.9505 109.142 23.3422 110.31 24.4579 111.229C25.44 112.037 26.7307 112.487 28.0092 112.449C28.5614 112.432 29.1059 112.332 29.6271 112.16Z" fill="black"/>
<path fill-rule="evenodd" clip-rule="evenodd" d="M48.3975 96.0708C48.5147 96.0356 48.6157 95.953 48.668 95.8372C48.8229 95.4929 49.1382 95.2133 49.5117 95.0892C49.8833 94.9533 50.3126 94.9975 50.6573 95.1759C50.8681 95.2859 51.1324 95.2107 51.2493 95.0106C51.3658 94.811 51.2904 94.5614 51.0805 94.4529C50.5237 94.1649 49.8404 94.1096 49.2292 94.3122C48.627 94.5129 48.1181 94.9647 47.8682 95.5203C47.7736 95.7305 47.8764 95.9714 48.0972 96.0587C48.196 96.0983 48.3018 96.0999 48.3975 96.0708Z" fill="black"/>
<path fill-rule="evenodd" clip-rule="evenodd" d="M46.5179 132.011C46.5459 132.328 46.5081 132.618 46.3346 132.806C45.9694 133.201 44.1884 132.646 43.5786 132.421C42.5481 132.04 41.5494 131.58 40.5532 131.118C39.1078 130.449 37.6634 129.775 36.2373 129.066C35.501 128.699 34.769 128.323 34.0447 127.932C33.448 127.61 32.6669 127.318 32.2083 126.804C31.4256 125.926 32.1374 123.887 33.3863 123.867C36.2506 123.821 39.2747 124.053 41.9911 125.03C43.2823 125.494 44.2236 126.597 44.8411 127.785C45.2787 128.627 45.7146 129.474 46.043 130.366C46.178 130.731 46.466 131.422 46.5179 132.011Z" fill="#4078BC"/>
<path fill-rule="evenodd" clip-rule="evenodd" d="M37.7445 117.796C38.016 118.871 40.7604 122.392 48.1123 122.127L46.9192 118.71C46.9192 118.71 42.8624 119.115 38.325 117.578C38.208 117.539 37.715 117.681 37.7445 117.796Z" fill="black"/>
<path fill-rule="evenodd" clip-rule="evenodd" d="M27.1818 110.428C26.8492 108.881 27.2971 107.181 28.9195 106.574C29.9573 106.186 31.126 106.503 32.0139 107.112C33.0944 107.854 34.0164 109.088 34.2112 110.405C34.5083 112.418 33.0965 115.003 30.7548 114.487C30.0181 114.324 29.3808 113.859 28.8469 113.325C28.1418 112.62 27.5709 111.764 27.2808 110.809C27.2426 110.683 27.2094 110.556 27.1818 110.428Z" fill="#F5CAA7"/>
<path fill-rule="evenodd" clip-rule="evenodd" d="M48.4553 123.913C48.891 122.311 49.1182 120.737 50.9902 121.669C52.1801 122.262 53.9854 122.964 53.4539 124.242C52.8553 125.68 49.9877 131.005 49.7024 131.466C49.7024 131.466 48.7166 127.807 48.4253 125.853C48.3413 125.289 48.2678 124.603 48.4553 123.913Z" fill="#4078BC"/>
<path d="M48.616 123.306C48.303 123.219 47.9784 123.402 47.891 123.716C47.7003 124.4 47.71 125.035 47.8421 125.913L47.9037 126.291L47.9806 126.71C48.0087 126.856 48.0392 127.009 48.0721 127.168L48.1775 127.662L48.2961 128.192L48.4401 128.808C48.4651 128.913 48.4906 129.019 48.5166 129.126C48.6123 129.52 48.7112 129.916 48.8105 130.304L49.1568 131.62C49.2918 132.114 49.9473 132.212 50.2211 131.78L50.3572 131.555L50.6258 131.086L51.0715 130.285L51.6005 129.316L52.2867 128.039L52.8527 126.969L53.2717 126.164L53.6376 125.446L53.794 125.132L53.9878 124.731C54.0064 124.691 54.0239 124.654 54.0403 124.618L54.1249 124.428C54.2525 124.129 54.1137 123.782 53.8148 123.654C53.516 123.526 53.1703 123.666 53.0427 123.965L52.9738 124.12L52.7769 124.534L52.5127 125.063L52.0207 126.02L51.358 127.279L50.8204 128.283L50.2264 129.378L49.928 129.921L49.8039 129.431L49.66 128.847L49.5123 128.228L49.3839 127.667L49.2753 127.171C49.2583 127.091 49.2419 127.013 49.226 126.936L49.1378 126.496C49.1108 126.355 49.0862 126.222 49.0642 126.095L49.0057 125.737C48.8964 125.01 48.8889 124.519 49.0245 124.033C49.1118 123.719 48.9289 123.394 48.616 123.306Z" fill="black"/>
<mask id="mask0_22541_62805" style="mask-type:luminance" maskUnits="userSpaceOnUse" x="73" y="121" width="11" height="11">
<path fill-rule="evenodd" clip-rule="evenodd" d="M82.8809 121.482L73.2703 122.23L74.0075 131.739L83.618 130.991L82.8809 121.482Z" fill="white"/>
</mask>
<g mask="url(#mask0_22541_62805)">
<path fill-rule="evenodd" clip-rule="evenodd" d="M80.1045 124.588L79.3778 122.097C79.2792 121.759 78.8189 121.678 78.5996 121.961L76.9796 124.044C76.8919 124.156 76.7534 124.22 76.6082 124.215L73.9129 124.125C73.5468 124.113 73.3224 124.509 73.5326 124.795L75.0838 126.907C75.1672 127.02 75.1873 127.167 75.1364 127.298L74.1972 129.734C74.0697 130.064 74.3911 130.39 74.741 130.284L77.3197 129.506C77.4582 129.464 77.6095 129.49 77.7235 129.576L79.8389 131.172C80.1257 131.388 80.5485 131.193 80.5543 130.841L80.5972 128.249C80.5995 128.109 80.6732 127.98 80.794 127.902L83.0402 126.452C83.3451 126.255 83.2853 125.809 82.939 125.698L80.387 124.873C80.2492 124.83 80.1437 124.723 80.1045 124.588Z" fill="#7ADBF9"/>
</g>
<path fill-rule="evenodd" clip-rule="evenodd" d="M11.4362 126.847L11.2462 125.251C11.2203 125.034 10.9537 124.941 10.7953 125.094L9.62645 126.217C9.56365 126.277 9.4747 126.303 9.38851 126.286L7.79073 125.975C7.57414 125.933 7.40153 126.155 7.49897 126.35L8.21756 127.792C8.25623 127.869 8.25377 127.961 8.21086 128.037L7.41343 129.441C7.30542 129.631 7.46515 129.861 7.68386 129.83L9.29655 129.598C9.38349 129.585 9.47075 129.616 9.53053 129.679L10.6353 130.858C10.7853 131.019 11.056 130.939 11.0938 130.724L11.3722 129.139C11.3874 129.053 11.4444 128.98 11.5238 128.944L13.0042 128.269C13.2048 128.177 13.2127 127.898 13.0172 127.796L11.5763 127.049C11.4988 127.009 11.4463 126.933 11.4362 126.847Z" fill="#7ADBF9"/>
<path fill-rule="evenodd" clip-rule="evenodd" d="M29.0447 79.9371L28.8547 78.3401C28.8288 78.1235 28.5621 78.0308 28.4038 78.1832L27.235 79.306C27.1722 79.3668 27.0828 79.3931 26.9971 79.3761L25.3994 79.0649C25.1824 79.0225 25.0097 79.2439 25.1076 79.4399L25.8262 80.881C25.8649 80.9592 25.862 81.0509 25.8191 81.1264L25.0221 82.5305C24.9136 82.7207 25.0734 82.9509 25.2925 82.9193L26.9051 82.6872C26.9921 82.6748 27.0793 82.7054 27.1387 82.7686L28.2434 83.9477C28.3938 84.1079 28.6645 84.0284 28.7022 83.8132L28.9807 82.2283C28.9959 82.1429 29.0525 82.0702 29.1323 82.0335L30.6127 81.3585C30.8132 81.2664 30.8212 80.9879 30.6257 80.8862L29.1848 80.1388C29.1072 80.0985 29.0548 80.0231 29.0447 79.9371Z" fill="#00DC97"/>
<path d="M42.8379 102.676C41.7289 102.353 40.4832 102.496 39.267 103.387C39.0047 103.579 38.9474 103.948 39.1392 104.211C39.3309 104.474 39.6991 104.531 39.9614 104.339C40.8596 103.681 41.7295 103.581 42.5097 103.808C42.593 103.832 42.6628 103.857 42.7173 103.878L42.8057 103.916L42.8338 103.931C43.1176 104.089 43.476 103.987 43.6343 103.703C43.7927 103.419 43.691 103.06 43.4072 102.901C43.2886 102.834 43.0956 102.751 42.8379 102.676Z" fill="black"/>
<path d="M52.0993 97.5769C51.5128 97.5718 50.8374 97.7442 50.2111 98.2263C49.5457 98.7384 49.0655 99.5263 48.8297 100.609C48.7604 100.927 48.9616 101.241 49.279 101.311C49.5965 101.38 49.9101 101.179 49.9794 100.86C50.1574 100.043 50.4887 99.4996 50.9278 99.1616C51.2783 98.8918 51.6582 98.7768 51.9829 98.7587L52.1093 98.7564C52.4332 98.7825 52.7169 98.5405 52.7429 98.2158C52.7689 97.8912 52.5273 97.607 52.2034 97.5809L52.1406 97.5777L52.0993 97.5769Z" fill="black"/>
<path fill-rule="evenodd" clip-rule="evenodd" d="M49.9932 110.607C50.5586 111.51 51.3425 112.013 51.744 111.73C52.1458 111.447 52.0132 110.487 51.4478 109.584C50.882 108.681 50.098 108.178 49.6961 108.46C49.2947 108.743 49.4278 109.704 49.9932 110.607Z" fill="white"/>
<path d="M51.9457 109.271C51.2224 108.116 50.1444 107.425 49.3575 107.978L49.2808 108.038C48.6187 108.599 48.8074 109.823 49.4945 110.92C50.2174 112.075 51.2953 112.766 52.0816 112.213C52.8343 111.683 52.6582 110.409 51.9457 109.271ZM50.0416 108.944C50.05 108.947 50.0642 108.955 50.0836 108.967L50.157 109.017L50.2561 109.095C50.44 109.247 50.709 109.515 50.9492 109.898C51.169 110.249 51.2984 110.595 51.3637 110.848L51.3951 110.989C51.4237 111.138 51.4241 111.234 51.4054 111.248C51.4035 111.249 51.3943 111.245 51.3802 111.238L51.3225 111.201L51.2353 111.137L51.1253 111.046C50.9459 110.889 50.7069 110.639 50.4911 110.294C50.0729 109.626 49.9836 108.978 50.0337 108.943L50.0416 108.944Z" fill="#231F20"/>
<path fill-rule="evenodd" clip-rule="evenodd" d="M10.4335 102.859C10.1758 101.899 9.88573 100.943 9.54838 99.9893C8.85734 98.0374 8.01102 96.254 7.30358 94.3114C6.36643 91.7376 5.38416 88.5541 6.46792 85.9027C7.48082 83.4257 9.62469 81.4644 11.7436 79.9158C12.3098 79.5013 12.9025 79.1893 13.6282 79.3506C14.0226 79.4382 14.358 79.6642 14.6439 79.943C14.884 80.1781 15.9313 81.5098 16.133 81.5755C16.9054 81.8254 18.4194 81.9168 18.737 82.6921C20.417 86.7868 21.667 90.8601 19.6767 94.9079C17.8498 98.6205 20.3837 102.629 21.6896 106.186C22.6693 108.856 23.4739 111.526 24.4803 114.187C24.4814 114.19 23.5379 114.418 23.539 114.421L13.6991 116.526C13.299 114.549 12.8995 112.572 12.4998 110.594C11.9644 107.948 11.124 105.428 10.4335 102.859Z" fill="#F7CCA9"/>
<path d="M13.6086 78.7471C12.8358 78.6199 12.1722 78.8718 11.3967 79.4395C8.7054 81.4065 6.86381 83.3791 5.92319 85.6791C5.01372 87.9041 5.2883 90.2597 6.45018 93.6642L6.64653 94.2259L6.79732 94.6422L6.93708 95.0172L7.12094 95.4937L7.39277 96.1699L8.12146 97.938L8.40949 98.6463L8.64368 99.2413L8.8472 99.7818L8.99319 100.187C9.31116 101.085 9.59783 102.019 9.8646 103.012L9.91377 103.192L10.1194 103.937L10.6574 105.81L10.9988 107.004L11.276 108.003L11.4603 108.7L11.5811 109.183L11.7265 109.796L11.794 110.098C11.838 110.299 11.8806 110.502 11.9228 110.711L13.2401 117.228L24.305 114.86L24.2764 114.845L24.6224 114.76L24.6808 114.741L24.7612 114.705L24.7798 114.693L24.9819 114.495L25.0301 113.979L24.8285 113.438L24.6245 112.879L24.4153 112.29L24.0834 111.332L22.9834 108.085L22.5735 106.904L22.2416 105.982L22.0481 105.471L21.8212 104.906L21.2127 103.463L20.894 102.7C20.7154 102.265 20.5549 101.851 20.4126 101.456L20.2512 100.991C19.435 98.5549 19.3801 96.8433 20.2043 95.1685L20.302 94.964C21.7076 91.9701 21.6046 89.0628 20.2596 85.0673L20.0689 84.515C19.9364 84.1427 19.7937 83.761 19.6411 83.369L19.4049 82.7722L19.2804 82.4685C19.01 81.8084 18.4062 81.5107 17.3512 81.2611L16.8349 81.1455L16.5157 81.0715L16.3936 81.0379L16.312 80.958L16.1474 80.7808L15.9208 80.5232L15.2515 79.7359L15.1196 79.5884L15.0535 79.5201C14.6641 79.1405 14.2371 78.8821 13.7548 78.7749L13.6086 78.7471ZM12.0905 80.3914C12.6685 79.9684 13.0628 79.8289 13.5002 79.9261C13.7471 79.981 13.9893 80.1275 14.2326 80.3647L14.3354 80.4782L15.038 81.3031L15.2896 81.592L15.4256 81.7411C15.4464 81.7634 15.4661 81.7851 15.4854 81.805L15.5945 81.9111C15.7293 82.0359 15.831 82.0976 15.9519 82.137C16.0126 82.1566 16.0772 82.1754 16.1473 82.1943L16.378 82.2517L17.0259 82.3962L17.2145 82.4413C17.8157 82.5946 18.1273 82.757 18.1927 82.9166C18.233 83.015 18.2722 83.113 18.3114 83.21L18.5401 83.7848C18.5768 83.8791 18.6126 83.9733 18.6481 84.0663L18.8543 84.6164C18.9204 84.7974 18.9837 84.9761 19.0448 85.1521L19.2203 85.6732C20.4256 89.3566 20.4619 91.9754 19.1481 94.6473L19.0656 94.8213C18.0755 96.9631 18.2736 99.0926 19.4072 102.132L19.5988 102.634L19.8074 103.151L19.9809 103.57L20.6471 105.151L20.8946 105.753L21.0563 106.172L21.3724 107.039L21.761 108.148L23.1013 112.094L23.2289 112.452C23.4183 112.97 23.6003 113.4 23.7938 113.673L23.8428 113.737L23.4334 113.838L14.1578 115.824L13.0104 110.159L12.9095 109.692L12.8029 109.226L12.6454 108.585L12.5585 108.247L12.4149 107.708L12.1345 106.694L11.228 103.53L10.8624 102.2C10.6276 101.364 10.3766 100.566 10.1027 99.7918L10.0527 99.6517L9.90217 99.2393L9.70293 98.716L9.40867 97.9779L8.45975 95.6686L8.18139 94.9713L7.99235 94.4786L7.75124 93.8196C6.5235 90.3766 6.1992 88.1142 7.01179 86.1262C7.85304 84.069 9.55877 82.2418 12.0905 80.3914Z" fill="black"/>
<path d="M14.6015 80.9956C13.4693 80.9444 12.6436 81.4469 12.6039 82.6135C12.5713 83.5758 13.1331 84.4447 14.0517 85.2353C14.2589 85.4136 14.4743 85.5784 14.6909 85.7289L14.9077 85.8745L14.9421 85.8956L14.4647 88.9685L14.4465 89.0414C14.4381 89.0706 14.4273 89.1035 14.4143 89.1374L14.3969 89.1801L14.3586 89.15C14.1423 88.9994 13.8503 89.012 13.6477 89.1809L13.5898 89.2362C13.3701 89.4762 13.3862 89.8492 13.6257 90.0693C14.0016 90.4148 14.4254 90.5369 14.8271 90.3667C15.1206 90.2423 15.3127 90.0055 15.4532 89.7017C15.5245 89.5478 15.5717 89.401 15.6031 89.2683L15.6237 89.1715L16.1653 85.6865C16.2037 85.4397 16.0828 85.1956 15.8635 85.0769L15.6821 84.9701L15.5478 84.8849C15.3005 84.7243 15.0514 84.5412 14.8184 84.3407C14.1446 83.7607 13.7625 83.1698 13.78 82.6537C13.7931 82.27 13.9927 82.1485 14.5484 82.1737C14.7861 82.1844 15.053 82.2301 15.3291 82.3014L15.5204 82.3542L15.6829 82.4048L15.8608 82.4685C16.1629 82.5883 16.5048 82.44 16.6244 82.1372C16.744 81.8344 16.596 81.4918 16.2939 81.3719L16.1479 81.3176C16.1201 81.3079 16.0908 81.2979 16.0599 81.2876L15.8572 81.2242C15.7841 81.2026 15.7056 81.1808 15.6227 81.1594C15.2738 81.0693 14.9298 81.0104 14.6015 80.9956Z" fill="black"/>
<path d="M13.2001 83.296C12.6013 82.5613 11.9441 82.3203 11.3865 82.4056L11.2892 82.424L11.2642 82.4301L7.85154 82.9494C7.55321 82.9948 7.34142 83.2572 7.35172 83.5523L7.3581 83.6209C7.40337 83.9198 7.66525 84.1321 7.95967 84.1217L8.0281 84.1154L11.4725 83.5915L11.5813 83.5641L11.5478 83.5745C11.6998 83.5402 11.9434 83.6184 12.2887 84.042C12.6658 84.5046 13.0195 85.2669 13.3195 86.3808C13.7679 88.0447 13.6424 88.9114 13.2589 89.2482C13.1714 89.3251 13.0811 89.3615 13.0183 89.3727L12.99 89.3764L12.9993 89.3764C12.6744 89.3744 12.4094 89.6368 12.4074 89.9625C12.4056 90.2649 12.6313 90.5155 12.9237 90.5513L13.0101 90.5555L13.0238 90.5552C13.3333 90.5447 13.6977 90.4309 14.0345 90.1351C14.8176 89.4473 15.0089 88.1267 14.4556 86.0734C14.1156 84.8108 13.6935 83.9012 13.2001 83.296Z" fill="black"/>
<path d="M10.3018 85.4587C9.7245 85.4612 9.12839 85.5669 8.54822 85.7359L8.33215 85.8021C8.29884 85.8128 8.26694 85.8233 8.23649 85.8335L8.07186 85.8915L7.94532 85.9408C7.64479 86.0646 7.50136 86.4092 7.62496 86.7104C7.74856 87.0115 8.09239 87.1553 8.39292 87.0314L8.54872 86.9729L8.697 86.9233L8.87683 86.8683C9.36033 86.7274 9.85375 86.6399 10.3067 86.638C11.039 86.635 11.5427 86.8507 11.8105 87.3254C12.8482 89.1657 12.797 90.9309 11.66 91.2421L11.5858 91.2591L11.5752 91.2595C11.5542 91.2577 11.5218 91.2494 11.4833 91.2288L11.4429 91.2039C11.2097 91.0408 11.0183 90.5909 10.9799 89.7022C10.9653 89.3647 10.6735 89.1138 10.3467 89.1397L10.2763 89.1496L8.85977 89.4346C8.54117 89.4987 8.33475 89.8095 8.39871 90.1287C8.4581 90.4252 8.72975 90.6248 9.02334 90.6004L9.0914 90.5908L9.86984 90.4342L9.87493 90.4689C10.0005 91.2378 10.2751 91.7774 10.6805 92.1042L10.7694 92.171C11.0747 92.3845 11.386 92.4534 11.6565 92.4372L11.7979 92.4202C14.109 91.9635 14.232 89.2226 12.8349 86.7452C12.3255 85.8421 11.4196 85.4541 10.3018 85.4587Z" fill="black"/>
<path d="M10.15 80.8135C9.82513 80.8057 9.55543 81.0633 9.54759 81.3888C9.54032 81.6911 9.7614 81.9458 10.0531 81.9869L10.1216 81.9925L14.2605 82.0925C14.5853 82.1004 14.855 81.8428 14.8629 81.5173C14.8702 81.215 14.6491 80.9603 14.3574 80.9192L14.2888 80.9136L10.15 80.8135Z" fill="black"/>
<path fill-rule="evenodd" clip-rule="evenodd" d="M36.2813 129.382C36.2813 129.382 21.4439 144.974 19.1573 140.669C17.2483 137.074 10.8483 114.24 8.58301 106.332C8.18308 104.935 8.95132 103.471 10.3296 103.002L20.5419 99.5201C21.9236 99.0492 23.4311 99.7421 23.966 101.097C26.4945 107.497 33.3895 124.7 36.2813 129.382Z" fill="#4078BC"/>
<path d="M32.5417 119.604C32.4154 119.304 32.0702 119.163 31.7708 119.29C31.4945 119.406 31.3537 119.71 31.433 119.992L31.4575 120.062L37.9676 135.524C38.0939 135.824 38.439 135.964 38.7384 135.838C39.0148 135.721 39.1556 135.417 39.0763 135.135L39.0518 135.065L32.5417 119.604Z" fill="black"/>
<path fill-rule="evenodd" clip-rule="evenodd" d="M20.4368 103.897C21.073 103.848 21.6307 104.326 21.6801 104.964C21.7296 105.601 21.2523 106.16 20.6161 106.21C19.9796 106.259 19.4218 105.781 19.3724 105.143C19.323 104.506 19.8003 103.947 20.4368 103.897ZM20.686 107.111C21.8181 107.023 22.6674 106.028 22.5794 104.894C22.4915 103.759 21.4991 102.908 20.367 102.996C19.2349 103.084 18.3852 104.079 18.4731 105.213C18.5611 106.348 19.5539 107.199 20.686 107.111Z" fill="white"/>
<path d="M44.5092 126.198C44.2975 125.951 43.926 125.923 43.6795 126.135C43.4329 126.347 43.4046 126.719 43.6162 126.966L43.7224 127.096L43.8795 127.301C43.8995 127.328 43.9203 127.356 43.9418 127.385C44.1961 127.731 44.4544 128.122 44.6999 128.546C45.343 129.659 45.7768 130.788 45.9106 131.871L45.9304 132.058L36.4685 128.729C36.1855 128.63 35.8776 128.76 35.7472 129.022L35.7185 129.09C35.6191 129.374 35.7489 129.682 36.0106 129.813L36.0787 129.842L46.3381 133.452C46.7069 133.582 47.0972 133.321 47.1203 132.93C47.1276 132.807 47.1312 132.683 47.1311 132.558C47.1297 131.031 46.5936 129.47 45.7182 127.955C45.4499 127.491 45.1681 127.065 44.8895 126.686L44.6937 126.426L44.5462 126.242C44.5328 126.226 44.5205 126.211 44.5092 126.198Z" fill="black"/>
<path d="M56.8874 125.066L56.3996 126.139L56.5353 126.205L56.7433 126.315L56.9204 126.414C57.355 126.659 57.844 126.967 58.3756 127.343C59.9023 128.421 61.4564 129.817 62.9433 131.566C65.1318 134.14 66.978 137.25 68.3489 140.947L68.5112 141.393L69.6195 140.997C68.1847 136.966 66.2061 133.585 63.839 130.801C62.2858 128.974 60.6582 127.512 59.0533 126.379C58.4888 125.98 57.9664 125.651 57.4981 125.386L57.2102 125.228L57.0568 125.148L56.8874 125.066Z" fill="black"/>
<path d="M58.7366 104.764L58.4907 105.917L74.6939 109.387L74.9398 108.234L58.7366 104.764Z" fill="black"/>
<path d="M26.0996 106.712L10.0389 112.694L10.4489 113.799L26.5095 107.818L26.0996 106.712Z" fill="black"/>
<path fill-rule="evenodd" clip-rule="evenodd" d="M87.9589 77.583C87.3187 77.6917 86.728 77.9974 86.2688 78.4575C85.8096 78.9177 85.5046 79.5097 85.3961 80.1513C85.3833 80.1843 85.3608 80.2127 85.3316 80.2327C85.3024 80.2527 85.2679 80.2634 85.2325 80.2634C85.1971 80.2634 85.1626 80.2527 85.1334 80.2327C85.1041 80.2127 85.0817 80.1843 85.0688 80.1513C84.9619 79.5103 84.6585 78.9186 84.2006 78.4583C83.7428 77.9981 83.1533 77.6921 82.514 77.583C82.4802 77.5721 82.4506 77.5508 82.4297 77.522C82.4087 77.4933 82.3975 77.4586 82.3975 77.423C82.3975 77.3874 82.4087 77.3527 82.4297 77.3239C82.4506 77.2952 82.4802 77.2738 82.514 77.263C83.1533 77.1538 83.7428 76.8479 84.2006 76.3876C84.6585 75.9274 84.9619 75.3357 85.0688 74.6947C85.0817 74.6616 85.1041 74.6332 85.1334 74.6132C85.1626 74.5932 85.1971 74.5825 85.2325 74.5825C85.2679 74.5825 85.3024 74.5932 85.3316 74.6132C85.3608 74.6332 85.3833 74.6616 85.3961 74.6947C85.5046 75.3363 85.8096 75.9282 86.2688 76.3884C86.728 76.8486 87.3187 77.1542 87.9589 77.263C87.9928 77.2738 88.0223 77.2952 88.0433 77.3239C88.0642 77.3527 88.0755 77.3874 88.0755 77.423C88.0755 77.4586 88.0642 77.4933 88.0433 77.522C88.0223 77.5508 87.9928 77.5721 87.9589 77.583Z" fill="#00DC97"/>
<circle cx="66" cy="39" r="26.8125" fill="#ECF9FF"/>
<path fill-rule="evenodd" clip-rule="evenodd" d="M85.1406 67.5314C85.1406 67.3287 84.9817 67.1649 84.786 67.1649C83.5015 67.1649 82.5144 66.7823 81.8516 66.0283C80.9935 65.0509 80.8749 63.6722 80.871 63.0309C80.8719 62.9794 80.8762 62.9311 80.8762 62.8792C80.8762 62.8667 80.8741 62.8555 80.8732 62.8434C80.8758 62.7463 80.8806 62.6841 80.881 62.6774C80.9005 62.476 80.7585 62.2965 80.5636 62.2764C80.3667 62.2554 80.1944 62.4031 80.1749 62.6044C80.1723 62.6295 80.1576 62.8018 80.1602 63.0676C80.1255 64.3018 79.7614 65.2604 79.0674 65.9115C77.8093 67.092 75.8654 66.9188 75.8256 66.9152C75.633 66.8951 75.4572 67.0419 75.4377 67.2432C75.4321 67.3005 75.4407 67.3551 75.4585 67.4057C75.4446 67.4451 75.4355 67.4867 75.4355 67.5314C75.4355 67.7337 75.5944 67.8979 75.7906 67.8979C77.0751 67.8979 78.0622 68.2806 78.7245 69.0341C79.583 70.0115 79.7017 71.3898 79.7056 72.0315C79.7047 72.083 79.7004 72.1313 79.7004 72.1837C79.7004 72.1962 79.7021 72.2074 79.7034 72.2195C79.7008 72.3166 79.696 72.3788 79.6956 72.385C79.6757 72.5869 79.8181 72.7663 80.013 72.7865C80.0255 72.7878 80.0372 72.7882 80.0489 72.7882C80.2286 72.7882 80.3831 72.6473 80.4017 72.458C80.4039 72.4334 80.419 72.2606 80.4164 71.9953C80.4506 70.7606 80.8152 69.8021 81.5092 69.1509C82.7668 67.9709 84.7111 68.1436 84.751 68.1476C84.9415 68.166 85.119 68.021 85.1389 67.8192C85.1445 67.7623 85.1359 67.7077 85.1177 67.6567C85.132 67.6174 85.1406 67.5757 85.1406 67.5314Z" fill="#DAEEFF"/>
<path fill-rule="evenodd" clip-rule="evenodd" d="M39.9738 44.3809C39.9738 44.3786 39.9734 44.3763 39.9734 44.374C39.969 44.1706 39.8126 44.007 39.6198 44.007C39.1958 44.007 38.8487 43.8494 38.56 43.5255C37.7388 42.6068 37.629 40.6779 37.6233 39.8216C37.6238 39.7538 37.6259 39.6878 37.6259 39.6186C37.6259 39.6113 37.6242 39.604 37.6238 39.5966C37.6255 39.4729 37.629 39.4005 37.629 39.3959C37.6398 39.1889 37.4902 39.0115 37.2949 39.0005C37.0917 38.9895 36.9327 39.1476 36.9214 39.3547C36.9201 39.3859 36.9106 39.5852 36.9141 39.8885C36.8795 41.5714 36.5194 42.7681 35.8664 43.3578C35.3235 43.8471 34.7573 43.7596 34.727 43.755C34.5342 43.7193 34.3527 43.8549 34.3181 44.0579C34.3147 44.0794 34.3134 44.1009 34.3134 44.122C34.3134 44.1252 34.3125 44.1284 34.3125 44.1316V44.133C34.3125 44.1353 34.3129 44.1376 34.3129 44.1399C34.3173 44.3433 34.4737 44.5073 34.6669 44.5073C35.0905 44.5073 35.4376 44.6645 35.7272 44.9884C36.5445 45.9039 36.6565 47.8222 36.6634 48.6832C36.6625 48.7537 36.6603 48.8229 36.6603 48.8953C36.6603 48.9035 36.6625 48.9113 36.6629 48.9196C36.6612 49.0414 36.6578 49.1134 36.6573 49.118C36.647 49.3251 36.7965 49.5024 36.9923 49.5134C36.9984 49.5138 37.0053 49.5138 37.0113 49.5138C37.1985 49.5138 37.3545 49.359 37.3653 49.1597C37.3666 49.1276 37.3761 48.926 37.3722 48.6199C37.4077 46.9398 37.7677 45.7453 38.4199 45.1561C38.9624 44.6668 39.529 44.7538 39.5593 44.7589C39.7516 44.7942 39.9336 44.659 39.9682 44.456C39.9716 44.4345 39.9729 44.4134 39.9729 44.3919C39.9729 44.3891 39.9738 44.3859 39.9738 44.3823V44.3809Z" fill="#2A68D8"/>
<path fill-rule="evenodd" clip-rule="evenodd" d="M92.8691 61.7954C92.8691 61.7931 92.8687 61.7912 92.8687 61.7893C92.8651 61.6173 92.7308 61.4782 92.5655 61.4782C92.2024 61.4782 91.9046 61.3453 91.6572 61.0714C90.9531 60.2935 90.8594 58.662 90.854 57.937C90.8549 57.88 90.8567 57.8239 90.8567 57.7659C90.8567 57.7588 90.8549 57.7531 90.8544 57.7465C90.8562 57.6424 90.8589 57.5811 90.8594 57.5773C90.8688 57.4019 90.74 57.252 90.5724 57.2426C90.3989 57.2337 90.262 57.3671 90.2525 57.5424C90.2512 57.5688 90.2435 57.7376 90.2467 57.9945C90.2165 59.4181 89.9083 60.4307 89.3483 60.9295C88.8829 61.3434 88.3973 61.2694 88.3721 61.2656C88.2063 61.2354 88.0513 61.35 88.0211 61.522C88.018 61.5399 88.0171 61.5579 88.0171 61.5758C88.0171 61.5786 88.0166 61.5814 88.0166 61.5847V61.5857C88.0166 61.5876 88.0171 61.5894 88.0171 61.5909C88.0202 61.7634 88.1545 61.9025 88.3198 61.9025C88.6834 61.9025 88.9807 62.0354 89.2289 62.3093C89.93 63.0838 90.0255 64.7073 90.0313 65.4356C90.0304 65.495 90.0291 65.554 90.0291 65.6152C90.0291 65.6218 90.0304 65.6284 90.0309 65.6355C90.0295 65.7387 90.0264 65.7996 90.0264 65.8033C90.0174 65.9787 90.1458 66.1281 90.3129 66.138C90.3188 66.1385 90.3246 66.1385 90.33 66.1385C90.4904 66.1385 90.6242 66.0079 90.6328 65.8382C90.6346 65.8118 90.6427 65.6412 90.6395 65.3814C90.6697 63.9606 90.9783 62.949 91.5374 62.4512C92.0023 62.0373 92.488 62.1108 92.5137 62.1155C92.679 62.1448 92.8349 62.0307 92.8642 61.8591C92.8673 61.8407 92.8682 61.8228 92.8682 61.8049C92.8687 61.802 92.8691 61.7992 92.8691 61.7964V61.7954Z" fill="#00DC97"/>
<path fill-rule="evenodd" clip-rule="evenodd" d="M78.9004 16.5102C79.5134 18.0255 79.6598 19.687 79.3209 21.2848C78.9821 22.8826 78.1732 24.3449 76.9967 25.4867C75.8202 26.6285 74.3288 27.3986 72.7111 27.6996C71.0934 28.0006 69.4221 27.819 67.9084 27.1777C66.3948 26.5365 65.1068 25.4644 64.2073 24.0971C63.3078 22.7297 62.8372 21.1284 62.855 19.4958C62.8728 17.8631 63.3782 16.2723 64.3073 14.9246C65.2364 13.5768 66.5475 12.5326 68.0748 11.924C69.0892 11.5199 70.1738 11.3179 71.2669 11.3296C72.36 11.3413 73.44 11.5666 74.4453 11.9924C75.4506 12.4183 76.3614 13.0365 77.1259 13.8116C77.8903 14.5868 78.4933 15.5038 78.9004 16.5102Z" fill="#18448A"/>
<path fill-rule="evenodd" clip-rule="evenodd" d="M63.4676 22.9889C62.8388 21.4258 62.6912 19.7129 63.0435 18.0667C63.3957 16.4204 64.2321 14.9147 65.4467 13.7399C66.6614 12.5651 68.1999 11.7738 69.8678 11.4662C71.5357 11.1585 73.258 11.3483 74.8172 12.0115C76.3764 12.6747 77.7024 13.7815 78.6276 15.1921C79.5528 16.6027 80.0358 18.2538 80.0153 19.9366C79.9949 21.6194 79.472 23.2584 78.5128 24.6465C77.5536 26.0346 76.2011 27.1095 74.6263 27.7352C73.5795 28.1511 72.4604 28.3583 71.3329 28.3448C70.2053 28.3313 69.0915 28.0975 68.0552 27.6567C67.0188 27.2159 66.0802 26.5767 65.293 25.7758C64.5059 24.9748 63.8855 24.0278 63.4676 22.9889ZM74.4396 27.2696C75.9199 26.6779 77.1903 25.6643 78.0903 24.3568C78.9903 23.0493 79.4795 21.5066 79.4963 19.9235C79.513 18.3403 79.0565 16.7878 78.1844 15.4618C77.3122 14.1359 76.0636 13.0961 74.5961 12.4737C73.1287 11.8513 71.5082 11.6742 69.9394 11.9649C68.3705 12.2555 66.9237 13.0008 65.7815 14.1066C64.6394 15.2124 63.8532 16.6292 63.5222 18.178C63.1912 19.7268 63.3303 21.3382 63.9218 22.8086C64.3143 23.7891 64.898 24.683 65.6396 25.439C66.3813 26.195 67.2661 26.7983 68.2434 27.2142C69.2206 27.6301 70.2711 27.8504 71.3344 27.8625C72.3977 27.8746 73.453 27.6782 74.4396 27.2846V27.2696Z" fill="#00DC97"/>
<path fill-rule="evenodd" clip-rule="evenodd" d="M74.631 23.61C74.8271 22.9949 74.9408 22.357 74.9691 21.7125C75.4334 21.6073 75.8069 21.5773 76.1349 21.5272C75.8048 22.3313 75.2857 23.0453 74.6209 23.61H74.631ZM69.1248 24.2008C69.4528 23.9605 69.7657 23.7602 70.1089 23.5499C70.5668 24.0092 71.0865 24.4034 71.6533 24.7215C70.7818 24.7866 69.909 24.6134 69.1298 24.2208L69.1248 24.2008ZM68.176 15.8747C67.9798 16.4915 67.8661 17.1311 67.8378 17.7772C67.458 17.8494 67.0735 17.8946 66.6871 17.9124C67.0189 17.1221 67.5384 16.423 68.2012 15.8747H68.176ZM73.6216 15.2288C73.2935 15.4742 72.9958 15.7295 72.6829 15.8997C72.2333 15.4312 71.7121 15.0358 71.1385 14.7282C71.9946 14.6964 72.8459 14.868 73.6216 15.2288ZM74.3029 18.2328C74.0075 17.5874 73.6255 16.9845 73.1674 16.4405C73.5358 16.1851 73.9345 15.9398 74.2827 15.6244C74.9965 16.1322 75.5694 16.8108 75.9482 17.597L74.3029 18.2328ZM74.5654 18.8987L76.246 18.2479C76.4895 19.0602 76.5328 19.9188 76.3721 20.7512C75.9023 20.7853 75.4352 20.8505 74.9742 20.9464C74.9166 20.254 74.7794 19.5703 74.5654 18.9087V18.8987ZM72.5466 21.6123L71.8905 19.9401L73.9093 19.1591C74.1155 19.785 74.241 20.4344 74.2827 21.0916C73.778 21.2218 73.1674 21.4121 72.5466 21.5923V21.6123ZM73.556 24.1807L72.809 22.2832C73.3137 22.088 73.8184 21.9728 74.2625 21.8376C74.238 22.6682 73.9944 23.4778 73.556 24.1858V24.1807ZM72.1378 22.5386L72.8696 24.4111C72.0565 24.2143 71.3174 23.7903 70.7398 23.1894C71.1847 22.9452 71.6449 22.7295 72.1176 22.5436L72.1378 22.5386ZM69.1803 20.9865L71.1991 20.2055L71.8552 21.8777C71.2997 22.0866 70.7642 22.3446 70.2553 22.6487C69.812 22.1535 69.4493 21.5927 69.1803 20.9865ZM68.504 21.2468C68.7947 21.8777 69.1589 22.4725 69.5891 23.0192C69.1857 23.26 68.798 23.5259 68.4283 23.8153C67.7429 23.32 67.2001 22.6555 66.8537 21.8877L68.504 21.2468ZM68.2668 20.581L66.5862 21.2318C66.3304 20.3991 66.2888 19.5162 66.4651 18.6634C66.8436 18.6334 67.3331 18.5983 67.8429 18.5132C67.9038 19.2163 68.046 19.9101 68.2668 20.581ZM70.2856 17.8724L70.9417 19.5396L68.9229 20.3206C68.7142 19.6953 68.5886 19.0456 68.5494 18.388C69.1147 18.2479 69.6648 18.0726 70.2856 17.8874V17.8724ZM69.2762 15.2989L70.0231 17.2015C69.5447 17.3762 69.0538 17.5151 68.5545 17.617C68.5919 16.7959 68.8404 15.998 69.2762 15.2989ZM70.6944 16.9411L69.9474 15.0386C70.7528 15.2402 71.4841 15.6637 72.057 16.2602C71.6268 16.5316 71.1703 16.7597 70.6944 16.9411ZM70.9568 17.607C71.5043 17.3837 72.037 17.1261 72.5516 16.836C72.9713 17.349 73.324 17.9126 73.6014 18.5132L71.5826 19.2943L70.9265 17.622L70.9568 17.607ZM69.3065 14.4027C68.2418 14.8148 67.3242 15.5307 66.6696 16.4601C66.0151 17.3894 65.653 18.4904 65.6292 19.6239C65.6054 20.7573 65.9209 21.8723 66.5358 22.8279C67.1507 23.7836 68.0374 24.5368 69.0839 24.9925C70.1303 25.4482 71.2895 25.5859 72.4148 25.3881C73.5401 25.1903 74.581 24.666 75.4059 23.8814C76.2308 23.0968 76.8027 22.0871 77.0493 20.9801C77.2958 19.8731 77.206 18.7184 76.791 17.6621C76.229 16.2494 75.1271 15.1141 73.7252 14.5037C72.3234 13.8932 70.7352 13.8569 69.3065 14.4027Z" fill="white"/>
<g filter="url(#filter0_d_22541_62805)">
<rect x="44.0518" y="40.1006" width="30.2603" height="21.1822" rx="4" transform="rotate(-18.105 44.0518 40.1006)" fill="#18448A"/>
<rect width="4.53905" height="5.29556" rx="2" transform="matrix(0.950489 -0.310759 -0.310759 -0.950489 63.7988 59.1133)" fill="#18448A"/>
<rect width="16.6432" height="3.02603" rx="1.51302" transform="matrix(0.950489 -0.310759 -0.310759 -0.950489 58.5156 62.4326)" fill="#18448A"/>
<rect x="48.1553" y="42.2866" width="24.2083" height="15.1302" rx="2" transform="rotate(-18.105 48.1553 42.2866)" fill="#00DC97"/>
<path fill-rule="evenodd" clip-rule="evenodd" d="M58.7403 43.641L60.6771 49.5807L66.5916 44.5086L58.7403 43.641Z" fill="white"/>
</g>
<g filter="url(#filter1_d_22541_62805)">
<rect x="78.5811" y="27.1719" width="14.0093" height="9.80655" rx="4" transform="rotate(-3.07694 78.5811 27.1719)" fill="#18448A"/>
<rect width="2.1014" height="2.45164" rx="1.0507" transform="matrix(0.998558 -0.053677 -0.053677 -0.998558 85.1279 38.0435)" fill="#18448A"/>
<rect width="7.70514" height="1.40093" rx="0.700467" transform="matrix(0.998558 -0.053677 -0.053677 -0.998558 82.3672 38.8936)" fill="#18448A"/>
<rect x="80.1533" y="28.6421" width="11.2075" height="7.00468" rx="2" transform="rotate(-3.07694 80.1533 28.6421)" fill="#00DC97"/>
</g>
<g filter="url(#filter2_d_22541_62805)">
<rect x="81.8506" y="40.2583" width="14.0093" height="9.80655" rx="4" transform="rotate(9.72596 81.8506 40.2583)" fill="#18448A"/>
<rect width="2.1014" height="2.45164" rx="1.0507" transform="matrix(0.985627 0.168936 0.168936 -0.985627 85.8262 52.3105)" fill="#18448A"/>
<rect width="7.70514" height="1.40094" rx="0.700468" transform="matrix(0.985627 0.168936 0.168936 -0.985627 82.9453 52.5273)" fill="#18448A"/>
<rect x="83.0586" y="42.0405" width="11.2075" height="7.00468" rx="2" transform="rotate(9.72596 83.0586 42.0405)" fill="#00DC97"/>
</g>
<path fill-rule="evenodd" clip-rule="evenodd" d="M53.6628 30.0665C52.2546 29.4438 50.5672 29.429 49.0339 30.0258C48.906 30.0755 48.7795 30.1294 48.6546 30.1872C47.2716 30.8277 46.13 31.9209 45.4398 33.2662C45.2801 33.5805 45.3964 33.9422 45.6991 34.0725C45.8574 34.1406 46.0445 34.1351 46.2121 34.0576C46.3543 33.9917 46.4718 33.8789 46.543 33.74C47.0906 32.6731 47.9969 31.8056 49.0948 31.2974C49.1936 31.2515 49.2935 31.2086 49.3948 31.1696C50.6119 30.696 51.9506 30.708 53.0681 31.2017C53.2275 31.2721 53.4164 31.2674 53.586 31.189C53.7261 31.1237 53.8429 31.0129 53.9139 30.8777C53.9229 30.8605 53.9313 30.8429 53.9373 30.8282C54.0665 30.5263 53.946 30.1915 53.6628 30.0665Z" fill="#18448A"/>
<path fill-rule="evenodd" clip-rule="evenodd" d="M56.6193 26.4587C53.9562 24.7688 50.4073 24.5127 47.3569 25.7902C47.2209 25.8472 47.0867 25.9072 46.9531 25.9698C44.0985 27.3118 41.7393 30.0383 40.797 33.0862C40.6856 33.4469 40.8743 33.815 41.2178 33.9067C41.3604 33.9452 41.5163 33.9296 41.6567 33.8634C41.8411 33.7765 41.9821 33.6147 42.0426 33.4187C42.8661 30.7534 44.93 28.3679 47.4283 27.1937C47.5448 27.1391 47.6621 27.0868 47.7802 27.0375C50.4483 25.9199 53.5526 26.1437 55.8819 27.6216C56.0602 27.7353 56.2875 27.7467 56.4894 27.6517C56.6124 27.594 56.717 27.5011 56.7905 27.3844C56.816 27.3453 56.8371 27.3039 56.8534 27.2627C56.9749 26.9599 56.8763 26.6219 56.6193 26.4587Z" fill="#18448A"/>
<mask id="mask1_22541_62805" style="mask-type:luminance" maskUnits="userSpaceOnUse" x="35" y="18" width="26" height="16">
<path fill-rule="evenodd" clip-rule="evenodd" d="M35.3613 26.5352L58.2263 18.8672L60.0919 26.116L37.2269 33.7839L35.3613 26.5352Z" fill="white"/>
</mask>
<g mask="url(#mask1_22541_62805)">
<path fill-rule="evenodd" clip-rule="evenodd" d="M59.1664 24.7149C58.9781 24.8026 58.7671 24.7947 58.6024 24.6945C55.208 22.6373 50.6618 22.3728 46.7379 24.0041C46.5643 24.0764 46.3912 24.1525 46.22 24.2319C42.5439 25.9405 39.4884 29.3597 38.2465 33.1553C38.1889 33.3319 38.0568 33.479 37.8839 33.5593C37.7529 33.6204 37.608 33.6359 37.4765 33.6035C37.158 33.5249 36.9859 33.1953 37.0921 32.8697C38.4478 28.7291 41.7807 24.9993 45.7894 23.1363C45.9766 23.0494 46.1645 22.9662 46.355 22.8873C50.6357 21.1079 55.5947 21.3964 59.297 23.6404C59.5345 23.7841 59.6229 24.0873 59.5076 24.3609C59.4919 24.3987 59.4721 24.4353 59.4499 24.4687C59.3783 24.5778 59.2808 24.6616 59.1664 24.7149Z" fill="#18448A"/>
</g>
<defs>
<filter id="filter0_d_22541_62805" x="44.0957" y="31.2407" width="34.2568" height="30.7969" filterUnits="userSpaceOnUse" color-interpolation-filters="sRGB">
<feFlood flood-opacity="0" result="BackgroundImageFix"/>
<feColorMatrix in="SourceAlpha" type="matrix" values="0 0 0 0 0 0 0 0 0 0 0 0 0 0 0 0 0 0 127 0" result="hardAlpha"/>
<feOffset dx="-1" dy="-0.5"/>
<feComposite in2="hardAlpha" operator="out"/>
<feColorMatrix type="matrix" values="0 0 0 0 0 0 0 0 0 0.862745 0 0 0 0 0.592157 0 0 0 1 0"/>
<feBlend mode="normal" in2="BackgroundImageFix" result="effect1_dropShadow_22541_62805"/>
<feBlend mode="normal" in="SourceGraphic" in2="effect1_dropShadow_22541_62805" result="shape"/>
</filter>
<filter id="filter1_d_22541_62805" x="77.79" y="26.1289" width="15.0977" height="12.728" filterUnits="userSpaceOnUse" color-interpolation-filters="sRGB">
<feFlood flood-opacity="0" result="BackgroundImageFix"/>
<feColorMatrix in="SourceAlpha" type="matrix" values="0 0 0 0 0 0 0 0 0 0 0 0 0 0 0 0 0 0 127 0" result="hardAlpha"/>
<feOffset dx="-1" dy="-0.5"/>
<feComposite in2="hardAlpha" operator="out"/>
<feColorMatrix type="matrix" values="0 0 0 0 0 0 0 0 0 0.862745 0 0 0 0 0.592157 0 0 0 1 0"/>
<feBlend mode="normal" in2="BackgroundImageFix" result="effect1_dropShadow_22541_62805"/>
<feBlend mode="normal" in="SourceGraphic" in2="effect1_dropShadow_22541_62805" result="shape"/>
</filter>
<filter id="filter2_d_22541_62805" x="79.8115" y="40.376" width="15.2295" height="13.3447" filterUnits="userSpaceOnUse" color-interpolation-filters="sRGB">
<feFlood flood-opacity="0" result="BackgroundImageFix"/>
<feColorMatrix in="SourceAlpha" type="matrix" values="0 0 0 0 0 0 0 0 0 0 0 0 0 0 0 0 0 0 127 0" result="hardAlpha"/>
<feOffset dx="-1" dy="-0.5"/>
<feComposite in2="hardAlpha" operator="out"/>
<feColorMatrix type="matrix" values="0 0 0 0 0 0 0 0 0 0.862745 0 0 0 0 0.592157 0 0 0 1 0"/>
<feBlend mode="normal" in2="BackgroundImageFix" result="effect1_dropShadow_22541_62805"/>
<feBlend mode="normal" in="SourceGraphic" in2="effect1_dropShadow_22541_62805" result="shape"/>
</filter>
</defs>
</svg>
