<svg width="80" height="80" viewBox="0 0 80 80" fill="none" xmlns="http://www.w3.org/2000/svg">
<path d="M48.4634 24.7764L49.1706 24.0694L49.1705 24.0693L48.4634 24.7764ZM48.4634 27.6045L49.1704 28.3117L49.1705 28.3116L48.4634 27.6045ZM42.2632 33.8037L41.5561 33.0965L40.9888 33.6638L41.4196 34.3406L42.2632 33.8037ZM47.8657 42.6064L48.7094 42.0695L48.7093 42.0695L47.8657 42.6064ZM48.6372 43.4961L47.9864 44.2554L48.6372 43.4961ZM69.186 61.1094L69.8369 60.3502L69.8368 60.3501L69.186 61.1094ZM71.0151 66.8467L71.9853 67.0892L71.9853 67.0892L71.0151 66.8467ZM66.8472 71.0137L67.0897 71.9838L67.0897 71.9838L66.8472 71.0137ZM61.1099 69.1846L61.8691 68.5338L61.8691 68.5338L61.1099 69.1846ZM43.4966 48.6367L42.7373 49.2875L42.7373 49.2875L43.4966 48.6367ZM42.6069 47.8652L42.07 48.7089L42.07 48.7089L42.6069 47.8652ZM33.8042 42.2627L34.3411 41.4191L33.6643 40.9883L33.097 41.5556L33.8042 42.2627ZM27.604 48.4639L28.3111 49.171L28.3112 49.1709L27.604 48.4639ZM24.7749 48.4639L24.0678 49.171L24.7749 48.4639ZM22.8052 46.4941L22.0981 45.787L21.3909 46.4941L22.0981 47.2012L22.8052 46.4941ZM46.4937 22.8066L47.2008 22.0995L46.4937 21.3924L45.7866 22.0995L46.4937 22.8066ZM48.4634 24.7764L47.7562 25.4834C48.1467 25.874 48.1466 26.507 47.7563 26.8974L48.4634 27.6045L49.1705 28.3116C50.3421 27.14 50.3417 25.2408 49.1706 24.0694L48.4634 24.7764ZM48.4634 27.6045L47.7563 26.8973L41.5561 33.0965L42.2632 33.8037L42.9702 34.5109L49.1704 28.3117L48.4634 27.6045ZM42.2632 33.8037L41.4196 34.3406L47.0221 43.1434L47.8657 42.6064L48.7093 42.0695L43.1068 33.2668L42.2632 33.8037ZM47.8657 42.6064L47.0221 43.1434C47.2868 43.5593 47.6118 43.9342 47.9864 44.2554L48.6372 43.4961L49.288 42.7368C49.0634 42.5444 48.8683 42.3193 48.7094 42.0695L47.8657 42.6064ZM48.6372 43.4961L47.9864 44.2554L68.5352 61.8686L69.186 61.1094L69.8368 60.3501L49.288 42.7368L48.6372 43.4961ZM69.186 61.1094L68.5352 61.8686C69.8946 63.034 70.4792 64.8673 70.045 66.6042L71.0151 66.8467L71.9853 67.0892C72.6032 64.6172 71.7712 62.0084 69.8369 60.3502L69.186 61.1094ZM71.0151 66.8467L70.045 66.6041C69.6216 68.2977 68.2987 69.62 66.6046 70.0435L66.8472 71.0137L67.0897 71.9838C69.4998 71.3813 71.3826 69.4999 71.9853 67.0892L71.0151 66.8467ZM66.8472 71.0137L66.6047 70.0435C64.8675 70.4777 63.0344 69.8933 61.8691 68.5338L61.1099 69.1846L60.3506 69.8354C62.0089 71.77 64.6176 72.6018 67.0897 71.9838L66.8472 71.0137ZM61.1099 69.1846L61.8691 68.5338L44.2558 47.9859L43.4966 48.6367L42.7373 49.2875L60.3506 69.8354L61.1099 69.1846ZM43.4966 48.6367L44.2558 47.9859C43.9347 47.6113 43.5598 47.2863 43.1438 47.0216L42.6069 47.8652L42.07 48.7089C42.3199 48.8679 42.5448 49.0629 42.7373 49.2875L43.4966 48.6367ZM42.6069 47.8652L43.1439 47.0216L34.3411 41.4191L33.8042 42.2627L33.2673 43.1063L42.07 48.7089L42.6069 47.8652ZM33.8042 42.2627L33.097 41.5556L26.8968 47.7568L27.604 48.4639L28.3112 49.1709L34.5114 42.9697L33.8042 42.2627ZM27.604 48.4639L26.8969 47.7568C26.5064 48.1473 25.8725 48.1473 25.482 47.7568L24.7749 48.4639L24.0678 49.171C25.2394 50.3425 27.1395 50.3425 28.3111 49.171L27.604 48.4639ZM24.7749 48.4639L25.482 47.7568L23.5123 45.787L22.8052 46.4941L22.0981 47.2012L24.0678 49.171L24.7749 48.4639ZM22.8052 46.4941L23.5123 47.2013L47.2007 23.5138L46.4937 22.8066L45.7866 22.0995L22.0981 45.787L22.8052 46.4941ZM46.4937 22.8066L45.7865 23.5137L47.7563 25.4835L48.4634 24.7764L49.1705 24.0693L47.2008 22.0995L46.4937 22.8066Z" fill="white"/>
<path d="M21.9591 45.6473L45.6473 21.9591L31.6882 8L29.1873 10.6857L34.6873 20.6857L26.6121 13.076L9.17157 30.5166C8.42143 31.2667 8 32.2842 8 33.345V52.5548C8 53.7331 8.95513 54.6882 10.1333 54.6882C11.3115 54.6882 12.2667 53.733 12.2667 52.5548V51.4437C12.2667 50.4128 13.1024 49.5771 14.1333 49.5771C15.1643 49.5771 16 48.7413 16 47.7104L16 42.2294C16 41.3458 17.0621 40.8964 17.6963 41.5117L21.9591 45.6473Z" stroke="white" stroke-width="2"/>
</svg>
