<svg width="24" height="24" viewBox="0 0 24 24" fill="none" xmlns="http://www.w3.org/2000/svg">
<path fill-rule="evenodd" clip-rule="evenodd" d="M17.2254 4C17.5305 4 17.7773 4.24678 17.7773 4.55182V5.11978H19.9236C20.7815 5.11979 21.4789 5.81722 21.4789 6.67521L21.4788 18.4447C21.4788 19.3026 20.7815 20 19.9235 20L3.5553 19.9999C2.69745 19.9999 2 19.3026 2 18.4446V6.67508C2 5.81723 2.6973 5.11978 3.5553 5.11978H5.70165V4.55182C5.70166 4.2468 5.94846 4 6.25347 4C6.5585 4 6.80531 4.24678 6.80532 4.55182V5.11978H16.6736V4.55182C16.6736 4.2468 16.9204 4 17.2254 4Z" fill="black"/>
<circle cx="6.5" cy="12.5" r="1.5" fill="white"/>
<circle cx="11.5" cy="12.5" r="1.5" fill="white"/>
<circle cx="16.5" cy="12.5" r="1.5" fill="white"/>
</svg>
