<svg xmlns="http://www.w3.org/2000/svg" width="24" height="24" viewBox="0 0 24 24" fill="none">
  <path d="M16.5 12C17.3284 12 18 12.6716 18 13.5C18 14.3284 17.3284 15 16.5 15C15.6716 15 15 14.3284 15 13.5C15 12.6716 15.6716 12 16.5 12Z" fill="black"/>
  <path fill-rule="evenodd" clip-rule="evenodd" d="M8 2C8.55228 2 9 2.44772 9 3H15C15 2.44772 15.4477 2 16 2H17C17.5523 2 18 2.44772 18 3H19C20.6569 3 22 4.34315 22 6L21.9961 19.1543C21.9961 20.5 20.5 21.9961 19.1543 21.9961L17.5 22H8L4.8457 21.9961C3.5 21.9961 2.00391 20.5 2.00391 19.1543L2 6C2 4.34315 3.34315 3 5 3H6C6 2.44772 6.44772 2 7 2H8ZM4 19C4 19.5523 4.44772 20 5 20H19C19.5523 20 20 19.5523 20 19V10H4V19Z" fill="black"/>
</svg>