<svg width="24" height="24" viewBox="0 0 24 24" fill="none" xmlns="http://www.w3.org/2000/svg">
<path fill-rule="evenodd" clip-rule="evenodd" d="M12 2C17.5228 2 22 6.47715 22 12C22 17.5228 17.5228 22 12 22C6.47715 22 2 17.5228 2 12C2 6.47715 6.47715 2 12 2ZM12 4.5C11.4477 4.5 11 4.94772 11 5.5V11.5859C11 12.1163 11.2109 12.625 11.5859 13L14.293 15.707L14.3691 15.7754C14.7619 16.0957 15.3409 16.0731 15.707 15.707C16.0731 15.3409 16.0957 14.7619 15.7754 14.3691L15.707 14.293L13 11.5859V5.5C13 4.94772 12.5523 4.5 12 4.5Z" fill="white"/>
</svg>
