<svg width="64" height="64" viewBox="0 0 64 64" fill="none" xmlns="http://www.w3.org/2000/svg">
<path d="M28.63 6.26649C30.8651 4.37992 34.1349 4.37992 36.37 6.26649L39.9402 9.27986C40.8902 10.0817 42.0658 10.5687 43.3046 10.6734L47.9598 11.0671C50.8743 11.3136 53.1864 13.6257 53.4329 16.5402L53.8266 21.1954C53.9313 22.4342 54.4183 23.6098 55.2201 24.5598L58.2335 28.13C60.1201 30.3651 60.1201 33.6349 58.2335 35.87L55.2201 39.4402C54.4183 40.3902 53.9313 41.5658 53.8266 42.8046L53.4329 47.4598C53.1864 50.3743 50.8743 52.6864 47.9598 52.9329L43.3046 53.3266C42.0658 53.4313 40.8902 53.9183 39.9402 54.7201L36.37 57.7335C34.1349 59.6201 30.8651 59.6201 28.63 57.7335L25.0598 54.7201C24.1098 53.9183 22.9342 53.4313 21.6954 53.3266L17.0402 52.9329C14.1257 52.6864 11.8136 50.3743 11.5671 47.4598L11.1734 42.8046C11.0687 41.5658 10.5817 40.3902 9.77986 39.4402L6.76649 35.87C4.87992 33.6349 4.87992 30.3651 6.76649 28.13L9.77986 24.5598C10.5817 23.6098 11.0687 22.4342 11.1734 21.1954L11.5671 16.5402C11.8136 13.6257 14.1257 11.3136 17.0402 11.0671L21.6954 10.6734C22.9342 10.5687 24.1098 10.0817 25.0598 9.27986L28.63 6.26649Z" fill="#FA2525"/>
<path d="M23.5 41L41.5 23" stroke="white" stroke-width="4"/>
<path d="M41.5 41L23.5 23" stroke="white" stroke-width="4"/>
</svg>
