<svg width="80" height="80" viewBox="0 0 80 80" fill="none" xmlns="http://www.w3.org/2000/svg">
<circle cx="40" cy="20.5" r="13" stroke="white" stroke-width="2"/>
<path d="M39.15 27.346V25.4C38.6273 25.3253 38.142 25.176 37.694 24.952C37.246 24.728 36.8727 24.4153 36.574 24.014C36.2847 23.6033 36.0933 23.0947 36 22.488H37.778C37.89 22.852 38.0673 23.1367 38.31 23.342C38.562 23.5473 38.8513 23.692 39.178 23.776C39.514 23.86 39.8593 23.902 40.214 23.902C40.5407 23.902 40.8393 23.86 41.11 23.776C41.39 23.692 41.614 23.5567 41.782 23.37C41.9593 23.1833 42.048 22.9453 42.048 22.656C42.048 22.4133 41.992 22.2173 41.88 22.068C41.7773 21.9187 41.6327 21.7973 41.446 21.704C41.2687 21.6107 41.0587 21.5313 40.816 21.466C40.4427 21.354 40.0787 21.2653 39.724 21.2C39.3787 21.1253 39.0473 21.046 38.73 20.962C38.422 20.878 38.128 20.7707 37.848 20.64C37.3907 20.416 37.022 20.1173 36.742 19.744C36.4713 19.3707 36.336 18.8573 36.336 18.204C36.336 17.616 36.4713 17.126 36.742 16.734C37.0127 16.3327 37.3673 16.0247 37.806 15.81C38.2447 15.586 38.716 15.4553 39.22 15.418V13.5H40.858V15.446C41.362 15.502 41.8147 15.6467 42.216 15.88C42.6173 16.1133 42.9393 16.4307 43.182 16.832C43.4247 17.224 43.5507 17.7 43.56 18.26H41.852C41.824 17.952 41.7167 17.7 41.53 17.504C41.3527 17.308 41.124 17.168 40.844 17.084C40.564 16.9907 40.256 16.944 39.92 16.944C39.6307 16.944 39.3413 16.9813 39.052 17.056C38.772 17.1213 38.5387 17.2427 38.352 17.42C38.1747 17.588 38.086 17.8307 38.086 18.148C38.086 18.344 38.1327 18.5213 38.226 18.68C38.3193 18.8293 38.4453 18.9553 38.604 19.058C38.7627 19.1607 38.9447 19.2447 39.15 19.31C39.4953 19.4407 39.878 19.548 40.298 19.632C40.718 19.716 41.11 19.814 41.474 19.926C41.95 20.0567 42.3607 20.22 42.706 20.416C43.0607 20.6027 43.3313 20.8593 43.518 21.186C43.714 21.5033 43.812 21.9187 43.812 22.432C43.812 23.0853 43.6767 23.622 43.406 24.042C43.1353 24.462 42.7713 24.7887 42.314 25.022C41.8567 25.2553 41.348 25.3953 40.788 25.442V27.346H39.15Z" fill="white"/>
<path d="M18.9911 39.1696L20.442 38.3951C22.0615 37.46 24.1201 37.8365 25.3038 39.2842L29.247 44.1065L33.9213 52.2027L32.2453 58.4577L37.2059 67.0496L27.2921 72.7733L22.3316 64.1814L12.908 52.4382L9 35.7483L12.2536 21.8246C12.5571 20.5257 13.8756 19.7359 15.164 20.0811C16.2261 20.3657 16.9512 21.3457 16.9127 22.4445L16.6005 31.3601L18.9911 39.1696ZM18.9911 39.1696L24.1573 49.0278M33.4412 61.2917L23.8579 66.8246M61.3627 39.1696L59.9118 38.3951C58.2923 37.46 56.2337 37.8365 55.0499 39.2842L51.1068 44.1065L46.4325 52.2027L48.1085 58.4577L43.1479 67.0496L53.0617 72.7733L58.0222 64.1814L67.4458 52.4382L71.3538 35.7483L68.1002 21.8246C67.7967 20.5257 66.4782 19.7359 65.1898 20.0811C64.1277 20.3657 63.4026 21.3457 63.4411 22.4445L63.7533 31.3601L61.3627 39.1696ZM61.3627 39.1696L56.1965 49.0278M46.9126 61.2917L56.4958 66.8246" stroke="white" stroke-width="2"/>
</svg>
