<svg width="80" height="80" viewBox="0 0 80 80" fill="none" xmlns="http://www.w3.org/2000/svg">
<path fill-rule="evenodd" clip-rule="evenodd" d="M52 65H44V57H52V65ZM46 63H50V59H46V63Z" fill="white"/>
<path fill-rule="evenodd" clip-rule="evenodd" d="M48.9834 47.0615C52.9376 47.5463 56 50.9147 56 55V75H26V55C26 50.8962 29.0901 47.5154 33.0703 47.0547L33.0303 47H49.0312L48.9834 47.0615ZM34 49C30.6863 49 28 51.6863 28 55V73H40V56.5371L34.4922 49H34ZM42 56.1396V73H54V55C54 51.6863 51.3137 49 48 49H47.4922L42 56.1396ZM40.8662 54.333L44.9688 49H36.9697L40.8662 54.333Z" fill="white"/>
<path fill-rule="evenodd" clip-rule="evenodd" d="M30.9834 24.0615C32.9871 24.3072 34.7611 25.2937 36.0244 26.7383C35.4776 27.1247 34.9726 27.566 34.5195 28.0566C33.4196 26.7971 31.8035 26 30 26H29.4922L24 33.1396V50H24.2021C23.8779 50.6336 23.6135 51.3025 23.416 52H8V32C8 27.8962 11.0901 24.5154 15.0703 24.0547L15.0303 24H31.0312L30.9834 24.0615ZM16 26C12.6863 26 10 28.6863 10 32V50H22V33.5371L16.4922 26H16ZM22.8662 31.333L26.9688 26H18.9697L22.8662 31.333Z" fill="white"/>
<path fill-rule="evenodd" clip-rule="evenodd" d="M69 42H61V34H69V42ZM63 40H67V36H63V40Z" fill="white"/>
<path fill-rule="evenodd" clip-rule="evenodd" d="M65.9834 24.0615C69.9376 24.5463 73 27.9147 73 32V52H58.584C58.2431 50.7959 57.7029 49.6763 57 48.6787V33.5371L51.4922 26H51C49.6914 26 48.4812 26.4198 47.4951 27.1309C46.9512 26.6879 46.3567 26.3055 45.7227 25.9902C46.9123 24.9452 48.4137 24.2464 50.0703 24.0547L50.0303 24H66.0312L65.9834 24.0615ZM59 33.1396V50H71V32C71 28.6863 68.3137 26 65 26H64.4922L59 33.1396ZM57.8662 31.333L61.9688 26H53.9697L57.8662 31.333Z" fill="white"/>
<path fill-rule="evenodd" clip-rule="evenodd" d="M41.5 28C45.0899 28 48 30.9101 48 34.5V39.5C48 43.0899 45.0899 46 41.5 46C37.9101 46 35 43.0899 35 39.5V34.5C35 30.9101 37.9101 28 41.5 28ZM41.5 30C39.0147 30 37 32.0147 37 34.5V39.5C37 41.9853 39.0147 44 41.5 44C43.9853 44 46 41.9853 46 39.5V34.5C46 32.0147 43.9853 30 41.5 30Z" fill="white"/>
<path d="M32 34.5V36H28V40H32V39.5C32 40.3654 32.1171 41.2033 32.334 42H26V34H32.0137C32.0051 34.1656 32 34.3323 32 34.5Z" fill="white"/>
<path fill-rule="evenodd" clip-rule="evenodd" d="M23.5 5C27.0899 5 30 7.91015 30 11.5V16.5C30 20.0899 27.0899 23 23.5 23C19.9101 23 17 20.0899 17 16.5V11.5C17 7.91015 19.9101 5 23.5 5ZM23.5 7C21.0147 7 19 9.01472 19 11.5V16.5C19 18.9853 21.0147 21 23.5 21C25.9853 21 28 18.9853 28 16.5V11.5C28 9.01472 25.9853 7 23.5 7Z" fill="white"/>
<path fill-rule="evenodd" clip-rule="evenodd" d="M58.5 5C62.0899 5 65 7.91015 65 11.5V16.5C65 20.0899 62.0899 23 58.5 23C54.9101 23 52 20.0899 52 16.5V11.5C52 7.91015 54.9101 5 58.5 5ZM58.5 7C56.0147 7 54 9.01472 54 11.5V16.5C54 18.9853 56.0147 21 58.5 21C60.9853 21 63 18.9853 63 16.5V11.5C63 9.01472 60.9853 7 58.5 7Z" fill="white"/>
</svg>
