<svg width="80" height="80" viewBox="0 0 80 80" fill="none" xmlns="http://www.w3.org/2000/svg">
<path d="M72.8277 28.518L54.3091 10L46.7075 17.4951C45.1557 18.852 43.7524 18.9995 41.9761 19.186C41.0298 19.2856 40.0518 19.3881 38.981 19.6904C38.1864 19.9144 37.4928 20.1448 36.873 20.3857L26.5176 10.0005L8 28.5185L17.5851 38.1353C17.4298 38.2494 17.2742 38.3634 17.1338 38.5038L16.0928 39.5448C15.3692 40.2684 14.9712 41.2333 14.9712 42.2616C14.9712 43.2899 15.3696 44.2548 16.0918 44.9764L16.3501 45.2352C17.0732 45.9588 18.0381 46.3573 19.0664 46.3573C19.1339 46.3573 19.1981 46.3414 19.2649 46.338C19.2106 47.3874 19.5694 48.4543 20.3691 49.2547L20.6259 49.5106C21.3749 50.2596 22.3583 50.6346 23.3427 50.6346C23.4095 50.6346 23.4754 50.619 23.5421 50.6156C23.5387 50.6822 23.5229 50.7462 23.5229 50.8134C23.5229 51.8417 23.9213 52.8066 24.6435 53.5282L24.9018 53.787C25.6249 54.5106 26.5898 54.9091 27.6181 54.9091C27.6855 54.9091 27.7497 54.8932 27.8165 54.8898C27.7621 55.9389 28.1205 57.0052 28.9193 57.8046L29.1776 58.0634C29.9266 58.8124 30.91 59.1864 31.8939 59.1864C32.8778 59.1864 33.8617 58.8114 34.6112 58.0634L35.4994 57.1747C35.692 56.9821 35.8571 56.7703 36.0022 56.5468L40.4095 60.9667C41.1937 61.7509 42.224 62.1435 43.2552 62.1435C44.2855 62.1435 45.3157 61.7519 46.0999 60.9677C46.9563 60.1108 47.328 58.9618 47.2491 57.8388C47.3436 57.8453 47.435 57.8661 47.5306 57.8661C48.6077 57.8661 49.6175 57.4491 50.3753 56.6913C51.1331 55.9335 51.5501 54.9237 51.5501 53.8466C51.5502 53.7499 51.5292 53.6577 51.5226 53.5622C51.6177 53.5688 51.7096 53.5897 51.8059 53.5897C52.884 53.5897 53.8938 53.1727 54.6516 52.4149C55.4094 51.6571 55.8264 50.6473 55.8264 49.5702C55.8264 49.4747 55.8056 49.3835 55.7991 49.2892C55.8938 49.2959 55.9874 49.3163 56.0822 49.3163C57.1125 49.3163 58.1427 48.9237 58.9269 48.1395C59.6847 47.3827 60.1027 46.3719 60.1027 45.2948C60.1027 44.2177 59.6857 43.2069 58.9279 42.4491L58.8996 42.4207L72.8277 28.518ZM54.3091 12.8281L69.9995 28.518L65.3442 33.1723L49.6548 17.4829L54.3091 12.8281ZM26.5176 12.8286L31.1724 17.4834L15.4824 33.1728L10.8281 28.5185L26.5176 12.8286ZM17.7652 43.8222L17.5069 43.5634C17.1612 43.2177 16.9713 42.7558 16.9713 42.2616C16.9713 41.7674 17.1617 41.3046 17.5069 40.9589L18.5479 39.9179C18.9068 39.5595 19.378 39.3798 19.8492 39.3798C20.3214 39.3798 20.7935 39.5595 21.1529 39.9198L21.4097 40.1757C21.7549 40.5214 21.9453 40.9843 21.9453 41.4784C21.9453 41.9725 21.7554 42.4345 21.4097 42.7802L20.3687 43.8212C19.6773 44.5127 18.4546 44.5117 17.7652 43.8222ZM22.0396 48.0957L21.7828 47.8398C21.065 47.122 21.065 45.9531 21.7828 45.2353L22.8238 44.1943L24.7965 42.2216C25.1554 41.8622 25.6271 41.6835 26.0987 41.6835C26.5699 41.6835 27.0416 41.8622 27.4 42.2206L27.6583 42.4794C28.004 42.8251 28.1939 43.287 28.1939 43.7812C28.1939 44.2754 28.004 44.7382 27.6583 45.0839L26.669 46.0732L24.6446 48.0976C23.9258 48.8144 22.7574 48.8164 22.0396 48.0957ZM26.3169 52.374L26.0586 52.1152C25.7129 51.7695 25.523 51.3076 25.523 50.8134C25.523 50.3192 25.7129 49.8573 26.0586 49.5116L28.083 47.4872C28.4287 47.1415 28.8911 46.9511 29.3852 46.9511C29.8793 46.9511 30.3417 47.1415 30.6879 47.4882L30.9447 47.7441C31.2899 48.0898 31.4803 48.5527 31.4803 49.0468C31.4803 49.5409 31.2904 50.0029 30.9447 50.3486L28.9203 52.373C28.229 53.0644 27.0064 53.0635 26.3169 52.374ZM34.085 55.7607L33.1968 56.6494C32.478 57.3662 31.3096 57.3672 30.5928 56.6504L30.3345 56.3916C29.6167 55.6738 29.6167 54.5049 30.3345 53.7871L31.2232 52.8984C31.5826 52.539 32.0543 52.3593 32.5259 52.3593C32.9975 52.3593 33.4688 52.539 33.8272 52.8974L34.0855 53.1562C34.4307 53.5019 34.6211 53.9638 34.6211 54.458C34.6211 54.9522 34.4307 55.415 34.085 55.7607ZM57.5132 46.7256C56.7251 47.5137 55.4419 47.5156 54.6519 46.7256L50.7437 42.8174C50.3531 42.4268 49.7203 42.4268 49.3296 42.8174C48.9389 43.208 48.939 43.8408 49.3296 44.2315L53.2378 48.1397C54.0269 48.9288 54.0269 50.212 53.2378 51.001C52.4487 51.7891 51.1646 51.791 50.3755 51.001L46.4683 47.0938C46.0777 46.7032 45.4449 46.7032 45.0542 47.0938C44.6635 47.4844 44.6636 48.1172 45.0542 48.5079L48.9614 52.4151C49.3413 52.795 49.5503 53.3028 49.5503 53.8458C49.5503 54.3888 49.3413 54.8976 48.9614 55.2774C48.1723 56.0665 46.8891 56.0665 46.1001 55.2774L42.1919 51.3692C41.8013 50.9786 41.1685 50.9786 40.7778 51.3692C40.3871 51.7598 40.3872 52.3926 40.7778 52.7833L44.686 56.6915C45.4751 57.4806 45.4741 58.7647 44.686 59.5538C43.8969 60.3429 42.6137 60.3409 41.8247 59.5538L36.6851 54.3995C36.6631 54.3773 36.634 54.3694 36.6106 54.3498C36.5831 53.3629 36.1968 52.4392 35.5006 51.7433L35.2423 51.4845C34.6848 50.9272 33.9651 50.5894 33.2088 50.4611C33.3839 50.0168 33.4806 49.5402 33.4806 49.047C33.4806 48.0187 33.0827 47.0538 32.3585 46.3292L32.1017 46.0733C31.5205 45.4917 30.7613 45.1552 29.9688 45.0411C30.1075 44.6401 30.194 44.2191 30.194 43.7813C30.194 42.753 29.7956 41.7881 29.0734 41.0665L28.8151 40.8077C27.4448 39.4383 25.2993 39.3358 23.7959 40.4699C23.6232 39.831 23.3027 39.2405 22.8234 38.7608L22.5666 38.5049C21.7689 37.7074 20.7056 37.3475 19.6586 37.3992L19.6652 37.3926L16.8894 34.5942L32.5834 18.9006L34.956 21.2927C33.4015 22.1854 32.3519 23.2494 30.9796 24.6475C30.6783 24.9546 27.6984 27.94 27.6984 27.94C26.13 29.5084 26.13 32.0611 27.6984 33.6299C28.4826 34.4146 29.5129 34.8067 30.5436 34.8067C31.5739 34.8067 32.6041 34.4146 33.3883 33.6299L37.34 29.6782C38.2736 28.7446 40.5856 29.792 43.2643 31.0044C44.1008 31.3832 44.9868 31.7828 45.9097 32.1607C45.9483 32.2218 45.9759 32.288 46.029 32.3413L57.5144 43.8633C57.8943 44.2432 58.1033 44.751 58.1033 45.294C58.1033 45.837 57.8931 46.3457 57.5132 46.7256ZM57.4881 41.0044L50.0072 33.499C51.9235 33.9283 53.932 34.0556 55.9722 33.5816C56.5103 33.4571 56.8452 32.92 56.7212 32.3819C56.5962 31.8433 56.0581 31.5113 55.521 31.6334C51.5435 32.5528 47.5815 30.7638 44.0884 29.1827C40.7349 27.6646 37.8374 26.3526 35.9258 28.2642L31.9741 32.2159C31.1855 33.0045 29.9018 33.0055 29.1123 32.2159C28.3237 31.4268 28.3237 30.1431 29.1123 29.3541C29.1123 29.3541 32.1011 26.36 32.4072 26.0484C34.5996 23.8145 35.7002 22.6934 39.5239 21.6153C40.4301 21.3594 41.3227 21.2657 42.186 21.1754C44.0581 20.9781 45.9946 20.775 48.0239 19.0011L48.1951 18.8515L63.9294 34.5858L57.4881 41.0044Z" fill="white"/>
</svg>
