<svg xmlns="http://www.w3.org/2000/svg" width="99" height="99" viewBox="0 0 99 99" fill="none">
  <path d="M90.5 49.5C90.5 72.1437 72.1437 90.5 49.5 90.5C39.6305 90.5 30.5756 87.0128 23.5 81.2033M8.5 49.5C8.5 26.8563 26.8563 8.5 49.5 8.5C61.0829 8.5 71.5439 13.3031 79 21.0263" stroke="#38D200" stroke-width="5"/>
  <path d="M49.5 1.5C76.0097 1.5 97.5 22.9903 97.5 49.5C97.5 76.0097 76.0097 97.5 49.5 97.5C22.9903 97.5 1.5 76.0097 1.5 49.5C1.5 22.9903 22.9903 1.5 49.5 1.5ZM49.5 15.5C30.7223 15.5 15.5 30.7223 15.5 49.5C15.5 68.2777 30.7223 83.5 49.5 83.5C68.2777 83.5 83.5 68.2777 83.5 49.5C83.5 30.7223 68.2777 15.5 49.5 15.5Z" stroke="white" stroke-width="3"/>
</svg>