<svg width="80" height="80" viewBox="0 0 80 80" fill="none" xmlns="http://www.w3.org/2000/svg">
<path d="M30.8082 3.93853L76.063 49.1934L49.193 76.0634L3.93814 30.8086L30.8082 3.93853Z" stroke="white" stroke-width="2"/>
<circle cx="40.0005" cy="40.0017" r="10" transform="rotate(45 40.0005 40.0017)" stroke="white" stroke-width="2"/>
<path d="M10.267 24.4787C10.8841 25.2337 11.3889 26.0764 11.7634 26.9805C12.2659 28.1938 12.5244 29.4943 12.5244 30.8075C12.5244 32.1207 12.2659 33.4212 11.7634 34.6344C11.3889 35.5386 10.8841 36.3812 10.267 37.1362L3.93829 30.8075L10.267 24.4787Z" stroke="white" stroke-width="2"/>
<path d="M37.137 10.2675C36.382 10.8846 35.5393 11.3894 34.6352 11.7639C33.422 12.2664 32.1214 12.5249 30.8083 12.5249C29.4951 12.5249 28.1945 12.2664 26.9813 11.7639C26.0772 11.3894 25.2345 10.8846 24.4795 10.2675L30.8083 3.93877L37.137 10.2675Z" stroke="white" stroke-width="2"/>
<path d="M69.7344 55.5213C69.1174 54.7663 68.6126 53.9236 68.238 53.0195C67.7355 51.8062 67.4771 50.5057 67.4771 49.1925C67.4771 47.8793 67.7355 46.5788 68.238 45.3656C68.6126 44.4614 69.1174 43.6188 69.7344 42.8638L76.0632 49.1925L69.7344 55.5213Z" stroke="white" stroke-width="2"/>
<path d="M42.864 69.7344C43.6189 69.1174 44.4616 68.6126 45.3658 68.238C46.579 67.7355 47.8795 67.4771 49.1927 67.4771C50.5059 67.4771 51.8064 67.7355 53.0197 68.238C53.9238 68.6126 54.7665 69.1174 55.5215 69.7344L49.1927 76.0632L42.864 69.7344Z" stroke="white" stroke-width="2"/>
</svg>
