<svg width="17" height="19" viewBox="0 0 17 19" fill="none" xmlns="http://www.w3.org/2000/svg">
<path d="M1.66296 0.872718C2.71357 -0.352803 4.63354 -0.27586 5.5832 1.02944L7.07842 3.08556C7.85762 4.15671 7.65045 5.65159 6.60948 6.47071C5.98518 6.96209 5.86711 7.86222 6.34299 8.49843L8.86156 11.8646C9.35014 12.5177 10.2709 12.6608 10.9345 12.1867L11.2975 11.9267C12.3673 11.162 13.8471 11.357 14.6825 12.3724L15.7026 13.6136C16.7371 14.871 16.3131 16.7658 14.8411 17.4618L13.1074 18.2812C12.3296 18.649 11.4173 18.5909 10.6924 18.1276L9.1026 17.1109C5.05357 14.5223 2.04188 10.5935 0.595058 6.01071L0.116097 4.4911C-0.14402 3.66718 0.0393934 2.76745 0.601714 2.11147L1.66296 0.872718ZM4.77418 1.61726C4.20437 0.834386 3.05304 0.788432 2.4227 1.52345L1.36051 2.76246C1.02332 3.15602 0.913675 3.69585 1.06971 4.19008L1.54867 5.70969C2.92491 10.069 5.78981 13.8066 9.64133 16.2689L11.2309 17.2847C11.6658 17.5628 12.2135 17.5982 12.6803 17.3776L14.4137 16.5572C15.2966 16.1395 15.551 15.0034 14.9306 14.2491L13.9106 13.0079C13.4094 12.3987 12.5213 12.2817 11.8795 12.7403L11.5165 13.0003C10.4105 13.7908 8.87527 13.5527 8.06079 12.4644L5.54197 9.09724C4.74115 8.02639 4.9406 6.51187 5.9915 5.68494C6.60997 5.19823 6.73336 4.30953 6.27034 3.67312L4.77418 1.61726Z" fill="white"/>
</svg>
