<svg width="80" height="80" viewBox="0 0 80 80" fill="none" xmlns="http://www.w3.org/2000/svg">
<path fill-rule="evenodd" clip-rule="evenodd" d="M10.2216 9.80762C15.2984 4.73085 23.5296 4.73088 28.6064 9.80762L36.3847 17.5859C41.2936 22.495 41.4546 30.3521 36.8701 35.4561L45.2216 43.8076C50.2984 38.7308 58.5296 38.7309 63.6064 43.8076L71.3847 51.5859C76.4614 56.6628 76.4615 64.8939 71.3847 69.9707L69.9707 71.3848C64.8939 76.4615 56.6627 76.4614 51.5859 71.3848L43.8076 63.6064C38.8102 58.609 38.7319 50.5549 43.5732 45.4619L43.8076 45.2217L35.4707 36.8848L34.9707 37.3848C29.8939 42.4615 21.6627 42.4614 16.5859 37.3848L8.80757 29.6064C3.73083 24.5296 3.73078 16.2985 8.80757 11.2217L10.2216 9.80762ZM62.1923 45.2217C57.8966 40.926 50.9314 40.926 46.6357 45.2217L54.7363 53.3223L53.3222 54.7363L45.2216 46.6357L44.831 47.0459C40.9297 51.364 41.0602 58.0309 45.2216 62.1924L53 69.9707C57.2957 74.2663 64.2609 74.2664 68.5566 69.9707L69.9707 68.5566C74.2664 64.2609 74.2663 57.2958 69.9707 53L62.1923 45.2217ZM27.1923 11.2217C22.8966 6.92599 15.9314 6.92596 11.6357 11.2217L10.2216 12.6357C5.92589 16.9315 5.92594 23.8966 10.2216 28.1924L18 35.9707C22.2957 40.2663 29.2609 40.2664 33.5566 35.9707L34.0566 35.4707L30.3222 31.7363L31.7363 30.3223L35.4521 34.0381C39.2569 29.7176 39.0983 23.1277 34.9707 19L27.1923 11.2217Z" fill="white"/>
<path fill-rule="evenodd" clip-rule="evenodd" d="M61 5C64.8659 5.00002 68 8.13402 68 12V18H73V33H49V18H54V12C54 8.13401 57.134 5 61 5ZM51 31H71V20H51V31ZM61 7C58.2385 7 56 9.23858 56 12V18H66V12C66 9.23859 63.7614 7.00002 61 7Z" fill="white"/>
</svg>
