<svg width="80" height="80" viewBox="0 0 80 80" fill="none" xmlns="http://www.w3.org/2000/svg">
<path d="M17.2676 7H57.7285C62.9529 7 67.469 10.9354 68.3623 16.3916C71.2028 33.7447 64.4066 51.2683 50.8359 61.6689L41.5449 68.79C39.4391 70.4039 36.5824 70.4039 34.4766 68.79L24.4873 61.1338C11.2383 50.9796 4.28885 34.1126 6.36133 17.0625C7.06451 11.2778 11.7652 7.00024 17.2676 7Z" stroke="white" stroke-width="2"/>
<path d="M42.1016 27.1865L42.3213 27.5938L42.7754 27.6895L52.1816 29.6699L45.6621 37.0703L45.3701 37.4023L45.4189 37.8418L46.5186 47.7754L37.8594 43.6406L37.4287 43.4346L36.998 43.6406L28.3379 47.7754L29.4385 37.8418L29.4873 37.4023L29.1953 37.0703L22.6748 29.6699L32.082 27.6895L32.5361 27.5938L32.7559 27.1865L37.4287 18.5352L42.1016 27.1865Z" stroke="white" stroke-width="2"/>
</svg>
