<svg width="24" height="24" viewBox="0 0 24 24" fill="none" xmlns="http://www.w3.org/2000/svg">
<path d="M15.6878 3.00105C12.7584 3.00105 10.3745 5.38482 10.3745 8.31399C10.3745 9.59279 10.8287 10.7673 11.5848 11.6851L10.8776 12.3922C10.3086 11.9823 9.50832 12.0321 8.99681 12.5436L3.42595 18.1142C2.85802 18.6821 2.85802 19.6075 3.42595 20.1754L3.82465 20.574C4.10868 20.858 4.48192 21 4.85532 21C5.2287 21 5.60194 20.8581 5.886 20.574L11.4569 15.0035C11.9684 14.492 12.0182 13.6927 11.6083 13.1228L12.3154 12.4157C13.2332 13.1717 14.4078 13.6259 15.6867 13.6259C18.6161 13.6259 21 11.2421 21 8.31294C21 5.38377 18.6161 3 15.6867 3L15.6878 3.00105ZM10.7251 14.2738L5.15427 19.8443C5.07437 19.9242 4.96811 19.9684 4.85528 19.9684C4.74246 19.9684 4.63619 19.9242 4.55629 19.8443L4.15759 19.4456C4.0777 19.3657 4.03349 19.2595 4.03349 19.1466C4.03349 19.0338 4.0777 18.9276 4.15759 18.8477L9.72846 13.2771C9.80835 13.1973 9.91462 13.153 10.0274 13.153C10.1403 13.153 10.2465 13.1973 10.3264 13.2771L10.7251 13.6758C10.805 13.7557 10.8492 13.862 10.8492 13.9748C10.8492 14.0876 10.805 14.1939 10.7251 14.2738ZM15.6878 12.5925C13.3282 12.5925 11.4089 10.6732 11.4089 8.31393C11.4089 5.95454 13.3283 4.03536 15.6878 4.03536C18.0473 4.03536 19.9666 5.9546 19.9666 8.31393C19.9666 10.6733 18.0472 12.5925 15.6878 12.5925Z" fill="black"/>
</svg>
