<svg width="80" height="80" viewBox="0 0 80 80" fill="none" xmlns="http://www.w3.org/2000/svg">
<path fill-rule="evenodd" clip-rule="evenodd" d="M55 58.5H45V47.5H55V58.5ZM47 56.5H53V49.5H47V56.5Z" fill="white"/>
<path fill-rule="evenodd" clip-rule="evenodd" d="M53 34C57.4183 34 61 37.5817 61 42V72H19V42C19 37.5817 22.5817 34 27 34H53ZM27 36C23.6863 36 21 38.6863 21 42V70H38.5V46.5H38.6104L29.543 36H27ZM40.3965 46.5H40.5V70H59V42C59 38.6863 56.3137 36 53 36H49.9424L40.3965 46.5ZM39.5186 44.4912L47.2393 36H32.1846L39.5186 44.4912Z" fill="white"/>
<path fill-rule="evenodd" clip-rule="evenodd" d="M41 7C45.4183 7 49 10.5817 49 15V23C49 27.4183 45.4183 31 41 31H39C34.5817 31 31 27.4183 31 23V15C31 10.5817 34.5817 7 39 7H41ZM39 9C35.6863 9 33 11.6863 33 15V23C33 26.3137 35.6863 29 39 29H41C44.3137 29 47 26.3137 47 23V15C47 11.6863 44.3137 9 41 9H39Z" fill="white"/>
</svg>
