<svg width="64" height="64" viewBox="0 0 64 64" fill="none" xmlns="http://www.w3.org/2000/svg">
<path d="M28.13 6.26649C30.3651 4.37992 33.6349 4.37992 35.87 6.26649L39.4402 9.27986C40.3902 10.0817 41.5658 10.5687 42.8046 10.6734L47.4598 11.0671C50.3743 11.3136 52.6864 13.6257 52.9329 16.5402L53.3266 21.1954C53.4313 22.4342 53.9183 23.6098 54.7201 24.5598L57.7335 28.13C59.6201 30.3651 59.6201 33.6349 57.7335 35.87L54.7201 39.4402C53.9183 40.3902 53.4313 41.5658 53.3266 42.8046L52.9329 47.4598C52.6864 50.3743 50.3743 52.6864 47.4598 52.9329L42.8046 53.3266C41.5658 53.4313 40.3902 53.9183 39.4402 54.7201L35.87 57.7335C33.6349 59.6201 30.3651 59.6201 28.13 57.7335L24.5598 54.7201C23.6098 53.9183 22.4342 53.4313 21.1954 53.3266L16.5402 52.9329C13.6257 52.6864 11.3136 50.3743 11.0671 47.4598L10.6734 42.8046C10.5687 41.5658 10.0817 40.3902 9.27986 39.4402L6.26649 35.87C4.37992 33.6349 4.37992 30.3651 6.26649 28.13L9.27986 24.5598C10.0817 23.6098 10.5687 22.4342 10.6734 21.1954L11.0671 16.5402C11.3136 13.6257 13.6257 11.3136 16.5402 11.0671L21.1954 10.6734C22.4342 10.5687 23.6098 10.0817 24.5598 9.27986L28.13 6.26649Z" fill="#38D200"/>
<path d="M22 31.6111L29.2545 39L43 25" stroke="white" stroke-width="4"/>
</svg>
