<svg width="80" height="80" viewBox="0 0 80 80" fill="none" xmlns="http://www.w3.org/2000/svg">
<path d="M56.7529 55L53.1973 71H26.7607L22.3164 55H56.7529Z" stroke="white" stroke-width="2"/>
<path d="M40 56L40 42" stroke="white" stroke-width="2"/>
<circle cx="40" cy="31" r="11" stroke="white" stroke-width="2"/>
<path d="M36 21V11C36 8.79086 37.7909 7 40 7C42.2091 7 44 8.79086 44 11V21" stroke="white" stroke-width="2"/>
<path d="M30 35L20 35C17.7909 35 16 33.2091 16 31C16 28.7909 17.7909 27 20 27L30 27" stroke="white" stroke-width="2"/>
<path d="M35.6567 41.1567L28.6858 48.0155C27.1202 49.5559 24.6053 49.5457 23.0522 47.9926C21.4812 46.4216 21.4915 43.8713 23.0752 42.3131L29.9999 35.4999" stroke="white" stroke-width="2"/>
<path d="M49.6569 35.8431L56.7229 42.3222C58.3997 43.8597 58.4566 46.4848 56.8479 48.0935C55.3349 49.6065 52.8985 49.6593 51.3214 48.2132L44 41.5" stroke="white" stroke-width="2"/>
<path d="M50 27L60 27C62.2091 27 64 28.7909 64 31C64 33.2091 62.2091 35 60 35L50 35" stroke="white" stroke-width="2"/>
<path d="M44 21L51.3153 13.9324C52.8845 12.4164 55.3793 12.4379 56.9221 13.9807C58.503 15.5616 58.4809 18.1315 56.873 19.6849L49.6569 26.6569" stroke="white" stroke-width="2"/>
<path d="M30.3431 26.1569L23.2771 19.6778C21.6003 18.1403 21.5434 15.5152 23.1521 13.9065C24.6651 12.3935 27.1015 12.3407 28.6786 13.7868L36 20.5" stroke="white" stroke-width="2"/>
</svg>
