<svg width="24" height="24" viewBox="0 0 24 24" fill="none" xmlns="http://www.w3.org/2000/svg">
<path fill-rule="evenodd" clip-rule="evenodd" d="M12.2506 2.74938C12.4556 2.54435 12.7861 2.54903 13.0221 2.71747C14.112 3.49534 15.5865 3.49534 16.6764 2.71747C16.9124 2.54903 17.2428 2.54435 17.4479 2.74938L21.1602 6.46169C21.3652 6.66671 21.3605 6.99715 21.1921 7.23315C20.4142 8.32309 20.4142 9.79752 21.1921 10.8875C21.3605 11.1235 21.3652 11.4539 21.1602 11.6589L11.5082 21.3109C11.3031 21.516 10.9727 21.5113 10.7367 21.3428C9.64676 20.565 8.17233 20.565 7.08239 21.3428C6.84639 21.5113 6.51595 21.516 6.31093 21.3109L2.59862 17.5986C2.39359 17.3936 2.39827 17.0632 2.56671 16.8272C3.34458 15.7372 3.34458 14.2628 2.56671 13.1728C2.39827 12.9368 2.39359 12.6064 2.59862 12.4014L12.2506 2.74938ZM9.91665 9.40181C9.50478 9.26239 9.11163 9.65553 9.25105 10.0674L9.71654 11.4407C9.77184 11.6042 9.74361 11.7845 9.64041 11.9228L8.77323 13.0844C8.51321 13.433 8.76556 13.9284 9.20029 13.9233L10.6497 13.9052C10.8224 13.903 10.9857 13.9853 11.0855 14.1263L11.9222 15.3096C12.1734 15.6649 12.7233 15.5779 12.8524 15.1624L13.2824 13.7783C13.3337 13.6135 13.4628 13.4845 13.6275 13.4331L15.0117 13.0032C15.4272 12.874 15.5141 12.3242 15.1588 12.0729L13.9755 11.2362C13.8346 11.1364 13.7522 10.9732 13.7544 10.8004L13.7725 9.35105C13.7777 8.91631 13.2822 8.66395 12.9336 8.92399L11.7721 9.79117C11.6337 9.89436 11.4534 9.9226 11.2899 9.8673L9.91665 9.40181Z" fill="white"/>
</svg>
