<svg width="24" height="24" viewBox="0 0 24 24" fill="none" xmlns="http://www.w3.org/2000/svg">
<path d="M1 9C1 7.34315 2.34315 6 4 6L5.94531 6L5.94531 8L4 8C3.44772 8 3 8.44772 3 9L3 20C3 20.5523 3.44772 21 4 21L19 21C19.5523 21 20 20.5523 20 20L20 9C20 8.44772 19.5523 8 19 8L17.25 8L17.25 6L19 6C20.6569 6 22 7.34315 22 9L22 20C22 21.6569 20.6569 23 19 23L4 23C2.34315 23 1 21.6569 1 20L1 9Z" fill="black"/>
<path d="M11.5 1L16 5.30664L14.4541 6.63672L12.5645 4.82715L12.5645 14L10.4355 14L10.4355 4.82715L8.5459 6.63672L7 5.30664L11.5 1Z" fill="black"/>
</svg>
