<svg width="80" height="80" viewBox="0 0 80 80" fill="none" xmlns="http://www.w3.org/2000/svg">
<path fill-rule="evenodd" clip-rule="evenodd" d="M78 34H64V70H16V34H2V11H78V34ZM62 57.1553C60.9812 57.3139 59.9824 57.5929 59.0254 57.9893C57.4482 58.6426 56.0148 59.6005 54.8076 60.8076C53.6005 62.0148 52.6426 63.4482 51.9893 65.0254C51.5929 65.9824 51.3139 66.9812 51.1553 68H62V57.1553ZM18 55.1348C19.2823 55.3072 20.5397 55.6444 21.7402 56.1416C23.5601 56.8954 25.2136 58.0007 26.6064 59.3936C27.9993 60.7864 29.1046 62.4399 29.8584 64.2598C30.3556 65.4603 30.6928 66.7177 30.8652 68H49.1348C49.3072 66.7177 49.6444 65.4603 50.1416 64.2598C50.8954 62.4399 52.0007 60.7864 53.3936 59.3936C54.7864 58.0007 56.4399 56.8954 58.2598 56.1416C59.4603 55.6444 60.7177 55.3072 62 55.1348V24H55.874C55.6959 25.414 55.3299 26.8009 54.7822 28.123C54.0284 29.9429 52.9455 31.6071 51.5889 33.0322L51.3135 33.3135C49.8277 34.7992 48.0642 35.9782 46.123 36.7822C44.1818 37.5863 42.1011 38 40 38L39.6064 37.9951C37.6394 37.9467 35.6969 37.5361 33.877 36.7822C31.9358 35.9782 30.1722 34.7992 28.6865 33.3135C27.2008 31.8277 26.0218 30.0642 25.2178 28.123C24.6701 26.8009 24.3041 25.414 24.126 24H18V55.1348ZM18 68H28.8447C28.6861 66.9812 28.4071 65.9824 28.0107 65.0254C27.3574 63.4482 26.3995 62.0148 25.1924 60.8076C23.9852 59.6005 22.5518 58.6426 20.9746 57.9893C20.0176 57.5929 19.0188 57.3139 18 57.1553V68ZM26.1436 24C26.3096 25.1506 26.6186 26.2786 27.0654 27.3574C27.769 29.056 28.8006 30.5994 30.1006 31.8994C31.4006 33.1994 32.944 34.231 34.6426 34.9346C36.3411 35.6381 38.1616 36 40 36C41.8384 36 43.6589 35.6381 45.3574 34.9346C47.056 34.231 48.5994 33.1994 49.8994 31.8994C51.1994 30.5994 52.231 29.056 52.9346 27.3574C53.3814 26.2786 53.6904 25.1506 53.8564 24H26.1436ZM4 32H16V24H9V22H71V24H64V32H76V13H4V32Z" fill="white"/>
</svg>
