<svg width="20" height="20" viewBox="0 0 20 20" fill="none" xmlns="http://www.w3.org/2000/svg">
<path fill-rule="evenodd" clip-rule="evenodd" d="M5.05252 18.0523C3.30492 17.9007 1.93359 16.4344 1.93359 14.6475V8.896C1.93359 7.8299 2.43104 6.82485 3.27874 6.17831L7.92717 2.63288C9.15135 1.6992 10.8486 1.6992 12.0728 2.63288L12.3873 2.87272C11.5478 2.78987 10.6842 3.0171 9.97799 3.55573L4.44963 7.77228C4.15644 7.99588 3.98438 8.34352 3.98438 8.71225V15.5703C3.98438 16.5478 4.39477 17.4293 5.05252 18.0523Z" fill="#ECF9FF"/>
<path fill-rule="evenodd" clip-rule="evenodd" d="M15.4004 14.1347C14.1754 14.1347 13.1787 13.138 13.1787 11.913C13.1787 10.688 14.1754 9.69131 15.4004 9.69131C16.6254 9.69131 17.6221 10.688 17.6221 11.913C17.6221 13.138 16.6254 14.1347 15.4004 14.1347ZM15.4004 11.0585C14.9292 11.0585 14.5459 11.4418 14.5459 11.913C14.5459 12.3842 14.9292 12.7675 15.4004 12.7675C15.8716 12.7675 16.2549 12.3842 16.2549 11.913C16.2549 11.4418 15.8716 11.0585 15.4004 11.0585ZM9.93164 14.5106C8.70661 14.5106 7.70996 13.514 7.70996 12.289C7.70996 11.0639 8.70661 10.0673 9.93164 10.0673C11.1567 10.0673 12.1533 11.0639 12.1533 12.289C12.1533 13.514 11.1567 14.5106 9.93164 14.5106ZM9.93164 11.4345C9.46047 11.4345 9.07715 11.8178 9.07715 12.289C9.07715 12.7601 9.46047 13.1435 9.93164 13.1435C10.4028 13.1435 10.7861 12.7601 10.7861 12.289C10.7861 11.8178 10.4028 11.4345 9.93164 11.4345ZM5.82888 18.0996C5.85117 17.7228 5.56375 17.3991 5.18685 17.3769C3.7459 17.2916 2.61719 16.0927 2.61719 14.6474V8.89592C2.61719 8.04846 3.01948 7.23567 3.6933 6.72175L8.34174 3.17632C9.31812 2.43168 10.6819 2.43168 11.6583 3.17632L16.3067 6.72175C16.9805 7.23567 17.3828 8.04843 17.3828 8.89592C17.3828 9.27346 17.6889 9.57951 18.0664 9.57951C18.444 9.57951 18.75 9.27346 18.75 8.89592C18.75 7.62474 18.1466 6.40555 17.1358 5.63466L12.4874 2.08923C11.0228 0.972208 8.97717 0.972208 7.51261 2.08923L2.86417 5.63466C1.85344 6.40555 1.25 7.6247 1.25 8.89592V14.6474C1.25 16.8153 2.94381 18.6137 5.10612 18.7417C5.11986 18.7425 5.13353 18.7429 5.14713 18.7429C5.50616 18.7428 5.80738 18.4627 5.82888 18.0996ZM8.29102 18.0653C8.29102 17.3303 8.89654 16.7323 9.64081 16.7323H10.5469C10.9244 16.7323 11.2305 16.4263 11.2305 16.0487C11.2305 15.6712 10.9244 15.3651 10.5469 15.3651H9.64081C8.14264 15.3651 6.92383 16.5764 6.92383 18.0653C6.92383 18.4429 7.22987 18.7489 7.60742 18.7489C7.98497 18.7489 8.29102 18.4428 8.29102 18.0653Z" fill="#18448A"/>
<path fill-rule="evenodd" clip-rule="evenodd" d="M18.0664 18.7491C17.6889 18.7491 17.3828 18.4431 17.3828 18.0655C17.3828 17.0688 16.5668 16.2578 15.5638 16.2578H15.1003C14.0973 16.2578 13.2812 17.0688 13.2812 18.0655C13.2812 18.4431 12.9752 18.7491 12.5977 18.7491C12.2201 18.7491 11.9141 18.4431 11.9141 18.0655C11.9141 16.3149 13.3434 14.8906 15.1003 14.8906H15.5638C17.3207 14.8906 18.75 16.3149 18.75 18.0655C18.75 18.4431 18.444 18.7491 18.0664 18.7491Z" fill="#1D90C9"/>
</svg>
