<svg width="20" height="22" viewBox="0 0 20 22" fill="none" xmlns="http://www.w3.org/2000/svg">
<rect x="1.05762" y="13.4229" width="2.42308" height="4.84615" fill="#ECF9FF"/>
<path fill-rule="evenodd" clip-rule="evenodd" d="M12.0747 8.93231C12.4624 8.54462 12.4624 7.96308 12.0747 7.57539C10.6209 6.12154 10.6209 3.69846 12.0747 2.14769C12.4624 1.76 12.4624 1.17846 12.0747 0.790769C11.6871 0.403077 11.1055 0.403077 10.7178 0.790769C8.48859 3.02 8.48859 6.70308 10.7178 8.93231C10.8147 9.12615 11.3963 9.51385 12.0747 8.93231Z" fill="#1D90C9"/>
<path fill-rule="evenodd" clip-rule="evenodd" d="M15.4667 7.76899C15.8544 7.3813 15.8544 6.79976 15.4667 6.41207C14.5944 5.53976 14.5944 4.08592 15.4667 3.21361C15.8544 2.82592 15.8544 2.24438 15.4667 1.85669C15.079 1.46899 14.4975 1.46899 14.1098 1.85669C12.4621 3.50438 12.4621 6.1213 14.1098 7.76899C14.3036 7.96284 14.8852 8.35053 15.4667 7.76899Z" fill="#1D90C9"/>
<path fill-rule="evenodd" clip-rule="evenodd" d="M18.6654 5.02295C18.0838 5.02295 17.6962 5.41064 17.6962 5.99218V14.2306H16.7269V12.7768C16.7269 12.1953 16.3392 11.8076 15.7577 11.8076H1.21923C0.637692 11.8076 0.25 12.1953 0.25 12.7768V18.5922C0.25 19.1737 0.637692 19.5614 1.21923 19.5614H2.18846V20.5306C2.18846 21.1122 2.57615 21.4999 3.15769 21.4999C3.73923 21.4999 4.12692 21.1122 4.12692 20.5306V19.5614H12.85V20.5306C12.85 21.1122 13.2377 21.4999 13.8192 21.4999C14.4008 21.4999 14.7885 21.1122 14.7885 20.5306V19.5614H15.7577C16.3392 19.5614 16.7269 19.1737 16.7269 18.5922V16.1691H18.6654C19.2469 16.1691 19.6346 15.7814 19.6346 15.1999V5.99218C19.6346 5.41064 19.2469 5.02295 18.6654 5.02295ZM14.7885 17.6229H2.18846V13.746H14.7885V17.6229Z" fill="#18448A"/>
<path fill-rule="evenodd" clip-rule="evenodd" d="M6.06493 16.6538C6.64647 16.6538 7.03416 16.2661 7.03416 15.6846C7.03416 15.103 6.64647 14.7153 6.06493 14.7153C5.4834 14.7153 5.0957 15.103 5.0957 15.6846C5.0957 16.2661 5.58032 16.6538 6.06493 16.6538Z" fill="#1D90C9"/>
</svg>
