<svg width="80" height="810" viewBox="0 0 80 810" fill="none" xmlns="http://www.w3.org/2000/svg">
<g clip-path="url(#clip0_59_1808)">
<rect y="1078" width="1080" height="80" transform="rotate(-90 0 1078)" fill="white"/>
<circle cx="40" cy="782" r="7.5" transform="rotate(-90 40 782)" fill="white" stroke="black"/>
<path d="M52 740.36L24 740.36L24 735.96L48 735.96L48 728.72L52 728.72L52 740.36ZM52 726.61L24 726.61L24 714.61L28 714.61L28 722.21L35.4 722.21L35.4 716.17L39.4 716.17L39.4 722.21L48 722.21L48 714.61L52 714.61L52 726.61ZM52 708.639L28 708.639L28 713.239L24 713.239L24 699.639L28 699.639L28 704.239L52 704.239L52 708.639ZM33.04 697.358L28.24 695.678L28.24 697.118L24 697.118L24 692.878L27.8 692.878L33.04 695.318L33.04 697.358ZM52.4 683.859C52.4 688.179 49.84 690.339 45.36 690.339L43.76 690.339L43.76 686.179L45.68 686.179C47.68 686.179 48.4 685.299 48.4 683.899C48.4 682.499 47.68 681.619 45.6 681.619C43.28 681.619 41.8 682.499 39.28 685.379C36.04 689.059 33.76 690.259 30.56 690.259C26.16 690.259 23.6 687.979 23.6 683.699C23.6 679.419 26.16 677.299 30.64 677.299L31.8 677.299L31.8 681.459L30.36 681.459C28.36 681.459 27.6 682.259 27.6 683.659C27.6 685.059 28.36 685.859 30.28 685.859C32.32 685.859 33.8 684.939 36.32 682.059C39.56 678.379 41.8 677.219 45.28 677.219C49.84 677.219 52.4 679.539 52.4 683.859ZM52.4 662.09C52.4 666.33 49.84 668.57 45.52 668.57L30.48 668.57C26.16 668.57 23.6 666.33 23.6 662.09C23.6 657.85 26.16 655.61 30.48 655.61L33.44 655.61L33.44 659.77L30.2 659.77C28.36 659.77 27.6 660.65 27.6 661.97C27.6 663.29 28.36 664.17 30.2 664.17L45.84 664.17C47.68 664.17 48.4 663.29 48.4 661.97C48.4 660.65 47.68 659.77 45.84 659.77L41.56 659.77L41.56 655.61L45.52 655.61C49.84 655.61 52.4 657.85 52.4 662.09ZM52.4 646.539C52.4 650.859 49.84 653.219 45.36 653.219L30.64 653.219C26.16 653.219 23.6 650.859 23.6 646.539C23.6 642.219 26.16 639.859 30.64 639.859L45.36 639.859C49.84 639.859 52.4 642.219 52.4 646.539ZM48.4 646.539C48.4 645.139 47.64 644.259 45.64 644.259L30.36 644.259C28.36 644.259 27.6 645.139 27.6 646.539C27.6 647.939 28.36 648.819 30.36 648.819L45.64 648.819C47.64 648.819 48.4 647.939 48.4 646.539ZM52 636.883L24 636.883L24 632.483L48 632.483L48 625.243L52 625.243L52 636.883ZM52 623.133L24 623.133L24 618.733L48 618.733L48 611.493L52 611.493L52 623.133ZM52 610.387L24 605.827L24 599.867L52 595.307L52 599.707L46.44 600.507L46.52 600.507L46.52 605.507L52 606.307L52 610.387ZM42.72 604.987L42.72 601.027L28.88 602.987L28.88 603.067L42.72 604.987ZM52 593.172L24 593.172L24 586.532C24 581.972 26.12 580.012 30.44 580.012L31.56 580.012C34.44 580.012 36.24 580.892 37.04 582.852L37.12 582.852C37.92 580.492 40 579.572 42.96 579.572L45.36 579.572C49.68 579.572 52 581.852 52 586.252L52 593.172ZM35.4 588.772L35.4 587.052C35.4 585.412 34.68 584.412 32.44 584.412L30.88 584.412C28.88 584.412 28 585.092 28 586.652L28 588.772L35.4 588.772ZM48 588.772L48 586.252C48 584.772 47.32 583.972 45.24 583.972L42.8 583.972C40.2 583.972 39.4 584.812 39.4 586.812L39.4 588.772L48 588.772ZM52.4 570.641C52.4 574.961 49.84 577.321 45.36 577.321L30.64 577.321C26.16 577.321 23.6 574.961 23.6 570.641C23.6 566.321 26.16 563.961 30.64 563.961L45.36 563.961C49.84 563.961 52.4 566.321 52.4 570.641ZM48.4 570.641C48.4 569.241 47.64 568.361 45.64 568.361L30.36 568.361C28.36 568.361 27.6 569.241 27.6 570.641C27.6 572.041 28.36 572.921 30.36 572.921L45.64 572.921C47.64 572.921 48.4 572.041 48.4 570.641ZM52 560.985L24 560.985L24 554.465C24 549.905 26.12 547.945 30.44 547.945L32.16 547.945C35.04 547.945 36.88 548.865 37.68 550.825L37.76 550.825C38.44 548.625 40.52 547.905 43.68 547.905L48.6 547.905C49.96 547.905 50.96 547.865 52 547.425L52 551.905C51.28 552.145 50.84 552.305 48.56 552.305L43.44 552.305C40.84 552.305 40 553.065 40 555.065L40 556.585L52 556.585L52 560.985ZM36 556.585L36 554.985C36 553.345 35.28 552.345 33.04 552.345L30.88 552.345C28.88 552.345 28 553.025 28 554.585L28 556.585L36 556.585ZM52 546.012L24 541.452L24 535.492L52 530.932L52 535.332L46.44 536.132L46.52 536.132L46.52 541.132L52 541.932L52 546.012ZM42.72 540.612L42.72 536.652L28.88 538.612L28.88 538.692L42.72 540.612ZM52 527.193L28 527.193L28 531.793L24 531.793L24 518.193L28 518.193L28 522.793L52 522.793L52 527.193ZM52 516.063L24 516.063L24 504.063L28 504.063L28 511.663L35.4 511.663L35.4 505.623L39.4 505.623L39.4 511.663L48 511.663L48 504.063L52 504.063L52 516.063Z" fill="black"/>
<circle cx="40" cy="463" r="7.5" transform="rotate(-90 40 463)" fill="white" stroke="black"/>
<path d="M52 421.36L24 421.36L24 416.96L48 416.96L48 409.72L52 409.72L52 421.36ZM52 407.61L24 407.61L24 395.61L28 395.61L28 403.21L35.4 403.21L35.4 397.17L39.4 397.17L39.4 403.21L48 403.21L48 395.61L52 395.61L52 407.61ZM52 389.639L28 389.639L28 394.239L24 394.239L24 380.639L28 380.639L28 385.239L52 385.239L52 389.639ZM33.04 378.358L28.24 376.678L28.24 378.118L24 378.118L24 373.878L27.8 373.878L33.04 376.318L33.04 378.358ZM52.4 364.859C52.4 369.179 49.84 371.339 45.36 371.339L43.76 371.339L43.76 367.179L45.68 367.179C47.68 367.179 48.4 366.299 48.4 364.899C48.4 363.499 47.68 362.619 45.6 362.619C43.28 362.619 41.8 363.499 39.28 366.379C36.04 370.059 33.76 371.259 30.56 371.259C26.16 371.259 23.6 368.979 23.6 364.699C23.6 360.419 26.16 358.299 30.64 358.299L31.8 358.299L31.8 362.459L30.36 362.459C28.36 362.459 27.6 363.259 27.6 364.659C27.6 366.059 28.36 366.859 30.28 366.859C32.32 366.859 33.8 365.939 36.32 363.059C39.56 359.379 41.8 358.219 45.28 358.219C49.84 358.219 52.4 360.539 52.4 364.859ZM52.4 343.09C52.4 347.33 49.84 349.57 45.52 349.57L30.48 349.57C26.16 349.57 23.6 347.33 23.6 343.09C23.6 338.85 26.16 336.61 30.48 336.61L33.44 336.61L33.44 340.77L30.2 340.77C28.36 340.77 27.6 341.65 27.6 342.97C27.6 344.29 28.36 345.17 30.2 345.17L45.84 345.17C47.68 345.17 48.4 344.29 48.4 342.97C48.4 341.65 47.68 340.77 45.84 340.77L41.56 340.77L41.56 336.61L45.52 336.61C49.84 336.61 52.4 338.85 52.4 343.09ZM52 333.977L24 333.977L24 327.457C24 322.897 26.12 320.937 30.44 320.937L32.16 320.937C35.04 320.937 36.88 321.857 37.68 323.817L37.76 323.817C38.44 321.617 40.52 320.897 43.68 320.897L48.6 320.897C49.96 320.897 50.96 320.857 52 320.417L52 324.897C51.28 325.137 50.84 325.297 48.56 325.297L43.44 325.297C40.84 325.297 40 326.057 40 328.057L40 329.577L52 329.577L52 333.977ZM36 329.577L36 327.977C36 326.337 35.28 325.337 33.04 325.337L30.88 325.337C28.88 325.337 28 326.017 28 327.577L28 329.577L36 329.577ZM52 317.844L24 317.844L24 305.844L28 305.844L28 313.444L35.4 313.444L35.4 307.404L39.4 307.404L39.4 313.444L48 313.444L48 305.844L52 305.844L52 317.844ZM52 304.473L24 299.913L24 293.953L52 289.393L52 293.793L46.44 294.593L46.52 294.593L46.52 299.593L52 300.393L52 304.473ZM42.72 299.073L42.72 295.113L28.88 297.073L28.88 297.153L42.72 299.073ZM52 285.654L28 285.654L28 290.254L24 290.254L24 276.654L28 276.654L28 281.254L52 281.254L52 285.654ZM52 274.524L24 274.524L24 262.524L28 262.524L28 270.124L35.4 270.124L35.4 264.084L39.4 264.084L39.4 270.124L48 270.124L48 262.524L52 262.524L52 274.524Z" fill="black"/>
<circle cx="40" cy="221" r="7.5" transform="rotate(-90 40 221)" fill="white" stroke="black"/>
<path d="M52 179.36L24 179.36L24 174.96L48 174.96L48 167.72L52 167.72L52 179.36ZM52 165.61L24 165.61L24 153.61L28 153.61L28 161.21L35.4 161.21L35.4 155.17L39.4 155.17L39.4 161.21L48 161.21L48 153.61L52 153.61L52 165.61ZM52 147.639L28 147.639L28 152.239L24 152.239L24 138.639L28 138.639L28 143.239L52 143.239L52 147.639ZM33.04 136.358L28.24 134.678L28.24 136.118L24 136.118L24 131.878L27.8 131.878L33.04 134.318L33.04 136.358ZM52.4 122.859C52.4 127.179 49.84 129.339 45.36 129.339L43.76 129.339L43.76 125.179L45.68 125.179C47.68 125.179 48.4 124.299 48.4 122.899C48.4 121.499 47.68 120.619 45.6 120.619C43.28 120.619 41.8 121.499 39.28 124.379C36.04 128.059 33.76 129.259 30.56 129.259C26.16 129.259 23.6 126.979 23.6 122.699C23.6 118.419 26.16 116.299 30.64 116.299L31.8 116.299L31.8 120.459L30.36 120.459C28.36 120.459 27.6 121.259 27.6 122.659C27.6 124.059 28.36 124.859 30.28 124.859C32.32 124.859 33.8 123.939 36.32 121.059C39.56 117.379 41.8 116.219 45.28 116.219C49.84 116.219 52.4 118.539 52.4 122.859ZM52.4 101.09C52.4 105.33 49.84 107.57 45.52 107.57L30.48 107.57C26.16 107.57 23.6 105.33 23.6 101.09C23.6 96.8497 26.16 94.6097 30.48 94.6097L33.44 94.6097L33.44 98.7697L30.2 98.7697C28.36 98.7697 27.6 99.6497 27.6 100.97C27.6 102.29 28.36 103.17 30.2 103.17L45.84 103.17C47.68 103.17 48.4 102.29 48.4 100.97C48.4 99.6497 47.68 98.7697 45.84 98.7697L41.56 98.7697L41.56 94.6097L45.52 94.6097C49.84 94.6097 52.4 96.8497 52.4 101.09ZM52.4 85.5391C52.4 89.8591 49.84 92.2191 45.36 92.2191L30.64 92.2191C26.16 92.2191 23.6 89.8591 23.6 85.5391C23.6 81.2191 26.16 78.8591 30.64 78.8591L45.36 78.8591C49.84 78.8591 52.4 81.2191 52.4 85.5391ZM48.4 85.5391C48.4 84.1391 47.64 83.2591 45.64 83.2591L30.36 83.2591C28.36 83.2591 27.6 84.1391 27.6 85.5391C27.6 86.9391 28.36 87.8191 30.36 87.8191L45.64 87.8191C47.64 87.8191 48.4 86.9391 48.4 85.5391ZM52 75.8834L24 75.8834L24 70.3634L40.76 66.0834L40.76 66.0034L24 66.0034L24 62.0834L52 62.0834L52 66.6034L31.56 71.8834L31.56 71.9634L52 71.9634L52 75.8834ZM52 58.8131L24 58.8131L24 53.2931L40.76 49.0131L40.76 48.9331L24 48.9331L24 45.0131L52 45.0131L52 49.5331L31.56 54.8131L31.56 54.8931L52 54.8931L52 58.8131ZM52 41.7428L24 41.7428L24 29.7428L28 29.7428L28 37.3428L35.4 37.3428L35.4 31.3028L39.4 31.3028L39.4 37.3428L48 37.3428L48 29.7428L52 29.7428L52 41.7428ZM52.4 21.0116C52.4 25.2516 49.84 27.4916 45.52 27.4916L30.48 27.4916C26.16 27.4916 23.6 25.2516 23.6 21.0116C23.6 16.7716 26.16 14.5316 30.48 14.5316L33.44 14.5316L33.44 18.6916L30.2 18.6916C28.36 18.6916 27.6 19.5716 27.6 20.8916C27.6 22.2116 28.36 23.0916 30.2 23.0916L45.84 23.0916C47.68 23.0916 48.4 22.2116 48.4 20.8916C48.4 19.5716 47.68 18.6916 45.84 18.6916L41.56 18.6916L41.56 14.5316L45.52 14.5316C49.84 14.5316 52.4 16.7716 52.4 21.0116ZM52 8.45906L28 8.45906L28 13.0591L24 13.0591L24 -0.540939L28 -0.540939L28 4.05906L52 4.05906L52 8.45906Z" fill="black"/>
</g>
<rect x="0.5" y="1077.5" width="1079" height="79" transform="rotate(-90 0.5 1077.5)" stroke="black"/>
<defs>
<clipPath id="clip0_59_1808">
<rect y="1078" width="1080" height="80" transform="rotate(-90 0 1078)" fill="white"/>
</clipPath>
</defs>
</svg>
