<svg width="106" height="37" viewBox="0 0 106 37" fill="none" xmlns="http://www.w3.org/2000/svg">
<path fill-rule="evenodd" clip-rule="evenodd" d="M42.7386 3.71905C42.6231 2.9001 43.0463 1.53516 44.316 1.61316C45.5856 1.69119 46.2446 2.90185 46.4321 6.37092C46.586 9.21778 46.0474 14.6775 45.5857 18.8503C46.4834 17.7973 48.656 15.3171 50.1642 13.8195C52.0494 11.9477 54.7426 10.3877 55.5891 11.6747C56.4355 12.9616 55.4351 14.1705 53.8577 15.1845C52.2803 16.1984 50.5874 17.4074 50.472 18.4213C50.3565 19.4353 51.857 20.8782 53.6653 21.3852C55.4736 21.8921 57.6282 21.6191 57.7821 20.9562C57.936 20.2932 57.8591 19.3572 59.0903 17.0564C60.3215 14.7555 61.9759 14.0925 63.2455 14.1705C64.5152 14.2486 67.6701 15.6135 69.0552 15.6135C70.4403 15.6134 71.5945 14.0145 72.7103 14.2095C73.826 14.4046 72.8642 16.1205 72.2486 18.5383C71.7561 20.4726 72.1204 21.6322 72.364 21.9701C72.7488 21.0602 73.8569 18.7723 75.2111 16.9004C76.904 14.5605 78.0967 13.9365 78.9432 13.8975C79.7896 13.8586 80.3283 14.5216 80.5591 17.2124C80.79 19.9032 82.5983 21.2682 84.0218 19.3183C85.2146 17.2904 87.0614 14.4825 90.7164 14.2485C94.3714 14.0145 94.8717 14.3655 94.7563 15.1845C95.4616 15.0805 96.7569 15.3561 96.2952 17.2904C95.8336 19.2247 95.2821 21.7101 95.0641 22.7111C96.3979 21.7231 99.4425 19.3885 100.951 17.9533C102.836 16.1594 104.029 13.8196 105.491 14.1705C106.953 14.5215 105.067 16.4325 102.374 19.1233C100.22 21.276 96.4492 23.972 94.8332 25.051C94.115 26.5719 92.2092 30.3079 90.3317 33.0846C87.9847 36.5554 83.9449 38.3103 82.0981 35.8534C80.2513 33.3966 81.7134 29.4968 85.9071 26.1819C90.0656 22.8949 91.6516 23.3273 92.8409 23.1066C93.0694 22.927 93.2942 22.4952 93.2942 21.6192C93.2942 20.7011 92.948 20.5272 93.0634 20.0982C92.6786 20.5792 91.4089 21.7284 89.4083 22.4771C86.9075 23.4131 85.6285 23.4532 85.0222 23.0231C84.2527 22.4772 84.2911 22.0482 84.0218 22.0481C83.6371 22.0481 83.6329 22.3767 82.4444 22.4771C81.0593 22.5941 79.4434 21.7361 78.6354 19.7862C77.8275 17.8365 78.0582 17.1345 77.712 17.1344C77.3657 17.1344 75.9422 19.0843 75.0188 21.5412C74.0954 23.998 72.6718 24.895 71.7484 24.934C70.825 24.973 69.9016 22.5551 70.094 20.0982C70.2864 17.6415 70.6326 16.9395 70.2479 16.9784C69.8632 17.0174 69.286 17.4073 68.6705 17.4074C68.0549 17.4074 67.3623 16.8615 66.9776 17.1344C66.5928 17.4074 67.4008 18.0703 67.2469 20.8002C67.093 23.53 65.477 24.7 62.3221 24.856C59.7982 24.9808 58.8081 23.3481 58.6286 22.5161C58.0002 23.1661 56.0661 24.2866 53.3576 23.5691C49.9719 22.6721 48.5868 20.6053 48.3174 20.3322C48.0481 20.0592 47.7018 19.6693 47.2016 20.4102C46.7015 21.1512 45.932 22.3211 45.6626 22.9061C45.3933 23.4911 44.97 24.856 43.7389 24.856C42.5077 24.856 42.5462 23.3741 42.6616 22.5551C42.777 21.7363 42.6231 21.5412 42.5077 21.5022C42.3923 21.4632 40.9687 24.037 38.1985 24.037C35.9824 24.037 34.941 22.2951 34.6974 21.4242C34.2357 22.2951 32.8428 24.037 30.9653 24.037C28.6184 24.037 28.0028 21.6582 28.1182 19.2013C28.2336 16.7444 28.1951 14.0535 29.7341 14.0535C30.5805 14.0536 30.7345 14.9895 30.6575 16.5494C30.5806 18.1093 30.4267 21.5802 31.3501 21.4242C32.2735 21.2681 33.9279 19.2013 34.1202 18.2653C34.3126 17.3294 34.428 14.0535 36.2363 14.0535C38.0446 14.0536 37.1213 17.0174 37.0828 17.9533C37.0443 18.8893 36.6211 21.6582 38.5833 21.6582C40.5455 21.6581 43.3541 18.6942 43.3541 12.7276C43.3541 6.76096 42.8059 4.19662 42.7386 3.71905ZM91.8322 25.051C90.8703 24.661 87.6385 27.2349 85.253 29.8087C83.5017 31.6984 83.0215 34.1765 84.9837 34.1765C86.9459 34.1765 88.2837 31.882 90.0624 29.0678C91.6397 26.5721 92.1014 25.1681 91.8322 25.051ZM63.3994 16.8224C62.2452 16.8224 61.4372 18.3433 61.1294 19.0843C60.8216 19.8252 60.2445 22.5551 62.3991 22.5551C64.5537 22.5551 64.6563 20.2152 64.746 19.6693C64.823 19.2013 64.9384 16.8224 63.3994 16.8224ZM92.7939 16.6664C92.4476 16.2764 91.2549 16.2374 89.0619 17.2904C87.4844 18.0703 86.3303 19.6303 86.4457 20.2932C86.5771 21.0477 89.0279 20.1143 91.101 19.0843C93.0633 18.1093 93.1402 17.0564 92.7939 16.6664Z" fill="white"/>
<path d="M0.878146 6.60491C2.37866 3.44607 4.57173 -0.258747 8.18833 0.0142391C11.8049 0.287262 10.6997 8.39497 10.6507 8.8668C10.4968 10.3488 8.49613 22.2041 9.91969 22.0481C10.9874 21.931 14.1904 14.2485 14.5366 13.1566C14.8829 12.0646 16.0372 9.45177 16.268 8.8668C16.6989 7.77485 19.0723 7.34571 18.9612 10.3487C18.8458 13.4686 19.1151 21.3462 21.8853 21.3462C25.2765 21.3461 24.5401 9.72484 24.4246 8.63281C24.3692 8.10811 23.4243 2.05431 24.3092 1.88615C25.1941 1.71798 25.8482 2.66612 26.5023 6.64391C27.3551 11.8307 27.5411 23.6081 22.9626 24.505C18.0234 25.4726 16.8836 18.9673 16.4988 14.9505C15.7807 16.6144 14.1728 20.69 13.5748 21.9311C12.7668 23.608 10.9585 25.8699 8.76545 24.817C6.57239 23.764 6.49544 20.9172 7.41883 15.1455C8.34222 9.37381 8.95781 3.36814 8.18833 2.62711C7.41882 1.88615 5.03341 3.32907 3.87917 5.78595C2.72493 8.24283 2.45561 9.41276 2.18628 10.3487C2.01391 10.9477 1.14747 11.2847 0.724247 10.9337C0.128692 10.4398 -0.622365 9.76375 0.878146 6.60491Z" fill="white"/>
</svg>
