<svg width="106" height="38" viewBox="0 0 106 38" fill="none" xmlns="http://www.w3.org/2000/svg">
<path fill-rule="evenodd" clip-rule="evenodd" d="M42.7386 4.21905C42.6231 3.4001 43.0464 2.03516 44.316 2.11316C45.5856 2.19119 46.2446 3.40185 46.4321 6.87092C46.586 9.71778 46.0474 15.1775 45.5857 19.3503C46.4834 18.2973 48.656 15.8171 50.1642 14.3195C52.0494 12.4477 54.7426 10.8877 55.5891 12.1747C56.4355 13.4616 55.4352 14.6705 53.8577 15.6845C52.2803 16.6984 50.5874 17.9074 50.472 18.9213C50.3565 19.9353 51.857 21.3782 53.6654 21.8852C55.4736 22.3921 57.6282 22.1191 57.7821 21.4562C57.936 20.7932 57.8591 19.8572 59.0903 17.5564C60.3215 15.2555 61.9759 14.5925 63.2455 14.6705C64.5152 14.7486 67.6701 16.1135 69.0552 16.1135C70.4403 16.1134 71.5946 14.5145 72.7103 14.7095C73.826 14.9046 72.8642 16.6205 72.2486 19.0383C71.7561 20.9726 72.1204 22.1322 72.364 22.4701C72.7488 21.5602 73.8569 19.2723 75.2112 17.4004C76.904 15.0605 78.0968 14.4365 78.9432 14.3975C79.7896 14.3586 80.3283 15.0216 80.5591 17.7124C80.79 20.4032 82.5983 21.7682 84.0218 19.8183C85.2146 17.7904 87.0614 14.9825 90.7164 14.7485C94.3714 14.5145 94.8717 14.8655 94.7563 15.6845C95.4617 15.5805 96.7569 15.8561 96.2953 17.7904C95.8336 19.7247 95.2821 22.2101 95.0641 23.2111C96.3979 22.2231 99.4425 19.8885 100.951 18.4533C102.836 16.6594 104.029 14.3196 105.491 14.6705C106.953 15.0215 105.067 16.9325 102.374 19.6233C100.22 21.776 96.4492 24.472 94.8332 25.551C94.115 27.0719 92.2092 30.8079 90.3317 33.5846C87.9847 37.0554 83.9449 38.8103 82.0981 36.3534C80.2513 33.8966 81.7134 29.9968 85.9071 26.6819C90.0656 23.3949 91.6516 23.8273 92.8409 23.6066C93.0695 23.427 93.2942 22.9952 93.2942 22.1192C93.2942 21.2011 92.948 21.0272 93.0634 20.5982C92.6786 21.0792 91.4089 22.2284 89.4083 22.9771C86.9075 23.9131 85.6285 23.9532 85.0222 23.5231C84.2528 22.9772 84.2911 22.5482 84.0218 22.5481C83.6371 22.5481 83.6329 22.8767 82.4444 22.9771C81.0593 23.0941 79.4434 22.2361 78.6354 20.2862C77.8275 18.3365 78.0582 17.6345 77.712 17.6344C77.3657 17.6344 75.9422 19.5843 75.0188 22.0412C74.0954 24.498 72.6718 25.395 71.7484 25.434C70.825 25.473 69.9016 23.0551 70.094 20.5982C70.2864 18.1415 70.6326 17.4395 70.2479 17.4784C69.8632 17.5174 69.286 17.9073 68.6705 17.9074C68.0549 17.9074 67.3623 17.3615 66.9776 17.6344C66.5928 17.9074 67.4008 18.5703 67.2469 21.3002C67.093 24.03 65.477 25.2 62.3221 25.356C59.7982 25.4808 58.8081 23.8481 58.6286 23.0161C58.0002 23.6661 56.0661 24.7866 53.3576 24.0691C49.9719 23.1721 48.5868 21.1053 48.3174 20.8322C48.0481 20.5592 47.7018 20.1693 47.2016 20.9102C46.7015 21.6512 45.932 22.8211 45.6626 23.4061C45.3933 23.9911 44.97 25.356 43.7389 25.356C42.5077 25.356 42.5462 23.8741 42.6616 23.0551C42.777 22.2363 42.6231 22.0412 42.5077 22.0022C42.3923 21.9632 40.9687 24.537 38.1985 24.537C35.9824 24.537 34.941 22.7951 34.6974 21.9242C34.2357 22.7951 32.8428 24.537 30.9653 24.537C28.6184 24.537 28.0028 22.1582 28.1182 19.7013C28.2336 17.2444 28.1951 14.5535 29.7341 14.5535C30.5805 14.5536 30.7345 15.4895 30.6575 17.0494C30.5806 18.6093 30.4267 22.0802 31.3501 21.9242C32.2735 21.7681 33.9279 19.7013 34.1202 18.7653C34.3126 17.8294 34.428 14.5535 36.2363 14.5535C38.0446 14.5536 37.1213 17.5174 37.0828 18.4533C37.0443 19.3893 36.6211 22.1582 38.5833 22.1582C40.5455 22.1581 43.3541 19.1942 43.3541 13.2276C43.3541 7.26096 42.8059 4.69662 42.7386 4.21905ZM91.8322 25.551C90.8703 25.161 87.6385 27.7349 85.253 30.3087C83.5017 32.1984 83.0215 34.6765 84.9837 34.6765C86.9459 34.6765 88.2837 32.382 90.0624 29.5678C91.6397 27.0721 92.1014 25.6681 91.8322 25.551ZM63.3994 17.3224C62.2452 17.3224 61.4372 18.8433 61.1294 19.5843C60.8216 20.3252 60.2445 23.0551 62.3991 23.0551C64.5537 23.0551 64.6563 20.7152 64.746 20.1693C64.823 19.7013 64.9384 17.3224 63.3994 17.3224ZM92.7939 17.1664C92.4476 16.7764 91.2549 16.7374 89.0619 17.7904C87.4844 18.5703 86.3303 20.1303 86.4457 20.7932C86.5771 21.5477 89.0279 20.6143 91.101 19.5843C93.0633 18.6093 93.1402 17.5564 92.7939 17.1664Z" fill="black"/>
<path d="M0.878146 7.10491C2.37866 3.94607 4.57173 0.241253 8.18833 0.514239C11.8049 0.787262 10.6997 8.89497 10.6507 9.3668C10.4968 10.8488 8.49613 22.7041 9.91969 22.5481C10.9874 22.431 14.1904 14.7485 14.5366 13.6566C14.8829 12.5646 16.0372 9.95177 16.268 9.3668C16.6989 8.27485 19.0723 7.84571 18.9612 10.8487C18.8458 13.9686 19.1151 21.8462 21.8853 21.8462C25.2765 21.8461 24.5401 10.2248 24.4246 9.13281C24.3692 8.60811 23.4243 2.55431 24.3092 2.38615C25.1941 2.21798 25.8482 3.16612 26.5023 7.14391C27.3551 12.3307 27.5411 24.1081 22.9626 25.005C18.0234 25.9726 16.8836 19.4673 16.4988 15.4505C15.7807 17.1144 14.1728 21.19 13.5748 22.4311C12.7668 24.108 10.9585 26.3699 8.76545 25.317C6.57239 24.2641 6.49544 21.4172 7.41884 15.6455C8.34222 9.87381 8.95781 3.86814 8.18833 3.12711C7.41882 2.38615 5.03341 3.82907 3.87917 6.28595C2.72493 8.74283 2.45561 9.91276 2.18628 10.8487C2.01391 11.4477 1.14747 11.7847 0.724247 11.4337C0.128692 10.9398 -0.622365 10.2638 0.878146 7.10491Z" fill="black"/>
</svg>
