<svg xmlns="http://www.w3.org/2000/svg" width="320" height="110" viewBox="0 0 320 110" fill="none">
  <path fill-rule="evenodd" clip-rule="evenodd" d="M129.022 11.0566C128.674 8.62191 129.951 4.564 133.784 4.79588C137.617 5.02786 139.606 8.62713 140.172 18.9406C140.637 27.4042 139.011 43.6358 137.617 56.0414C140.327 52.911 146.886 45.5372 151.439 41.0851C157.13 35.5201 165.261 30.8824 167.816 34.7084C170.371 38.5344 167.351 42.1286 162.589 45.143C157.827 48.1575 152.717 51.7516 152.368 54.7661C152.02 57.7805 156.55 62.0703 162.009 63.5775C167.468 65.0847 173.972 64.2731 174.437 62.3022C174.901 60.3312 174.669 57.5486 178.386 50.7082C182.103 43.8678 187.097 41.8967 190.93 42.1286C194.763 42.3606 204.287 46.4184 208.469 46.4184C212.65 46.4182 216.134 41.6648 219.503 42.2445C222.871 42.8244 219.967 47.9257 218.109 55.1139C216.622 60.8645 217.722 64.3118 218.457 65.3166C219.619 62.6113 222.964 55.8095 227.053 50.2444C232.163 43.2881 235.764 41.433 238.319 41.317C240.874 41.2012 242.5 43.1723 243.197 51.1719C243.894 59.1718 249.353 63.2297 253.651 57.4327C257.252 51.4038 262.827 43.0561 273.861 42.3605C284.895 41.6649 286.405 42.7084 286.057 45.143C288.186 44.8339 292.096 45.6534 290.703 51.4038C289.309 57.1544 287.644 64.5437 286.986 67.5195C291.012 64.5823 300.204 57.6414 304.757 53.3748C310.448 48.0416 314.049 41.0852 318.462 42.1286C322.876 43.1722 317.185 48.8533 309.054 56.853C302.55 63.2528 291.167 71.2682 286.289 74.4759C284.121 78.9976 278.367 90.1047 272.699 98.3596C265.614 108.678 253.419 113.895 247.843 106.591C242.268 99.2871 246.682 87.6931 259.342 77.8382C271.896 68.066 276.684 69.3514 280.274 68.6954C280.964 68.1614 281.643 66.8775 281.643 64.2732C281.643 61.5437 280.598 61.0268 280.946 59.7515C279.785 61.1814 275.952 64.5978 269.912 66.8239C262.362 69.6064 258.501 69.7259 256.671 68.447C254.348 66.824 254.464 65.5487 253.651 65.5485C252.489 65.5485 252.477 66.5253 248.889 66.8239C244.707 67.1717 239.829 64.621 237.39 58.824C234.951 53.0273 235.647 50.9403 234.602 50.9401C233.557 50.9401 229.259 56.7371 226.472 64.0413C223.684 71.3454 219.387 74.012 216.599 74.1281C213.811 74.244 211.024 67.0557 211.605 59.7515C212.185 52.4477 213.23 50.3606 212.069 50.4763C210.908 50.5922 209.165 51.7516 207.307 51.7516C205.449 51.7516 203.358 50.1287 202.196 50.9401C201.035 51.7516 203.474 53.7226 203.01 61.8384C202.545 69.9542 197.666 73.4324 188.142 73.8962C180.523 74.2672 177.534 69.4132 176.992 66.9398C175.095 68.8721 169.256 72.2034 161.079 70.0702C150.859 67.4036 146.677 61.2591 145.864 60.4471C145.051 59.6356 144.005 58.4763 142.495 60.679C140.986 62.8819 138.663 66.3601 137.849 68.0992C137.036 69.8383 135.759 73.8961 132.042 73.8962C128.325 73.8962 128.441 69.4905 128.79 67.0557C129.138 64.6214 128.674 64.0414 128.325 63.9253C127.977 63.8094 123.679 71.4613 115.316 71.4615C108.626 71.4615 105.482 66.2828 104.747 63.6935C103.353 66.2828 99.1482 71.4613 93.4802 71.4615C86.3951 71.4615 84.5367 64.3891 84.8851 57.0849C85.2336 49.7807 85.1174 41.7808 89.7634 41.7808C92.3185 41.7809 92.7833 44.5635 92.551 49.201C92.3187 53.8386 91.8541 64.1572 94.6417 63.6935C97.4293 63.2295 102.424 57.0848 103.004 54.3023C103.585 51.5197 103.934 41.7808 109.393 41.7808C114.852 41.781 112.064 50.5922 111.948 53.3748C111.832 56.1574 110.554 64.3891 116.478 64.3891C122.402 64.3889 130.88 55.5775 130.88 37.8388C130.88 20.1001 129.225 12.4764 129.022 11.0566ZM277.229 74.4759C274.326 73.3165 264.569 80.9686 257.368 88.6206C252.081 94.2386 250.631 101.606 256.555 101.606C262.478 101.606 266.517 94.7844 271.886 86.4177C276.648 78.9981 278.042 74.8242 277.229 74.4759ZM191.395 50.0125C187.91 50.0125 185.471 54.5342 184.542 56.7371C183.612 58.9399 181.87 67.0557 188.375 67.0557C194.879 67.0557 195.189 60.0993 195.46 58.4762C195.692 57.0849 196.04 50.0126 191.395 50.0125ZM280.133 49.5488C279.087 48.3894 275.486 48.2735 268.866 51.4038C264.104 53.7226 260.62 58.3602 260.968 60.3312C261.365 62.5744 268.763 59.7992 275.022 56.7371C280.946 53.8386 281.178 50.7082 280.133 49.5488Z" fill="white"/>
  <path d="M2.65101 19.6362C7.18085 10.2451 13.8014 -0.769248 24.7195 0.0423325C35.6374 0.854023 32.301 24.958 32.1531 26.3607C31.6884 30.7666 25.6487 66.0123 29.9462 65.5485C33.1695 65.2002 42.8389 42.3605 43.8842 39.1142C44.9296 35.8678 48.414 28.0998 49.1109 26.3607C50.4118 23.1144 57.5768 21.8386 57.2414 30.7665C56.893 40.0417 57.7061 63.4616 66.0688 63.4616C76.3063 63.4614 74.0832 28.9117 73.7347 25.6651C73.5673 24.1052 70.7148 6.10742 73.3863 5.60746C76.0577 5.10752 78.0323 7.92629 80.0068 19.7522C82.5815 35.1722 83.1429 70.1861 69.321 72.8527C54.4102 75.7294 50.9694 56.3893 49.8078 44.4474C47.6397 49.3942 42.7857 61.5109 40.9805 65.2007C38.5413 70.1861 33.0822 76.9105 26.4617 73.7803C19.8412 70.6499 19.6089 62.1862 22.3965 45.0271C25.1841 27.8681 27.0424 10.0134 24.7195 7.81032C22.3965 5.60746 15.1952 9.89725 11.7107 17.2015C8.2262 24.5057 7.41317 27.9839 6.6001 30.7665C6.07974 32.5473 3.46405 33.549 2.18641 32.5056C0.388505 31.0372 -1.87884 29.0274 2.65101 19.6362Z" fill="white"/>
</svg>